<?xml version="1.0" encoding="utf-8"?>
<!-- Generator: Adobe Illustrator 26.0.2, SVG Export Plug-In . SVG Version: 6.00 Build 0)  -->
<svg version="1.1" id="_x2014_ÎÓÈ_x5F_1" xmlns="http://www.w3.org/2000/svg" xmlns:xlink="http://www.w3.org/1999/xlink"
	 x="0px" y="0px" viewBox="0 0 1794 1794" style="enable-background:new 0 0 1794 1794;" xml:space="preserve">
<style type="text/css">
	.st0{opacity:0.29;fill:#EEB900;}
</style>
<rect x="-34" y="-46" class="st0" width="1861.2" height="1861.2"/>
<g>
	<rect x="-902.7" y="1332.4" transform="matrix(0.7071 -0.7071 0.7071 0.7071 -620.6014 1171.4927)" width="4013.1" height="5"/>
	<rect x="-873.3" y="1361.7" transform="matrix(0.7071 -0.7071 0.7071 0.7071 -632.6968 1200.8859)" width="4013.1" height="5"/>
	<rect x="-844" y="1391" transform="matrix(0.7071 -0.7071 0.7071 0.7071 -644.8217 1230.1738)" width="4013.1" height="5"/>
	<rect x="-814.7" y="1420.4" transform="matrix(0.7071 -0.7071 0.7071 0.7071 -657.0515 1259.4915)" width="4013.1" height="5"/>
	<rect x="-785.3" y="1449.7" transform="matrix(0.7071 -0.7071 0.7071 0.7071 -669.1469 1288.8848)" width="4013.1" height="5"/>
	<rect x="-756" y="1479" transform="matrix(0.7071 -0.7071 0.7071 0.7071 -681.2719 1318.1729)" width="4013.1" height="5"/>
	<rect x="-726.7" y="1508.4" transform="matrix(0.7071 -0.7071 0.7071 0.7071 -693.5016 1347.4904)" width="4013.1" height="5"/>
	<rect x="-697.3" y="1537.7" transform="matrix(0.7071 -0.7071 0.7071 0.7071 -705.597 1376.8835)" width="4013.1" height="5"/>
	<rect x="-668" y="1567" transform="matrix(0.7071 -0.7071 0.7071 0.7071 -717.722 1406.1716)" width="4013.1" height="5"/>
	<rect x="-638.7" y="1596.4" transform="matrix(0.7071 -0.7071 0.7071 0.7071 -729.9517 1435.4893)" width="4013.1" height="5"/>
	<rect x="-609.3" y="1625.7" transform="matrix(0.7071 -0.7071 0.7071 0.7071 -742.0472 1464.8824)" width="4013.1" height="5"/>
	<rect x="-580" y="1655" transform="matrix(0.7071 -0.7071 0.7071 0.7071 -754.1721 1494.1707)" width="4013.1" height="5"/>
	<rect x="-550.7" y="1684.4" transform="matrix(0.7071 -0.7071 0.7071 0.7071 -766.4019 1523.4882)" width="4013.1" height="5"/>
	<rect x="-521.3" y="1713.7" transform="matrix(0.7071 -0.7071 0.7071 0.7071 -778.4973 1552.8813)" width="4013.1" height="5"/>
	<rect x="-492" y="1743" transform="matrix(0.7071 -0.7071 0.7071 0.7071 -790.6223 1582.1694)" width="4013.1" height="5"/>
	<rect x="-462.7" y="1772.4" transform="matrix(0.7071 -0.7071 0.7071 0.7071 -802.8521 1611.4869)" width="4013.1" height="5"/>
	<rect x="-433.3" y="1801.7" transform="matrix(0.7071 -0.7071 0.7071 0.7071 -814.9474 1640.8801)" width="4013.1" height="5"/>
	<rect x="-404" y="1830.9" transform="matrix(0.7071 -0.7071 0.7071 0.7071 -827.0723 1670.1682)" width="4013.1" height="5"/>
	<rect x="-374.7" y="1860.4" transform="matrix(0.7071 -0.7071 0.7071 0.7071 -839.3022 1699.4858)" width="4013.1" height="5"/>
	<rect x="-345.3" y="1889.7" transform="matrix(0.7071 -0.7071 0.7071 0.7071 -851.3977 1728.879)" width="4013.1" height="5"/>
	<rect x="-316" y="1918.9" transform="matrix(0.7071 -0.7071 0.7071 0.7071 -863.5226 1758.1671)" width="4013.1" height="5"/>
	<rect x="-286.7" y="1948.4" transform="matrix(0.7071 -0.7071 0.7071 0.7071 -875.7524 1787.4846)" width="4013.1" height="5"/>
	<rect x="-1547.7" y="687.4" transform="matrix(0.7071 -0.7071 0.7071 0.7071 -353.4233 526.5298)" width="4013.1" height="5"/>
	<rect x="-1518.4" y="716.6" transform="matrix(0.7071 -0.7071 0.7071 0.7071 -365.5016 555.7645)" width="4013.1" height="5"/>
	<rect x="-1489.1" y="746" transform="matrix(0.7071 -0.7071 0.7071 0.7071 -377.7145 585.1231)" width="4013.1" height="5"/>
	<rect x="-1459.7" y="775.4" transform="matrix(0.7071 -0.7071 0.7071 0.7071 -389.8735 614.5286)" width="4013.1" height="5"/>
	<rect x="-1430.4" y="804.6" transform="matrix(0.7071 -0.7071 0.7071 0.7071 -401.9518 643.7633)" width="4013.1" height="5"/>
	<rect x="-1401.1" y="834" transform="matrix(0.7071 -0.7071 0.7071 0.7071 -414.1646 673.122)" width="4013.1" height="5"/>
	<rect x="-1371.7" y="863.4" transform="matrix(0.7071 -0.7071 0.7071 0.7071 -426.3236 702.5275)" width="4013.1" height="5"/>
	<rect x="-1342.4" y="892.6" transform="matrix(0.7071 -0.7071 0.7071 0.7071 -438.402 731.7621)" width="4013.1" height="5"/>
	<rect x="-1313.1" y="922" transform="matrix(0.7071 -0.7071 0.7071 0.7071 -450.6148 761.1208)" width="4013.1" height="5"/>
	<rect x="-1283.7" y="951.4" transform="matrix(0.7071 -0.7071 0.7071 0.7071 -462.7737 790.5264)" width="4013.1" height="5"/>
	<rect x="-1254.4" y="980.6" transform="matrix(0.7071 -0.7071 0.7071 0.7071 -474.8521 819.761)" width="4013.1" height="5"/>
	<rect x="-1225.1" y="1010" transform="matrix(0.7071 -0.7071 0.7071 0.7071 -487.0649 849.1197)" width="4013.1" height="5"/>
	<rect x="-1195.7" y="1039.4" transform="matrix(0.7071 -0.7071 0.7071 0.7071 -499.2239 878.5253)" width="4013.1" height="5"/>
	<rect x="-1166.4" y="1068.6" transform="matrix(0.7071 -0.7071 0.7071 0.7071 -511.3022 907.7598)" width="4013.1" height="5"/>
	<rect x="-1137.1" y="1098" transform="matrix(0.7071 -0.7071 0.7071 0.7071 -523.5151 937.1185)" width="4013.1" height="5"/>
	<rect x="-1107.7" y="1127.4" transform="matrix(0.7071 -0.7071 0.7071 0.7071 -535.674 966.5242)" width="4013.1" height="5"/>
	<rect x="-1078.4" y="1156.6" transform="matrix(0.7071 -0.7071 0.7071 0.7071 -547.7524 995.7587)" width="4013.1" height="5"/>
	<rect x="-1049.1" y="1186" transform="matrix(0.7071 -0.7071 0.7071 0.7071 -559.9651 1025.1173)" width="4013.1" height="5"/>
	<rect x="-1019.7" y="1215.4" transform="matrix(0.7071 -0.7071 0.7071 0.7071 -572.1242 1054.5229)" width="4013.1" height="5"/>
	<rect x="-990.4" y="1244.6" transform="matrix(0.7071 -0.7071 0.7071 0.7071 -584.2025 1083.7577)" width="4013.1" height="5"/>
	<rect x="-961.1" y="1274" transform="matrix(0.7071 -0.7071 0.7071 0.7071 -596.4154 1113.1162)" width="4013.1" height="5"/>
	<rect x="-931.7" y="1303.4" transform="matrix(0.7071 -0.7071 0.7071 0.7071 -608.5744 1142.5217)" width="4013.1" height="5"/>
	<rect x="-2192.8" y="42.3" transform="matrix(0.7071 -0.7071 0.7071 0.7071 -86.2283 -118.5918)" width="4013.1" height="5"/>
	<rect x="-2163.4" y="71.6" transform="matrix(0.7071 -0.7071 0.7071 0.7071 -98.3236 -89.1984)" width="4013.1" height="5"/>
	<rect x="-2134.1" y="100.9" transform="matrix(0.7071 -0.7071 0.7071 0.7071 -110.4487 -59.9106)" width="4013.1" height="5"/>
	<rect x="-2104.8" y="130.3" transform="matrix(0.7071 -0.7071 0.7071 0.7071 -122.6783 -30.593)" width="4013.1" height="5"/>
	<rect x="-2075.4" y="159.6" transform="matrix(0.7071 -0.7071 0.7071 0.7071 -134.7737 -1.1995)" width="4013.1" height="5"/>
	<rect x="-2046.1" y="188.9" transform="matrix(0.7071 -0.7071 0.7071 0.7071 -146.8987 28.0883)" width="4013.1" height="5"/>
	<rect x="-2016.8" y="218.3" transform="matrix(0.7071 -0.7071 0.7071 0.7071 -159.1285 57.4058)" width="4013.1" height="5"/>
	<rect x="-1987.4" y="247.6" transform="matrix(0.7071 -0.7071 0.7071 0.7071 -171.224 86.7992)" width="4013.1" height="5"/>
	<rect x="-1958.1" y="276.9" transform="matrix(0.7071 -0.7071 0.7071 0.7071 -183.3489 116.0872)" width="4013.1" height="5"/>
	<rect x="-1928.8" y="306.3" transform="matrix(0.7071 -0.7071 0.7071 0.7071 -195.5787 145.4047)" width="4013.1" height="5"/>
	<rect x="-1899.4" y="335.6" transform="matrix(0.7071 -0.7071 0.7071 0.7071 -207.6741 174.7982)" width="4013.1" height="5"/>
	<rect x="-1870.1" y="364.9" transform="matrix(0.7071 -0.7071 0.7071 0.7071 -219.7991 204.0861)" width="4013.1" height="5"/>
	<rect x="-1840.8" y="394.3" transform="matrix(0.7071 -0.7071 0.7071 0.7071 -232.0289 233.4036)" width="4013.1" height="5"/>
	<rect x="-1811.4" y="423.6" transform="matrix(0.7071 -0.7071 0.7071 0.7071 -244.1242 262.797)" width="4013.1" height="5"/>
	<rect x="-1782.1" y="452.9" transform="matrix(0.7071 -0.7071 0.7071 0.7071 -256.2492 292.0849)" width="4013.1" height="5"/>
	<rect x="-1752.8" y="482.3" transform="matrix(0.7071 -0.7071 0.7071 0.7071 -268.479 321.4025)" width="4013.1" height="5"/>
	<rect x="-1723.4" y="511.6" transform="matrix(0.7071 -0.7071 0.7071 0.7071 -280.5745 350.7958)" width="4013.1" height="5"/>
	<rect x="-1694.1" y="540.9" transform="matrix(0.7071 -0.7071 0.7071 0.7071 -292.6993 380.0838)" width="4013.1" height="5"/>
	<rect x="-1664.8" y="570.3" transform="matrix(0.7071 -0.7071 0.7071 0.7071 -304.9291 409.4012)" width="4013.1" height="5"/>
	<rect x="-1635.4" y="599.6" transform="matrix(0.7071 -0.7071 0.7071 0.7071 -317.0246 438.7947)" width="4013.1" height="5"/>
	<rect x="-1606.1" y="628.9" transform="matrix(0.7071 -0.7071 0.7071 0.7071 -329.1495 468.0826)" width="4013.1" height="5"/>
	<rect x="-1576.8" y="658.3" transform="matrix(0.7071 -0.7071 0.7071 0.7071 -341.3793 497.4002)" width="4013.1" height="5"/>
</g>
</svg>
