<?xml version="1.0" encoding="utf-8"?>
<!-- Generator: Adobe Illustrator 26.0.2, SVG Export Plug-In . SVG Version: 6.00 Build 0)  -->
<svg version="1.1" id="_x2014_ÎÓÈ_x5F_1" xmlns="http://www.w3.org/2000/svg" xmlns:xlink="http://www.w3.org/1999/xlink"
	 x="0px" y="0px" viewBox="0 0 1794 1794" style="enable-background:new 0 0 1794 1794;" xml:space="preserve">
<style type="text/css">
	.st0{opacity:0.78;fill:#DD4721;}
	.st1{fill:#F3F0DB;}
</style>
<rect x="-34" y="-46" class="st0" width="1861.2" height="1861.2"/>
<g>
	<g>
		
			<rect x="-112.9" y="1355.3" transform="matrix(0.7071 -0.7071 0.7071 0.7071 -570.9059 1337.3159)" class="st1" width="2883.5" height="5"/>
		
			<rect x="-56.9" y="1411.3" transform="matrix(0.7071 -0.7071 0.7071 0.7071 -594.1016 1393.3152)" class="st1" width="2883.5" height="5"/>
		
			<rect x="-0.9" y="1467.3" transform="matrix(0.7071 -0.7071 0.7071 0.7071 -617.2971 1449.3145)" class="st1" width="2883.5" height="5"/>
		
			<rect x="55.1" y="1523.3" transform="matrix(0.7071 -0.7071 0.7071 0.7071 -640.4926 1505.3137)" class="st1" width="2883.5" height="5"/>
		
			<rect x="111.1" y="1579.3" transform="matrix(0.7071 -0.7071 0.7071 0.7071 -663.6882 1561.3131)" class="st1" width="2883.5" height="5"/>
		
			<rect x="167.1" y="1635.3" transform="matrix(0.7071 -0.7071 0.7071 0.7071 -686.8837 1617.3123)" class="st1" width="2883.5" height="5"/>
		
			<rect x="223.1" y="1691.3" transform="matrix(0.7071 -0.7071 0.7071 0.7071 -710.0793 1673.3115)" class="st1" width="2883.5" height="5"/>
		
			<rect x="279.1" y="1747.3" transform="matrix(0.7071 -0.7071 0.7071 0.7071 -733.2748 1729.3108)" class="st1" width="2883.5" height="5"/>
		
			<rect x="335.1" y="1803.3" transform="matrix(0.7071 -0.7071 0.7071 0.7071 -756.4703 1785.3101)" class="st1" width="2883.5" height="5"/>
		
			<rect x="391.1" y="1859.3" transform="matrix(0.7071 -0.7071 0.7071 0.7071 -779.666 1841.3093)" class="st1" width="2883.5" height="5"/>
		
			<rect x="447.1" y="1915.3" transform="matrix(0.7071 -0.7071 0.7071 0.7071 -802.8614 1897.3087)" class="st1" width="2883.5" height="5"/>
		
			<rect x="503.1" y="1971.3" transform="matrix(0.7071 -0.7071 0.7071 0.7071 -826.0571 1953.308)" class="st1" width="2883.5" height="5"/>
		
			<rect x="167.1" y="1635.3" transform="matrix(0.7071 -0.7071 0.7071 0.7071 -686.8824 1617.3118)" class="st1" width="2883.5" height="5"/>
		
			<rect x="-784.9" y="683.3" transform="matrix(0.7071 -0.7071 0.7071 0.7071 -292.5507 665.3378)" class="st1" width="2883.5" height="5"/>
		
			<rect x="-728.9" y="739.3" transform="matrix(0.7071 -0.7071 0.7071 0.7071 -315.7464 721.3371)" class="st1" width="2883.5" height="5"/>
		
			<rect x="-672.9" y="795.3" transform="matrix(0.7071 -0.7071 0.7071 0.7071 -338.9419 777.3364)" class="st1" width="2883.5" height="5"/>
		
			<rect x="-616.9" y="851.3" transform="matrix(0.7071 -0.7071 0.7071 0.7071 -362.1374 833.3357)" class="st1" width="2883.5" height="5"/>
		
			<rect x="-560.9" y="907.3" transform="matrix(0.7071 -0.7071 0.7071 0.7071 -385.333 889.3348)" class="st1" width="2883.5" height="5"/>
		
			<rect x="-504.9" y="963.3" transform="matrix(0.7071 -0.7071 0.7071 0.7071 -408.5286 945.3342)" class="st1" width="2883.5" height="5"/>
		
			<rect x="-448.9" y="1019.3" transform="matrix(0.7071 -0.7071 0.7071 0.7071 -431.7241 1001.3334)" class="st1" width="2883.5" height="5"/>
		
			<rect x="-392.9" y="1075.3" transform="matrix(0.7071 -0.7071 0.7071 0.7071 -454.9197 1057.3326)" class="st1" width="2883.5" height="5"/>
		
			<rect x="-336.9" y="1131.3" transform="matrix(0.7071 -0.7071 0.7071 0.7071 -478.1152 1113.3319)" class="st1" width="2883.5" height="5"/>
		
			<rect x="-280.9" y="1187.3" transform="matrix(0.7071 -0.7071 0.7071 0.7071 -501.3108 1169.3313)" class="st1" width="2883.5" height="5"/>
		
			<rect x="-224.9" y="1243.3" transform="matrix(0.7071 -0.7071 0.7071 0.7071 -524.5063 1225.3306)" class="st1" width="2883.5" height="5"/>
		
			<rect x="-168.9" y="1299.3" transform="matrix(0.7071 -0.7071 0.7071 0.7071 -547.7018 1281.3298)" class="st1" width="2883.5" height="5"/>
		
			<rect x="-504.9" y="963.3" transform="matrix(0.7071 -0.7071 0.7071 0.7071 -408.5272 945.3336)" class="st1" width="2883.5" height="5"/>
		
			<rect x="-1456.8" y="11.3" transform="matrix(0.7071 -0.7071 0.7071 0.7071 -14.1955 -6.6404)" class="st1" width="2883.5" height="5"/>
		
			<rect x="-1400.9" y="67.3" transform="matrix(0.7071 -0.7071 0.7071 0.7071 -37.3911 49.359)" class="st1" width="2883.5" height="5"/>
		
			<rect x="-1344.9" y="123.3" transform="matrix(0.7071 -0.7071 0.7071 0.7071 -60.5868 105.3582)" class="st1" width="2883.5" height="5"/>
		
			<rect x="-1288.9" y="179.3" transform="matrix(0.7071 -0.7071 0.7071 0.7071 -83.7822 161.3575)" class="st1" width="2883.5" height="5"/>
		
			<rect x="-1232.9" y="235.3" transform="matrix(0.7071 -0.7071 0.7071 0.7071 -106.9779 217.3567)" class="st1" width="2883.5" height="5"/>
		
			<rect x="-1176.9" y="291.3" transform="matrix(0.7071 -0.7071 0.7071 0.7071 -130.1734 273.356)" class="st1" width="2883.5" height="5"/>
		
			<rect x="-1120.9" y="347.3" transform="matrix(0.7071 -0.7071 0.7071 0.7071 -153.3689 329.3553)" class="st1" width="2883.5" height="5"/>
		
			<rect x="-1064.9" y="403.3" transform="matrix(0.7071 -0.7071 0.7071 0.7071 -176.5645 385.3546)" class="st1" width="2883.5" height="5"/>
		
			<rect x="-1008.9" y="459.3" transform="matrix(0.7071 -0.7071 0.7071 0.7071 -199.76 441.3538)" class="st1" width="2883.5" height="5"/>
		
			<rect x="-952.9" y="515.3" transform="matrix(0.7071 -0.7071 0.7071 0.7071 -222.9556 497.3531)" class="st1" width="2883.5" height="5"/>
		
			<rect x="-896.9" y="571.3" transform="matrix(0.7071 -0.7071 0.7071 0.7071 -246.1511 553.3524)" class="st1" width="2883.5" height="5"/>
		
			<rect x="-840.9" y="627.3" transform="matrix(0.7071 -0.7071 0.7071 0.7071 -269.3467 609.3517)" class="st1" width="2883.5" height="5"/>
		
			<rect x="-1176.9" y="291.3" transform="matrix(0.7071 -0.7071 0.7071 0.7071 -130.172 273.3554)" class="st1" width="2883.5" height="5"/>
	</g>
	<g>
		
			<rect x="-292.2" y="1258.1" transform="matrix(0.7071 -0.7071 0.7071 0.7071 -554.6509 1182.0798)" class="st1" width="2883.5" height="5"/>
		
			<rect x="-236.2" y="1314.1" transform="matrix(0.7071 -0.7071 0.7071 0.7071 -577.8466 1238.0791)" class="st1" width="2883.5" height="5"/>
		
			<rect x="-180.2" y="1370.1" transform="matrix(0.7071 -0.7071 0.7071 0.7071 -601.0421 1294.0784)" class="st1" width="2883.5" height="5"/>
		
			<rect x="-124.2" y="1426.1" transform="matrix(0.7071 -0.7071 0.7071 0.7071 -624.2375 1350.0776)" class="st1" width="2883.5" height="5"/>
		
			<rect x="-68.2" y="1482.1" transform="matrix(0.7071 -0.7071 0.7071 0.7071 -647.4332 1406.077)" class="st1" width="2883.5" height="5"/>
		
			<rect x="-12.2" y="1538.1" transform="matrix(0.7071 -0.7071 0.7071 0.7071 -670.6287 1462.0762)" class="st1" width="2883.5" height="5"/>
		
			<rect x="43.8" y="1594.1" transform="matrix(0.7071 -0.7071 0.7071 0.7071 -693.8243 1518.0754)" class="st1" width="2883.5" height="5"/>
		
			<rect x="99.8" y="1650.1" transform="matrix(0.7071 -0.7071 0.7071 0.7071 -717.0199 1574.0747)" class="st1" width="2883.5" height="5"/>
		
			<rect x="155.8" y="1706.1" transform="matrix(0.7071 -0.7071 0.7071 0.7071 -740.2153 1630.074)" class="st1" width="2883.5" height="5"/>
		
			<rect x="211.8" y="1762.1" transform="matrix(0.7071 -0.7071 0.7071 0.7071 -763.4109 1686.0734)" class="st1" width="2883.5" height="5"/>
		
			<rect x="267.8" y="1818.1" transform="matrix(0.7071 -0.7071 0.7071 0.7071 -786.6064 1742.0726)" class="st1" width="2883.5" height="5"/>
		
			<rect x="323.8" y="1874.1" transform="matrix(0.7071 -0.7071 0.7071 0.7071 -809.8021 1798.0719)" class="st1" width="2883.5" height="5"/>
		
			<rect x="-12.2" y="1538.1" transform="matrix(0.7071 -0.7071 0.7071 0.7071 -670.6274 1462.0757)" class="st1" width="2883.5" height="5"/>
		
			<rect x="-964.1" y="586.1" transform="matrix(0.7071 -0.7071 0.7071 0.7071 -276.2957 510.1017)" class="st1" width="2883.5" height="5"/>
		
			<rect x="-908.1" y="642.1" transform="matrix(0.7071 -0.7071 0.7071 0.7071 -299.4914 566.1011)" class="st1" width="2883.5" height="5"/>
		
			<rect x="-852.1" y="698.1" transform="matrix(0.7071 -0.7071 0.7071 0.7071 -322.6869 622.1003)" class="st1" width="2883.5" height="5"/>
		
			<rect x="-796.1" y="754.1" transform="matrix(0.7071 -0.7071 0.7071 0.7071 -345.8824 678.0996)" class="st1" width="2883.5" height="5"/>
		
			<rect x="-740.1" y="810.1" transform="matrix(0.7071 -0.7071 0.7071 0.7071 -369.078 734.0988)" class="st1" width="2883.5" height="5"/>
		
			<rect x="-684.1" y="866.1" transform="matrix(0.7071 -0.7071 0.7071 0.7071 -392.2736 790.0981)" class="st1" width="2883.5" height="5"/>
		
			<rect x="-628.1" y="922.1" transform="matrix(0.7071 -0.7071 0.7071 0.7071 -415.4691 846.0974)" class="st1" width="2883.5" height="5"/>
		
			<rect x="-572.1" y="978.1" transform="matrix(0.7071 -0.7071 0.7071 0.7071 -438.6647 902.0966)" class="st1" width="2883.5" height="5"/>
		
			<rect x="-516.1" y="1034.1" transform="matrix(0.7071 -0.7071 0.7071 0.7071 -461.8602 958.0958)" class="st1" width="2883.5" height="5"/>
		
			<rect x="-460.1" y="1090.1" transform="matrix(0.7071 -0.7071 0.7071 0.7071 -485.0558 1014.0952)" class="st1" width="2883.5" height="5"/>
		
			<rect x="-404.1" y="1146.1" transform="matrix(0.7071 -0.7071 0.7071 0.7071 -508.2513 1070.0945)" class="st1" width="2883.5" height="5"/>
		
			<rect x="-348.1" y="1202.1" transform="matrix(0.7071 -0.7071 0.7071 0.7071 -531.4468 1126.0938)" class="st1" width="2883.5" height="5"/>
		
			<rect x="-684.1" y="866.1" transform="matrix(0.7071 -0.7071 0.7071 0.7071 -392.2722 790.0975)" class="st1" width="2883.5" height="5"/>
		
			<rect x="-1636.1" y="-85.9" transform="matrix(0.7071 -0.7071 0.7071 0.7071 2.0594 -161.8764)" class="st1" width="2883.5" height="5"/>
		
			<rect x="-1580.1" y="-29.9" transform="matrix(0.7071 -0.7071 0.7071 0.7071 -21.1361 -105.8771)" class="st1" width="2883.5" height="5"/>
		
			<rect x="-1524.1" y="26.1" transform="matrix(0.7071 -0.7071 0.7071 0.7071 -44.3318 -49.8779)" class="st1" width="2883.5" height="5"/>
		
			<rect x="-1468.1" y="82.1" transform="matrix(0.7071 -0.7071 0.7071 0.7071 -67.5273 6.1214)" class="st1" width="2883.5" height="5"/>
		
			<rect x="-1412.1" y="138.1" transform="matrix(0.7071 -0.7071 0.7071 0.7071 -90.7229 62.1207)" class="st1" width="2883.5" height="5"/>
		
			<rect x="-1356.1" y="194.1" transform="matrix(0.7071 -0.7071 0.7071 0.7071 -113.9184 118.12)" class="st1" width="2883.5" height="5"/>
		
			<rect x="-1300.1" y="250.1" transform="matrix(0.7071 -0.7071 0.7071 0.7071 -137.1139 174.1192)" class="st1" width="2883.5" height="5"/>
		
			<rect x="-1244.1" y="306.1" transform="matrix(0.7071 -0.7071 0.7071 0.7071 -160.3095 230.1185)" class="st1" width="2883.5" height="5"/>
		
			<rect x="-1188.1" y="362.1" transform="matrix(0.7071 -0.7071 0.7071 0.7071 -183.505 286.1177)" class="st1" width="2883.5" height="5"/>
		
			<rect x="-1132.1" y="418.1" transform="matrix(0.7071 -0.7071 0.7071 0.7071 -206.7006 342.1171)" class="st1" width="2883.5" height="5"/>
		
			<rect x="-1076.1" y="474.1" transform="matrix(0.7071 -0.7071 0.7071 0.7071 -229.8961 398.1163)" class="st1" width="2883.5" height="5"/>
		
			<rect x="-1020.1" y="530.1" transform="matrix(0.7071 -0.7071 0.7071 0.7071 -253.0917 454.1156)" class="st1" width="2883.5" height="5"/>
		
			<rect x="-1356.1" y="194.1" transform="matrix(0.7071 -0.7071 0.7071 0.7071 -113.917 118.1193)" class="st1" width="2883.5" height="5"/>
	</g>
</g>
</svg>
