<?xml version="1.0" encoding="utf-8"?>
<!-- Generator: Adobe Illustrator 26.0.2, SVG Export Plug-In . SVG Version: 6.00 Build 0)  -->
<svg version="1.1" id="_x2014_ÎÓÈ_x5F_1" xmlns="http://www.w3.org/2000/svg" xmlns:xlink="http://www.w3.org/1999/xlink"
	 x="0px" y="0px" viewBox="0 0 1804.6 1804.6" style="enable-background:new 0 0 1804.6 1804.6;" xml:space="preserve">
<g>
	<g>
		<rect x="-1414" y="38.9" transform="matrix(0.7071 -0.7071 0.7071 0.7071 0.6148 80.3755)" width="3022.7" height="1.1"/>
	</g>
	<g>
		<rect x="-1418.3" y="34.6" transform="matrix(0.7071 -0.7071 0.7071 0.7071 2.3993 76.0765)" width="3022.7" height="1.1"/>
	</g>
	<g>
		<rect x="-1422.6" y="30.3" transform="matrix(0.7071 -0.7071 0.7071 0.7071 4.1839 71.7776)" width="3022.7" height="1.1"/>
	</g>
	<g>
		<rect x="-1426.9" y="26" transform="matrix(0.7071 -0.7071 0.7071 0.7071 5.9594 67.4824)" width="3022.7" height="1.1"/>
	</g>
	<g>
		<rect x="-1431.2" y="21.7" transform="matrix(0.7071 -0.7071 0.7071 0.7071 7.7358 63.1764)" width="3022.7" height="1.1"/>
	</g>
	<g>
		<rect x="-1435.5" y="17.4" transform="matrix(0.7071 -0.7071 0.7071 0.7071 9.5203 58.8774)" width="3022.7" height="1.1"/>
	</g>
	<g>
		<rect x="-1439.8" y="13.1" transform="matrix(0.7071 -0.7071 0.7071 0.7071 11.3093 54.5766)" width="3022.7" height="1.1"/>
	</g>
	<g>
		<rect x="-1444.1" y="8.8" transform="matrix(0.7071 -0.7071 0.7071 0.7071 13.0813 50.2724)" width="3022.7" height="1.1"/>
	</g>
	<g>
		<rect x="-1448.4" y="4.5" transform="matrix(0.7071 -0.7071 0.7071 0.7071 14.8658 45.9735)" width="3022.7" height="1.1"/>
	</g>
	<g>
		<rect x="-1452.7" y="0.2" transform="matrix(0.7071 -0.7071 0.7071 0.7071 16.6504 41.6746)" width="3022.7" height="1.1"/>
	</g>
	<g>
		<rect x="-1457" y="-4.1" transform="matrix(0.7071 -0.7071 0.7071 0.7071 18.4266 37.3794)" width="3022.7" height="1.1"/>
	</g>
	<g>
		<rect x="-1461.3" y="-8.4" transform="matrix(0.7071 -0.7071 0.7071 0.7071 20.2067 33.0715)" width="3022.7" height="1.1"/>
	</g>
	<g>
		<rect x="-1465.6" y="-12.7" transform="matrix(0.7071 -0.7071 0.7071 0.7071 21.9863 28.7743)" width="3022.7" height="1.1"/>
	</g>
	<g>
		<rect x="-1469.9" y="-17" transform="matrix(0.7071 -0.7071 0.7071 0.7071 23.7625 24.4792)" width="3022.7" height="1.1"/>
	</g>
	<g>
		<rect x="-1474.2" y="-21.3" transform="matrix(0.7071 -0.7071 0.7071 0.7071 25.5479 20.1694)" width="3022.7" height="1.1"/>
	</g>
	<g>
		<rect x="-1478.5" y="-25.6" transform="matrix(0.7071 -0.7071 0.7071 0.7071 27.3325 15.8705)" width="3022.7" height="1.1"/>
	</g>
	<g>
		<rect x="-1482.8" y="-29.9" transform="matrix(0.7071 -0.7071 0.7071 0.7071 29.1168 11.5715)" width="3022.7" height="1.1"/>
	</g>
	<g>
		<rect x="-1487.1" y="-34.2" transform="matrix(0.7071 -0.7071 0.7071 0.7071 30.8925 7.2764)" width="3022.7" height="1.1"/>
	</g>
	<g>
		<rect x="-1491.4" y="-38.5" transform="matrix(0.7071 -0.7071 0.7071 0.7071 32.6733 2.9684)" width="3022.7" height="1.1"/>
	</g>
	<g>
		<rect x="-1495.7" y="-42.8" transform="matrix(0.7071 -0.7071 0.7071 0.7071 34.4579 -1.3305)" width="3022.7" height="1.1"/>
	</g>
	<g>
		<rect x="-1500" y="-47.1" transform="matrix(0.7071 -0.7071 0.7071 0.7071 36.2291 -5.6238)" width="3022.7" height="1.1"/>
	</g>
	<g>
		<rect x="-1504.3" y="-51.4" transform="matrix(0.7071 -0.7071 0.7071 0.7071 38.0103 -9.9313)" width="3022.7" height="1.1"/>
	</g>
	<g>
		<rect x="-1508.6" y="-55.7" transform="matrix(0.7071 -0.7071 0.7071 0.7071 39.7989 -14.2325)" width="3022.7" height="1.1"/>
	</g>
	<g>
		<rect x="-1512.9" y="-59.9" transform="matrix(0.7071 -0.7071 0.7071 0.7071 41.4956 -18.4608)" width="3022.7" height="1.1"/>
	</g>
	<g>
		<rect x="-1517.2" y="-64.3" transform="matrix(0.7071 -0.7071 0.7071 0.7071 43.3591 -22.8267)" width="3022.7" height="1.1"/>
	</g>
	<g>
		<rect x="-1521.5" y="-68.5" transform="matrix(0.7071 -0.7071 0.7071 0.7071 45.0521 -27.0637)" width="3022.7" height="1.1"/>
	</g>
	<g>
		<rect x="-1525.8" y="-72.8" transform="matrix(0.7071 -0.7071 0.7071 0.7071 46.8366 -31.3628)" width="3022.7" height="1.1"/>
	</g>
	<g>
		<rect x="-1530.1" y="-77.2" transform="matrix(0.7071 -0.7071 0.7071 0.7071 48.7 -35.7287)" width="3022.7" height="1.1"/>
	</g>
	<g>
		<rect x="-1534.4" y="-81.5" transform="matrix(0.7071 -0.7071 0.7071 0.7071 50.4764 -40.0348)" width="3022.7" height="1.1"/>
	</g>
	<g>
		<rect x="-1538.7" y="-85.8" transform="matrix(0.7071 -0.7071 0.7071 0.7071 52.261 -44.3336)" width="3022.7" height="1.1"/>
	</g>
	<g>
		<rect x="-1543" y="-90" transform="matrix(0.7071 -0.7071 0.7071 0.7071 53.9621 -48.5638)" width="3022.7" height="1.1"/>
	</g>
	<g>
		<rect x="-1547.3" y="-94.3" transform="matrix(0.7071 -0.7071 0.7071 0.7071 55.734 -52.8679)" width="3022.7" height="1.1"/>
	</g>
</g>
<g>
	<g>
		<rect x="-1276.3" y="176.6" transform="matrix(0.7071 -0.7071 0.7071 0.7071 -56.4218 218.0745)" width="3022.7" height="1.1"/>
	</g>
	<g>
		<rect x="-1280.6" y="172.3" transform="matrix(0.7071 -0.7071 0.7071 0.7071 -54.6372 213.7756)" width="3022.7" height="1.1"/>
	</g>
	<g>
		<rect x="-1284.9" y="168" transform="matrix(0.7071 -0.7071 0.7071 0.7071 -52.8527 209.4767)" width="3022.7" height="1.1"/>
	</g>
	<g>
		<rect x="-1289.2" y="163.7" transform="matrix(0.7071 -0.7071 0.7071 0.7071 -51.077 205.1815)" width="3022.7" height="1.1"/>
	</g>
	<g>
		<rect x="-1293.5" y="159.4" transform="matrix(0.7071 -0.7071 0.7071 0.7071 -49.3007 200.8753)" width="3022.7" height="1.1"/>
	</g>
	<g>
		<rect x="-1297.8" y="155.1" transform="matrix(0.7071 -0.7071 0.7071 0.7071 -47.5161 196.5764)" width="3022.7" height="1.1"/>
	</g>
	<g>
		<rect x="-1302.1" y="150.8" transform="matrix(0.7071 -0.7071 0.7071 0.7071 -45.7272 192.2757)" width="3022.7" height="1.1"/>
	</g>
	<g>
		<rect x="-1306.4" y="146.5" transform="matrix(0.7071 -0.7071 0.7071 0.7071 -43.9553 187.9715)" width="3022.7" height="1.1"/>
	</g>
	<g>
		<rect x="-1310.7" y="142.2" transform="matrix(0.7071 -0.7071 0.7071 0.7071 -42.1706 183.6725)" width="3022.7" height="1.1"/>
	</g>
	<g>
		<rect x="-1315" y="137.9" transform="matrix(0.7071 -0.7071 0.7071 0.7071 -40.3861 179.3736)" width="3022.7" height="1.1"/>
	</g>
	<g>
		<rect x="-1319.3" y="133.6" transform="matrix(0.7071 -0.7071 0.7071 0.7071 -38.61 175.0784)" width="3022.7" height="1.1"/>
	</g>
	<g>
		<rect x="-1323.6" y="129.3" transform="matrix(0.7071 -0.7071 0.7071 0.7071 -36.8298 170.7705)" width="3022.7" height="1.1"/>
	</g>
	<g>
		<rect x="-1327.9" y="125" transform="matrix(0.7071 -0.7071 0.7071 0.7071 -35.0502 166.4733)" width="3022.7" height="1.1"/>
	</g>
	<g>
		<rect x="-1332.2" y="120.7" transform="matrix(0.7071 -0.7071 0.7071 0.7071 -33.2739 162.1782)" width="3022.7" height="1.1"/>
	</g>
	<g>
		<rect x="-1336.5" y="116.4" transform="matrix(0.7071 -0.7071 0.7071 0.7071 -31.4887 157.8685)" width="3022.7" height="1.1"/>
	</g>
	<g>
		<rect x="-1340.8" y="112.1" transform="matrix(0.7071 -0.7071 0.7071 0.7071 -29.7041 153.5696)" width="3022.7" height="1.1"/>
	</g>
	<g>
		<rect x="-1345.1" y="107.8" transform="matrix(0.7071 -0.7071 0.7071 0.7071 -27.9197 149.2706)" width="3022.7" height="1.1"/>
	</g>
	<g>
		<rect x="-1349.4" y="103.5" transform="matrix(0.7071 -0.7071 0.7071 0.7071 -26.144 144.9754)" width="3022.7" height="1.1"/>
	</g>
	<g>
		<rect x="-1353.7" y="99.2" transform="matrix(0.7071 -0.7071 0.7071 0.7071 -24.3631 140.6675)" width="3022.7" height="1.1"/>
	</g>
	<g>
		<rect x="-1358" y="94.9" transform="matrix(0.7071 -0.7071 0.7071 0.7071 -22.5786 136.3686)" width="3022.7" height="1.1"/>
	</g>
	<g>
		<rect x="-1362.3" y="90.6" transform="matrix(0.7071 -0.7071 0.7071 0.7071 -20.8074 132.0753)" width="3022.7" height="1.1"/>
	</g>
	<g>
		<rect x="-1366.6" y="86.3" transform="matrix(0.7071 -0.7071 0.7071 0.7071 -19.0261 127.7677)" width="3022.7" height="1.1"/>
	</g>
	<g>
		<rect x="-1370.9" y="82" transform="matrix(0.7071 -0.7071 0.7071 0.7071 -17.2376 123.4665)" width="3022.7" height="1.1"/>
	</g>
	<g>
		<rect x="-1375.2" y="77.7" transform="matrix(0.7071 -0.7071 0.7071 0.7071 -15.453 119.1676)" width="3022.7" height="1.1"/>
	</g>
	<g>
		<rect x="-1379.5" y="73.4" transform="matrix(0.7071 -0.7071 0.7071 0.7071 -13.6775 114.8723)" width="3022.7" height="1.1"/>
	</g>
	<g>
		<rect x="-1383.8" y="69.2" transform="matrix(0.7071 -0.7071 0.7071 0.7071 -11.9844 110.6353)" width="3022.7" height="1.1"/>
	</g>
	<g>
		<rect x="-1388.1" y="64.9" transform="matrix(0.7071 -0.7071 0.7071 0.7071 -10.1999 106.3363)" width="3022.7" height="1.1"/>
	</g>
	<g>
		<rect x="-1392.4" y="60.5" transform="matrix(0.7071 -0.7071 0.7071 0.7071 -8.3365 101.9704)" width="3022.7" height="1.1"/>
	</g>
	<g>
		<rect x="-1396.7" y="56.2" transform="matrix(0.7071 -0.7071 0.7071 0.7071 -6.56 97.6643)" width="3022.7" height="1.1"/>
	</g>
	<g>
		<rect x="-1401" y="51.9" transform="matrix(0.7071 -0.7071 0.7071 0.7071 -4.7756 93.3654)" width="3022.7" height="1.1"/>
	</g>
	<g>
		<rect x="-1405.3" y="47.7" transform="matrix(0.7071 -0.7071 0.7071 0.7071 -3.0744 89.1353)" width="3022.7" height="1.1"/>
	</g>
	<g>
		<rect x="-1409.6" y="43.4" transform="matrix(0.7071 -0.7071 0.7071 0.7071 -1.3024 84.8311)" width="3022.7" height="1.1"/>
	</g>
</g>
<g>
	<g>
		<rect x="-1138.6" y="314.3" transform="matrix(0.7071 -0.7071 0.7071 0.7071 -113.4583 355.7735)" width="3022.7" height="1.1"/>
	</g>
	<g>
		<rect x="-1142.9" y="310" transform="matrix(0.7071 -0.7071 0.7071 0.7071 -111.6737 351.4746)" width="3022.7" height="1.1"/>
	</g>
	<g>
		<rect x="-1147.2" y="305.7" transform="matrix(0.7071 -0.7071 0.7071 0.7071 -109.8892 347.1757)" width="3022.7" height="1.1"/>
	</g>
	<g>
		<rect x="-1151.5" y="301.4" transform="matrix(0.7071 -0.7071 0.7071 0.7071 -108.1136 342.8805)" width="3022.7" height="1.1"/>
	</g>
	<g>
		<rect x="-1155.8" y="297.1" transform="matrix(0.7071 -0.7071 0.7071 0.7071 -106.3372 338.5744)" width="3022.7" height="1.1"/>
	</g>
	<g>
		<rect x="-1160.1" y="292.8" transform="matrix(0.7071 -0.7071 0.7071 0.7071 -104.5526 334.2755)" width="3022.7" height="1.1"/>
	</g>
	<g>
		<rect x="-1164.4" y="288.5" transform="matrix(0.7071 -0.7071 0.7071 0.7071 -102.7637 329.9747)" width="3022.7" height="1.1"/>
	</g>
	<g>
		<rect x="-1168.7" y="284.2" transform="matrix(0.7071 -0.7071 0.7071 0.7071 -100.9917 325.6705)" width="3022.7" height="1.1"/>
	</g>
	<g>
		<rect x="-1173" y="279.9" transform="matrix(0.7071 -0.7071 0.7071 0.7071 -99.2072 321.3716)" width="3022.7" height="1.1"/>
	</g>
	<g>
		<rect x="-1177.3" y="275.6" transform="matrix(0.7071 -0.7071 0.7071 0.7071 -97.4226 317.0727)" width="3022.7" height="1.1"/>
	</g>
	<g>
		<rect x="-1181.6" y="271.3" transform="matrix(0.7071 -0.7071 0.7071 0.7071 -95.6463 312.7775)" width="3022.7" height="1.1"/>
	</g>
	<g>
		<rect x="-1185.9" y="267" transform="matrix(0.7071 -0.7071 0.7071 0.7071 -93.8663 308.4696)" width="3022.7" height="1.1"/>
	</g>
	<g>
		<rect x="-1190.2" y="262.7" transform="matrix(0.7071 -0.7071 0.7071 0.7071 -92.0866 304.1724)" width="3022.7" height="1.1"/>
	</g>
	<g>
		<rect x="-1194.5" y="258.4" transform="matrix(0.7071 -0.7071 0.7071 0.7071 -90.3105 299.8772)" width="3022.7" height="1.1"/>
	</g>
	<g>
		<rect x="-1198.8" y="254.1" transform="matrix(0.7071 -0.7071 0.7071 0.7071 -88.5252 295.5675)" width="3022.7" height="1.1"/>
	</g>
	<g>
		<rect x="-1203.1" y="249.8" transform="matrix(0.7071 -0.7071 0.7071 0.7071 -86.7405 291.2686)" width="3022.7" height="1.1"/>
	</g>
	<g>
		<rect x="-1207.4" y="245.5" transform="matrix(0.7071 -0.7071 0.7071 0.7071 -84.9562 286.9696)" width="3022.7" height="1.1"/>
	</g>
	<g>
		<rect x="-1211.7" y="241.2" transform="matrix(0.7071 -0.7071 0.7071 0.7071 -83.1805 282.6744)" width="3022.7" height="1.1"/>
	</g>
	<g>
		<rect x="-1216" y="236.9" transform="matrix(0.7071 -0.7071 0.7071 0.7071 -81.3997 278.3665)" width="3022.7" height="1.1"/>
	</g>
	<g>
		<rect x="-1220.3" y="232.6" transform="matrix(0.7071 -0.7071 0.7071 0.7071 -79.6151 274.0676)" width="3022.7" height="1.1"/>
	</g>
	<g>
		<rect x="-1224.6" y="228.3" transform="matrix(0.7071 -0.7071 0.7071 0.7071 -77.8439 269.7743)" width="3022.7" height="1.1"/>
	</g>
	<g>
		<rect x="-1228.9" y="224" transform="matrix(0.7071 -0.7071 0.7071 0.7071 -76.0627 265.4667)" width="3022.7" height="1.1"/>
	</g>
	<g>
		<rect x="-1233.2" y="219.7" transform="matrix(0.7071 -0.7071 0.7071 0.7071 -74.2741 261.1655)" width="3022.7" height="1.1"/>
	</g>
	<g>
		<rect x="-1237.5" y="215.4" transform="matrix(0.7071 -0.7071 0.7071 0.7071 -72.4896 256.8666)" width="3022.7" height="1.1"/>
	</g>
	<g>
		<rect x="-1241.8" y="211.1" transform="matrix(0.7071 -0.7071 0.7071 0.7071 -70.714 252.5714)" width="3022.7" height="1.1"/>
	</g>
	<g>
		<rect x="-1246.1" y="206.8" transform="matrix(0.7071 -0.7071 0.7071 0.7071 -68.933 248.2636)" width="3022.7" height="1.1"/>
	</g>
	<g>
		<rect x="-1250.4" y="202.5" transform="matrix(0.7071 -0.7071 0.7071 0.7071 -67.1486 243.9646)" width="3022.7" height="1.1"/>
	</g>
	<g>
		<rect x="-1254.7" y="198.2" transform="matrix(0.7071 -0.7071 0.7071 0.7071 -65.373 239.6694)" width="3022.7" height="1.1"/>
	</g>
	<g>
		<rect x="-1259" y="193.9" transform="matrix(0.7071 -0.7071 0.7071 0.7071 -63.5966 235.3633)" width="3022.7" height="1.1"/>
	</g>
	<g>
		<rect x="-1263.3" y="189.6" transform="matrix(0.7071 -0.7071 0.7071 0.7071 -61.8121 231.0644)" width="3022.7" height="1.1"/>
	</g>
	<g>
		<rect x="-1267.6" y="185.4" transform="matrix(0.7071 -0.7071 0.7071 0.7071 -60.1109 226.8343)" width="3022.7" height="1.1"/>
	</g>
	<g>
		<rect x="-1271.9" y="181.1" transform="matrix(0.7071 -0.7071 0.7071 0.7071 -58.339 222.5301)" width="3022.7" height="1.1"/>
	</g>
</g>
<g>
	<g>
		<rect x="-1000.9" y="452" transform="matrix(0.7071 -0.7071 0.7071 0.7071 -170.4948 493.4725)" width="3022.7" height="1.1"/>
	</g>
	<g>
		<rect x="-1005.2" y="447.7" transform="matrix(0.7071 -0.7071 0.7071 0.7071 -168.7102 489.1736)" width="3022.7" height="1.1"/>
	</g>
	<g>
		<rect x="-1009.5" y="443.4" transform="matrix(0.7071 -0.7071 0.7071 0.7071 -166.9256 484.8747)" width="3022.7" height="1.1"/>
	</g>
	<g>
		<rect x="-1013.8" y="439.1" transform="matrix(0.7071 -0.7071 0.7071 0.7071 -165.1501 480.5795)" width="3022.7" height="1.1"/>
	</g>
	<g>
		<rect x="-1018.1" y="434.8" transform="matrix(0.7071 -0.7071 0.7071 0.7071 -163.3737 476.2735)" width="3022.7" height="1.1"/>
	</g>
	<g>
		<rect x="-1022.4" y="430.5" transform="matrix(0.7071 -0.7071 0.7071 0.7071 -161.5892 471.9745)" width="3022.7" height="1.1"/>
	</g>
	<g>
		<rect x="-1026.7" y="426.2" transform="matrix(0.7071 -0.7071 0.7071 0.7071 -159.8001 467.6738)" width="3022.7" height="1.1"/>
	</g>
	<g>
		<rect x="-1031" y="421.9" transform="matrix(0.7071 -0.7071 0.7071 0.7071 -158.0283 463.3695)" width="3022.7" height="1.1"/>
	</g>
	<g>
		<rect x="-1035.3" y="417.6" transform="matrix(0.7071 -0.7071 0.7071 0.7071 -156.2437 459.0706)" width="3022.7" height="1.1"/>
	</g>
	<g>
		<rect x="-1039.6" y="413.3" transform="matrix(0.7071 -0.7071 0.7071 0.7071 -154.4591 454.7717)" width="3022.7" height="1.1"/>
	</g>
	<g>
		<rect x="-1043.9" y="409" transform="matrix(0.7071 -0.7071 0.7071 0.7071 -152.6829 450.4766)" width="3022.7" height="1.1"/>
	</g>
	<g>
		<rect x="-1048.2" y="404.7" transform="matrix(0.7071 -0.7071 0.7071 0.7071 -150.9027 446.1686)" width="3022.7" height="1.1"/>
	</g>
	<g>
		<rect x="-1052.5" y="400.4" transform="matrix(0.7071 -0.7071 0.7071 0.7071 -149.1232 441.8714)" width="3022.7" height="1.1"/>
	</g>
	<g>
		<rect x="-1056.8" y="396.1" transform="matrix(0.7071 -0.7071 0.7071 0.7071 -147.3471 437.5763)" width="3022.7" height="1.1"/>
	</g>
	<g>
		<rect x="-1061.1" y="391.8" transform="matrix(0.7071 -0.7071 0.7071 0.7071 -145.5617 433.2665)" width="3022.7" height="1.1"/>
	</g>
	<g>
		<rect x="-1065.4" y="387.5" transform="matrix(0.7071 -0.7071 0.7071 0.7071 -143.7771 428.9676)" width="3022.7" height="1.1"/>
	</g>
	<g>
		<rect x="-1069.7" y="383.2" transform="matrix(0.7071 -0.7071 0.7071 0.7071 -141.9926 424.6686)" width="3022.7" height="1.1"/>
	</g>
	<g>
		<rect x="-1074" y="378.9" transform="matrix(0.7071 -0.7071 0.7071 0.7071 -140.217 420.3734)" width="3022.7" height="1.1"/>
	</g>
	<g>
		<rect x="-1078.3" y="374.6" transform="matrix(0.7071 -0.7071 0.7071 0.7071 -138.4362 416.0656)" width="3022.7" height="1.1"/>
	</g>
	<g>
		<rect x="-1082.6" y="370.3" transform="matrix(0.7071 -0.7071 0.7071 0.7071 -136.6516 411.7666)" width="3022.7" height="1.1"/>
	</g>
	<g>
		<rect x="-1086.9" y="366" transform="matrix(0.7071 -0.7071 0.7071 0.7071 -134.8804 407.4734)" width="3022.7" height="1.1"/>
	</g>
	<g>
		<rect x="-1091.2" y="361.7" transform="matrix(0.7071 -0.7071 0.7071 0.7071 -133.0992 403.1658)" width="3022.7" height="1.1"/>
	</g>
	<g>
		<rect x="-1095.5" y="357.4" transform="matrix(0.7071 -0.7071 0.7071 0.7071 -131.3106 398.8646)" width="3022.7" height="1.1"/>
	</g>
	<g>
		<rect x="-1099.8" y="353.1" transform="matrix(0.7071 -0.7071 0.7071 0.7071 -129.5261 394.5656)" width="3022.7" height="1.1"/>
	</g>
	<g>
		<rect x="-1104.1" y="348.8" transform="matrix(0.7071 -0.7071 0.7071 0.7071 -127.7504 390.2704)" width="3022.7" height="1.1"/>
	</g>
	<g>
		<rect x="-1108.4" y="344.5" transform="matrix(0.7071 -0.7071 0.7071 0.7071 -125.9696 385.9626)" width="3022.7" height="1.1"/>
	</g>
	<g>
		<rect x="-1112.7" y="340.2" transform="matrix(0.7071 -0.7071 0.7071 0.7071 -124.1851 381.6637)" width="3022.7" height="1.1"/>
	</g>
	<g>
		<rect x="-1117" y="335.9" transform="matrix(0.7071 -0.7071 0.7071 0.7071 -122.4095 377.3683)" width="3022.7" height="1.1"/>
	</g>
	<g>
		<rect x="-1121.3" y="331.6" transform="matrix(0.7071 -0.7071 0.7071 0.7071 -120.6332 373.0623)" width="3022.7" height="1.1"/>
	</g>
	<g>
		<rect x="-1125.6" y="327.3" transform="matrix(0.7071 -0.7071 0.7071 0.7071 -118.8486 368.7634)" width="3022.7" height="1.1"/>
	</g>
	<g>
		<rect x="-1129.9" y="323.1" transform="matrix(0.7071 -0.7071 0.7071 0.7071 -117.1474 364.5333)" width="3022.7" height="1.1"/>
	</g>
	<g>
		<rect x="-1134.2" y="318.8" transform="matrix(0.7071 -0.7071 0.7071 0.7071 -115.3755 360.2292)" width="3022.7" height="1.1"/>
	</g>
</g>
<g>
	<g>
		<rect x="-863.2" y="589.7" transform="matrix(0.7071 -0.7071 0.7071 0.7071 -227.5312 631.1716)" width="3022.7" height="1.1"/>
	</g>
	<g>
		<rect x="-867.5" y="585.4" transform="matrix(0.7071 -0.7071 0.7071 0.7071 -225.7467 626.8727)" width="3022.7" height="1.1"/>
	</g>
	<g>
		<rect x="-871.8" y="581.1" transform="matrix(0.7071 -0.7071 0.7071 0.7071 -223.9622 622.5738)" width="3022.7" height="1.1"/>
	</g>
	<g>
		<rect x="-876.1" y="576.8" transform="matrix(0.7071 -0.7071 0.7071 0.7071 -222.1866 618.2786)" width="3022.7" height="1.1"/>
	</g>
	<g>
		<rect x="-880.4" y="572.5" transform="matrix(0.7071 -0.7071 0.7071 0.7071 -220.4103 613.9725)" width="3022.7" height="1.1"/>
	</g>
	<g>
		<rect x="-884.7" y="568.2" transform="matrix(0.7071 -0.7071 0.7071 0.7071 -218.6256 609.6736)" width="3022.7" height="1.1"/>
	</g>
	<g>
		<rect x="-889" y="563.9" transform="matrix(0.7071 -0.7071 0.7071 0.7071 -216.8367 605.3728)" width="3022.7" height="1.1"/>
	</g>
	<g>
		<rect x="-893.3" y="559.6" transform="matrix(0.7071 -0.7071 0.7071 0.7071 -215.0647 601.0685)" width="3022.7" height="1.1"/>
	</g>
	<g>
		<rect x="-897.6" y="555.3" transform="matrix(0.7071 -0.7071 0.7071 0.7071 -213.2801 596.7697)" width="3022.7" height="1.1"/>
	</g>
	<g>
		<rect x="-901.9" y="551" transform="matrix(0.7071 -0.7071 0.7071 0.7071 -211.4956 592.4707)" width="3022.7" height="1.1"/>
	</g>
	<g>
		<rect x="-906.2" y="546.7" transform="matrix(0.7071 -0.7071 0.7071 0.7071 -209.7194 588.1756)" width="3022.7" height="1.1"/>
	</g>
	<g>
		<rect x="-910.5" y="542.4" transform="matrix(0.7071 -0.7071 0.7071 0.7071 -207.9393 583.8676)" width="3022.7" height="1.1"/>
	</g>
	<g>
		<rect x="-914.8" y="538.1" transform="matrix(0.7071 -0.7071 0.7071 0.7071 -206.1598 579.5704)" width="3022.7" height="1.1"/>
	</g>
	<g>
		<rect x="-919.1" y="533.8" transform="matrix(0.7071 -0.7071 0.7071 0.7071 -204.3835 575.2753)" width="3022.7" height="1.1"/>
	</g>
	<g>
		<rect x="-923.4" y="529.5" transform="matrix(0.7071 -0.7071 0.7071 0.7071 -202.5983 570.9656)" width="3022.7" height="1.1"/>
	</g>
	<g>
		<rect x="-927.7" y="525.2" transform="matrix(0.7071 -0.7071 0.7071 0.7071 -200.8135 566.6667)" width="3022.7" height="1.1"/>
	</g>
	<g>
		<rect x="-932" y="520.9" transform="matrix(0.7071 -0.7071 0.7071 0.7071 -199.0292 562.3677)" width="3022.7" height="1.1"/>
	</g>
	<g>
		<rect x="-936.3" y="516.6" transform="matrix(0.7071 -0.7071 0.7071 0.7071 -197.2535 558.0724)" width="3022.7" height="1.1"/>
	</g>
	<g>
		<rect x="-940.6" y="512.3" transform="matrix(0.7071 -0.7071 0.7071 0.7071 -195.4726 553.7646)" width="3022.7" height="1.1"/>
	</g>
	<g>
		<rect x="-944.9" y="508" transform="matrix(0.7071 -0.7071 0.7071 0.7071 -193.6881 549.4656)" width="3022.7" height="1.1"/>
	</g>
	<g>
		<rect x="-949.2" y="503.7" transform="matrix(0.7071 -0.7071 0.7071 0.7071 -191.917 545.1724)" width="3022.7" height="1.1"/>
	</g>
	<g>
		<rect x="-953.5" y="499.4" transform="matrix(0.7071 -0.7071 0.7071 0.7071 -190.1357 540.8648)" width="3022.7" height="1.1"/>
	</g>
	<g>
		<rect x="-957.8" y="495.1" transform="matrix(0.7071 -0.7071 0.7071 0.7071 -188.3472 536.5636)" width="3022.7" height="1.1"/>
	</g>
	<g>
		<rect x="-962.1" y="490.8" transform="matrix(0.7071 -0.7071 0.7071 0.7071 -186.5625 532.2646)" width="3022.7" height="1.1"/>
	</g>
	<g>
		<rect x="-966.4" y="486.5" transform="matrix(0.7071 -0.7071 0.7071 0.7071 -184.787 527.9694)" width="3022.7" height="1.1"/>
	</g>
	<g>
		<rect x="-970.7" y="482.2" transform="matrix(0.7071 -0.7071 0.7071 0.7071 -183.006 523.6616)" width="3022.7" height="1.1"/>
	</g>
	<g>
		<rect x="-975" y="477.9" transform="matrix(0.7071 -0.7071 0.7071 0.7071 -181.2216 519.3627)" width="3022.7" height="1.1"/>
	</g>
	<g>
		<rect x="-979.3" y="473.6" transform="matrix(0.7071 -0.7071 0.7071 0.7071 -179.4461 515.0674)" width="3022.7" height="1.1"/>
	</g>
	<g>
		<rect x="-983.6" y="469.3" transform="matrix(0.7071 -0.7071 0.7071 0.7071 -177.6696 510.7614)" width="3022.7" height="1.1"/>
	</g>
	<g>
		<rect x="-987.9" y="465" transform="matrix(0.7071 -0.7071 0.7071 0.7071 -175.8851 506.4624)" width="3022.7" height="1.1"/>
	</g>
	<g>
		<rect x="-992.2" y="460.7" transform="matrix(0.7071 -0.7071 0.7071 0.7071 -174.096 502.1617)" width="3022.7" height="1.1"/>
	</g>
	<g>
		<rect x="-996.5" y="456.5" transform="matrix(0.7071 -0.7071 0.7071 0.7071 -172.412 497.9282)" width="3022.7" height="1.1"/>
	</g>
</g>
<g>
	<g>
		<rect x="-725.5" y="727.4" transform="matrix(0.7071 -0.7071 0.7071 0.7071 -284.5678 768.8706)" width="3022.7" height="1.1"/>
	</g>
	<g>
		<rect x="-729.8" y="723.1" transform="matrix(0.7071 -0.7071 0.7071 0.7071 -282.7832 764.5717)" width="3022.7" height="1.1"/>
	</g>
	<g>
		<rect x="-734.1" y="718.8" transform="matrix(0.7071 -0.7071 0.7071 0.7071 -280.9986 760.2729)" width="3022.7" height="1.1"/>
	</g>
	<g>
		<rect x="-738.4" y="714.5" transform="matrix(0.7071 -0.7071 0.7071 0.7071 -279.2231 755.9775)" width="3022.7" height="1.1"/>
	</g>
	<g>
		<rect x="-742.7" y="710.2" transform="matrix(0.7071 -0.7071 0.7071 0.7071 -277.4466 751.6716)" width="3022.7" height="1.1"/>
	</g>
	<g>
		<rect x="-747" y="705.9" transform="matrix(0.7071 -0.7071 0.7071 0.7071 -275.6621 747.3726)" width="3022.7" height="1.1"/>
	</g>
	<g>
		<rect x="-751.3" y="701.6" transform="matrix(0.7071 -0.7071 0.7071 0.7071 -273.8732 743.0718)" width="3022.7" height="1.1"/>
	</g>
	<g>
		<rect x="-755.6" y="697.3" transform="matrix(0.7071 -0.7071 0.7071 0.7071 -272.1013 738.7676)" width="3022.7" height="1.1"/>
	</g>
	<g>
		<rect x="-759.9" y="693" transform="matrix(0.7071 -0.7071 0.7071 0.7071 -270.3168 734.4686)" width="3022.7" height="1.1"/>
	</g>
	<g>
		<rect x="-764.2" y="688.7" transform="matrix(0.7071 -0.7071 0.7071 0.7071 -268.5321 730.1698)" width="3022.7" height="1.1"/>
	</g>
	<g>
		<rect x="-768.5" y="684.4" transform="matrix(0.7071 -0.7071 0.7071 0.7071 -266.7559 725.8746)" width="3022.7" height="1.1"/>
	</g>
	<g>
		<rect x="-772.8" y="680.1" transform="matrix(0.7071 -0.7071 0.7071 0.7071 -264.9758 721.5666)" width="3022.7" height="1.1"/>
	</g>
	<g>
		<rect x="-777.1" y="675.8" transform="matrix(0.7071 -0.7071 0.7071 0.7071 -263.1961 717.2695)" width="3022.7" height="1.1"/>
	</g>
	<g>
		<rect x="-781.4" y="671.5" transform="matrix(0.7071 -0.7071 0.7071 0.7071 -261.42 712.9744)" width="3022.7" height="1.1"/>
	</g>
	<g>
		<rect x="-785.7" y="667.2" transform="matrix(0.7071 -0.7071 0.7071 0.7071 -259.6346 708.6646)" width="3022.7" height="1.1"/>
	</g>
	<g>
		<rect x="-790" y="662.9" transform="matrix(0.7071 -0.7071 0.7071 0.7071 -257.8501 704.3657)" width="3022.7" height="1.1"/>
	</g>
	<g>
		<rect x="-794.3" y="658.6" transform="matrix(0.7071 -0.7071 0.7071 0.7071 -256.0657 700.0667)" width="3022.7" height="1.1"/>
	</g>
	<g>
		<rect x="-798.6" y="654.3" transform="matrix(0.7071 -0.7071 0.7071 0.7071 -254.2899 695.7715)" width="3022.7" height="1.1"/>
	</g>
	<g>
		<rect x="-802.9" y="650" transform="matrix(0.7071 -0.7071 0.7071 0.7071 -252.5092 691.4636)" width="3022.7" height="1.1"/>
	</g>
	<g>
		<rect x="-807.2" y="645.7" transform="matrix(0.7071 -0.7071 0.7071 0.7071 -250.7246 687.1647)" width="3022.7" height="1.1"/>
	</g>
	<g>
		<rect x="-811.5" y="641.4" transform="matrix(0.7071 -0.7071 0.7071 0.7071 -248.9534 682.8713)" width="3022.7" height="1.1"/>
	</g>
	<g>
		<rect x="-815.8" y="637.1" transform="matrix(0.7071 -0.7071 0.7071 0.7071 -247.1721 678.5638)" width="3022.7" height="1.1"/>
	</g>
	<g>
		<rect x="-820.1" y="632.8" transform="matrix(0.7071 -0.7071 0.7071 0.7071 -245.3836 674.2626)" width="3022.7" height="1.1"/>
	</g>
	<g>
		<rect x="-824.4" y="628.5" transform="matrix(0.7071 -0.7071 0.7071 0.7071 -243.5992 669.9636)" width="3022.7" height="1.1"/>
	</g>
	<g>
		<rect x="-828.7" y="624.2" transform="matrix(0.7071 -0.7071 0.7071 0.7071 -241.8235 665.6686)" width="3022.7" height="1.1"/>
	</g>
	<g>
		<rect x="-833" y="619.9" transform="matrix(0.7071 -0.7071 0.7071 0.7071 -240.0426 661.3607)" width="3022.7" height="1.1"/>
	</g>
	<g>
		<rect x="-837.3" y="615.6" transform="matrix(0.7071 -0.7071 0.7071 0.7071 -238.2581 657.0616)" width="3022.7" height="1.1"/>
	</g>
	<g>
		<rect x="-841.6" y="611.3" transform="matrix(0.7071 -0.7071 0.7071 0.7071 -236.4824 652.7664)" width="3022.7" height="1.1"/>
	</g>
	<g>
		<rect x="-845.9" y="607" transform="matrix(0.7071 -0.7071 0.7071 0.7071 -234.7061 648.4604)" width="3022.7" height="1.1"/>
	</g>
	<g>
		<rect x="-850.2" y="602.7" transform="matrix(0.7071 -0.7071 0.7071 0.7071 -232.9215 644.1614)" width="3022.7" height="1.1"/>
	</g>
	<g>
		<rect x="-854.5" y="598.4" transform="matrix(0.7071 -0.7071 0.7071 0.7071 -231.1325 639.8606)" width="3022.7" height="1.1"/>
	</g>
	<g>
		<rect x="-858.8" y="594.1" transform="matrix(0.7071 -0.7071 0.7071 0.7071 -229.3607 635.5565)" width="3022.7" height="1.1"/>
	</g>
</g>
<g>
	<g>
		<rect x="-587.8" y="865.1" transform="matrix(0.7071 -0.7071 0.7071 0.7071 -341.6042 906.5696)" width="3022.7" height="1.1"/>
	</g>
	<g>
		<rect x="-592.1" y="860.8" transform="matrix(0.7071 -0.7071 0.7071 0.7071 -339.8197 902.2708)" width="3022.7" height="1.1"/>
	</g>
	<g>
		<rect x="-596.4" y="856.5" transform="matrix(0.7071 -0.7071 0.7071 0.7071 -338.0353 897.9719)" width="3022.7" height="1.1"/>
	</g>
	<g>
		<rect x="-600.7" y="852.2" transform="matrix(0.7071 -0.7071 0.7071 0.7071 -336.2597 893.6766)" width="3022.7" height="1.1"/>
	</g>
	<g>
		<rect x="-605" y="847.9" transform="matrix(0.7071 -0.7071 0.7071 0.7071 -334.4832 889.3705)" width="3022.7" height="1.1"/>
	</g>
	<g>
		<rect x="-609.3" y="843.6" transform="matrix(0.7071 -0.7071 0.7071 0.7071 -332.6987 885.0716)" width="3022.7" height="1.1"/>
	</g>
	<g>
		<rect x="-613.6" y="839.3" transform="matrix(0.7071 -0.7071 0.7071 0.7071 -330.9095 880.7709)" width="3022.7" height="1.1"/>
	</g>
	<g>
		<rect x="-617.9" y="835" transform="matrix(0.7071 -0.7071 0.7071 0.7071 -329.1378 876.4666)" width="3022.7" height="1.1"/>
	</g>
	<g>
		<rect x="-622.2" y="830.7" transform="matrix(0.7071 -0.7071 0.7071 0.7071 -327.3531 872.1677)" width="3022.7" height="1.1"/>
	</g>
	<g>
		<rect x="-626.5" y="826.4" transform="matrix(0.7071 -0.7071 0.7071 0.7071 -325.5686 867.8688)" width="3022.7" height="1.1"/>
	</g>
	<g>
		<rect x="-630.8" y="822.1" transform="matrix(0.7071 -0.7071 0.7071 0.7071 -323.7924 863.5735)" width="3022.7" height="1.1"/>
	</g>
	<g>
		<rect x="-635.1" y="817.8" transform="matrix(0.7071 -0.7071 0.7071 0.7071 -322.0123 859.2657)" width="3022.7" height="1.1"/>
	</g>
	<g>
		<rect x="-639.4" y="813.5" transform="matrix(0.7071 -0.7071 0.7071 0.7071 -320.2328 854.9684)" width="3022.7" height="1.1"/>
	</g>
	<g>
		<rect x="-643.7" y="809.2" transform="matrix(0.7071 -0.7071 0.7071 0.7071 -318.4565 850.6734)" width="3022.7" height="1.1"/>
	</g>
	<g>
		<rect x="-648" y="804.9" transform="matrix(0.7071 -0.7071 0.7071 0.7071 -316.6712 846.3636)" width="3022.7" height="1.1"/>
	</g>
	<g>
		<rect x="-652.3" y="800.6" transform="matrix(0.7071 -0.7071 0.7071 0.7071 -314.8866 842.0648)" width="3022.7" height="1.1"/>
	</g>
	<g>
		<rect x="-656.6" y="796.3" transform="matrix(0.7071 -0.7071 0.7071 0.7071 -313.1022 837.7657)" width="3022.7" height="1.1"/>
	</g>
	<g>
		<rect x="-660.9" y="792" transform="matrix(0.7071 -0.7071 0.7071 0.7071 -311.3266 833.4705)" width="3022.7" height="1.1"/>
	</g>
	<g>
		<rect x="-665.2" y="787.7" transform="matrix(0.7071 -0.7071 0.7071 0.7071 -309.5457 829.1627)" width="3022.7" height="1.1"/>
	</g>
	<g>
		<rect x="-669.5" y="783.4" transform="matrix(0.7071 -0.7071 0.7071 0.7071 -307.7611 824.8637)" width="3022.7" height="1.1"/>
	</g>
	<g>
		<rect x="-673.8" y="779.1" transform="matrix(0.7071 -0.7071 0.7071 0.7071 -305.9899 820.5704)" width="3022.7" height="1.1"/>
	</g>
	<g>
		<rect x="-678.1" y="774.8" transform="matrix(0.7071 -0.7071 0.7071 0.7071 -304.2087 816.2629)" width="3022.7" height="1.1"/>
	</g>
	<g>
		<rect x="-682.4" y="770.5" transform="matrix(0.7071 -0.7071 0.7071 0.7071 -302.4202 811.9617)" width="3022.7" height="1.1"/>
	</g>
	<g>
		<rect x="-686.7" y="766.2" transform="matrix(0.7071 -0.7071 0.7071 0.7071 -300.6356 807.6627)" width="3022.7" height="1.1"/>
	</g>
	<g>
		<rect x="-691" y="761.9" transform="matrix(0.7071 -0.7071 0.7071 0.7071 -298.8599 803.3676)" width="3022.7" height="1.1"/>
	</g>
	<g>
		<rect x="-695.3" y="757.6" transform="matrix(0.7071 -0.7071 0.7071 0.7071 -297.0791 799.0597)" width="3022.7" height="1.1"/>
	</g>
	<g>
		<rect x="-699.6" y="753.3" transform="matrix(0.7071 -0.7071 0.7071 0.7071 -295.2946 794.7607)" width="3022.7" height="1.1"/>
	</g>
	<g>
		<rect x="-703.9" y="749" transform="matrix(0.7071 -0.7071 0.7071 0.7071 -293.519 790.4655)" width="3022.7" height="1.1"/>
	</g>
	<g>
		<rect x="-708.2" y="744.7" transform="matrix(0.7071 -0.7071 0.7071 0.7071 -291.7427 786.1595)" width="3022.7" height="1.1"/>
	</g>
	<g>
		<rect x="-712.5" y="740.4" transform="matrix(0.7071 -0.7071 0.7071 0.7071 -289.9581 781.8605)" width="3022.7" height="1.1"/>
	</g>
	<g>
		<rect x="-716.8" y="736.1" transform="matrix(0.7071 -0.7071 0.7071 0.7071 -288.1691 777.5596)" width="3022.7" height="1.1"/>
	</g>
	<g>
		<rect x="-721.1" y="731.8" transform="matrix(0.7071 -0.7071 0.7071 0.7071 -286.3971 773.2556)" width="3022.7" height="1.1"/>
	</g>
</g>
<g>
	<g>
		<rect x="-450.1" y="1002.9" transform="matrix(0.7071 -0.7071 0.7071 0.7071 -398.7347 1044.3369)" width="3022.7" height="1.1"/>
	</g>
	<g>
		<rect x="-454.4" y="998.6" transform="matrix(0.7071 -0.7071 0.7071 0.7071 -396.9501 1040.038)" width="3022.7" height="1.1"/>
	</g>
	<g>
		<rect x="-458.7" y="994.3" transform="matrix(0.7071 -0.7071 0.7071 0.7071 -395.1656 1035.739)" width="3022.7" height="1.1"/>
	</g>
	<g>
		<rect x="-463" y="990" transform="matrix(0.7071 -0.7071 0.7071 0.7071 -393.3899 1031.4438)" width="3022.7" height="1.1"/>
	</g>
	<g>
		<rect x="-467.3" y="985.7" transform="matrix(0.7071 -0.7071 0.7071 0.7071 -391.6135 1027.1377)" width="3022.7" height="1.1"/>
	</g>
	<g>
		<rect x="-471.6" y="981.4" transform="matrix(0.7071 -0.7071 0.7071 0.7071 -389.829 1022.8388)" width="3022.7" height="1.1"/>
	</g>
	<g>
		<rect x="-475.9" y="977.1" transform="matrix(0.7071 -0.7071 0.7071 0.7071 -388.04 1018.5381)" width="3022.7" height="1.1"/>
	</g>
	<g>
		<rect x="-480.2" y="972.8" transform="matrix(0.7071 -0.7071 0.7071 0.7071 -386.2681 1014.2338)" width="3022.7" height="1.1"/>
	</g>
	<g>
		<rect x="-484.5" y="968.5" transform="matrix(0.7071 -0.7071 0.7071 0.7071 -384.4836 1009.935)" width="3022.7" height="1.1"/>
	</g>
	<g>
		<rect x="-488.8" y="964.2" transform="matrix(0.7071 -0.7071 0.7071 0.7071 -382.699 1005.636)" width="3022.7" height="1.1"/>
	</g>
	<g>
		<rect x="-493.1" y="959.9" transform="matrix(0.7071 -0.7071 0.7071 0.7071 -380.9228 1001.3409)" width="3022.7" height="1.1"/>
	</g>
	<g>
		<rect x="-497.4" y="955.6" transform="matrix(0.7071 -0.7071 0.7071 0.7071 -379.1426 997.0329)" width="3022.7" height="1.1"/>
	</g>
	<g>
		<rect x="-501.7" y="951.3" transform="matrix(0.7071 -0.7071 0.7071 0.7071 -377.363 992.7357)" width="3022.7" height="1.1"/>
	</g>
	<g>
		<rect x="-505.9" y="947" transform="matrix(0.7071 -0.7071 0.7071 0.7071 -375.5161 988.4699)" width="3022.7" height="1.1"/>
	</g>
	<g>
		<rect x="-510.3" y="942.7" transform="matrix(0.7071 -0.7071 0.7071 0.7071 -373.8015 984.1309)" width="3022.7" height="1.1"/>
	</g>
	<g>
		<rect x="-514.6" y="938.4" transform="matrix(0.7071 -0.7071 0.7071 0.7071 -372.0169 979.832)" width="3022.7" height="1.1"/>
	</g>
	<g>
		<rect x="-518.9" y="934.1" transform="matrix(0.7071 -0.7071 0.7071 0.7071 -370.2326 975.533)" width="3022.7" height="1.1"/>
	</g>
	<g>
		<rect x="-523.2" y="929.8" transform="matrix(0.7071 -0.7071 0.7071 0.7071 -368.4569 971.2378)" width="3022.7" height="1.1"/>
	</g>
	<g>
		<rect x="-527.5" y="925.5" transform="matrix(0.7071 -0.7071 0.7071 0.7071 -366.6761 966.9299)" width="3022.7" height="1.1"/>
	</g>
	<g>
		<rect x="-531.8" y="921.2" transform="matrix(0.7071 -0.7071 0.7071 0.7071 -364.8916 962.631)" width="3022.7" height="1.1"/>
	</g>
	<g>
		<rect x="-536" y="916.9" transform="matrix(0.7071 -0.7071 0.7071 0.7071 -363.0495 958.3669)" width="3022.7" height="1.1"/>
	</g>
	<g>
		<rect x="-540.4" y="912.6" transform="matrix(0.7071 -0.7071 0.7071 0.7071 -361.3391 954.0301)" width="3022.7" height="1.1"/>
	</g>
	<g>
		<rect x="-544.7" y="908.3" transform="matrix(0.7071 -0.7071 0.7071 0.7071 -359.5504 949.7289)" width="3022.7" height="1.1"/>
	</g>
	<g>
		<rect x="-548.9" y="904.1" transform="matrix(0.7071 -0.7071 0.7071 0.7071 -357.7832 945.5299)" width="3022.7" height="1.1"/>
	</g>
	<g>
		<rect x="-553.3" y="899.7" transform="matrix(0.7071 -0.7071 0.7071 0.7071 -355.9904 941.1348)" width="3022.7" height="1.1"/>
	</g>
	<g>
		<rect x="-557.5" y="895.5" transform="matrix(0.7071 -0.7071 0.7071 0.7071 -354.2266 936.927)" width="3022.7" height="1.1"/>
	</g>
	<g>
		<rect x="-561.8" y="891.2" transform="matrix(0.7071 -0.7071 0.7071 0.7071 -352.4421 932.6279)" width="3022.7" height="1.1"/>
	</g>
	<g>
		<rect x="-566.2" y="886.8" transform="matrix(0.7071 -0.7071 0.7071 0.7071 -350.6494 928.2327)" width="3022.7" height="1.1"/>
	</g>
	<g>
		<rect x="-570.5" y="882.5" transform="matrix(0.7071 -0.7071 0.7071 0.7071 -348.873 923.9266)" width="3022.7" height="1.1"/>
	</g>
	<g>
		<rect x="-574.8" y="878.2" transform="matrix(0.7071 -0.7071 0.7071 0.7071 -347.0884 919.6277)" width="3022.7" height="1.1"/>
	</g>
	<g>
		<rect x="-579" y="874" transform="matrix(0.7071 -0.7071 0.7071 0.7071 -345.3165 915.4269)" width="3022.7" height="1.1"/>
	</g>
	<g>
		<rect x="-583.3" y="869.7" transform="matrix(0.7071 -0.7071 0.7071 0.7071 -343.5446 911.1227)" width="3022.7" height="1.1"/>
	</g>
</g>
<g>
	<g>
		<rect x="-312.4" y="1140.6" transform="matrix(0.7071 -0.7071 0.7071 0.7071 -455.7711 1182.0359)" width="3022.7" height="1.1"/>
	</g>
	<g>
		<rect x="-316.7" y="1136.3" transform="matrix(0.7071 -0.7071 0.7071 0.7071 -453.9866 1177.7369)" width="3022.7" height="1.1"/>
	</g>
	<g>
		<rect x="-321" y="1132" transform="matrix(0.7071 -0.7071 0.7071 0.7071 -452.202 1173.4381)" width="3022.7" height="1.1"/>
	</g>
	<g>
		<rect x="-325.3" y="1127.7" transform="matrix(0.7071 -0.7071 0.7071 0.7071 -450.4265 1169.1428)" width="3022.7" height="1.1"/>
	</g>
	<g>
		<rect x="-329.6" y="1123.4" transform="matrix(0.7071 -0.7071 0.7071 0.7071 -448.6501 1164.8368)" width="3022.7" height="1.1"/>
	</g>
	<g>
		<rect x="-333.9" y="1119.1" transform="matrix(0.7071 -0.7071 0.7071 0.7071 -446.8655 1160.5378)" width="3022.7" height="1.1"/>
	</g>
	<g>
		<rect x="-338.2" y="1114.8" transform="matrix(0.7071 -0.7071 0.7071 0.7071 -445.0766 1156.2372)" width="3022.7" height="1.1"/>
	</g>
	<g>
		<rect x="-342.5" y="1110.5" transform="matrix(0.7071 -0.7071 0.7071 0.7071 -443.3047 1151.9329)" width="3022.7" height="1.1"/>
	</g>
	<g>
		<rect x="-346.8" y="1106.2" transform="matrix(0.7071 -0.7071 0.7071 0.7071 -441.52 1147.6339)" width="3022.7" height="1.1"/>
	</g>
	<g>
		<rect x="-351.1" y="1101.9" transform="matrix(0.7071 -0.7071 0.7071 0.7071 -439.7355 1143.3351)" width="3022.7" height="1.1"/>
	</g>
	<g>
		<rect x="-355.4" y="1097.6" transform="matrix(0.7071 -0.7071 0.7071 0.7071 -437.9593 1139.0399)" width="3022.7" height="1.1"/>
	</g>
	<g>
		<rect x="-359.7" y="1093.3" transform="matrix(0.7071 -0.7071 0.7071 0.7071 -436.1791 1134.7319)" width="3022.7" height="1.1"/>
	</g>
	<g>
		<rect x="-364" y="1089" transform="matrix(0.7071 -0.7071 0.7071 0.7071 -434.3996 1130.4347)" width="3022.7" height="1.1"/>
	</g>
	<g>
		<rect x="-368.2" y="1084.7" transform="matrix(0.7071 -0.7071 0.7071 0.7071 -432.5526 1126.1689)" width="3022.7" height="1.1"/>
	</g>
	<g>
		<rect x="-372.6" y="1080.4" transform="matrix(0.7071 -0.7071 0.7071 0.7071 -430.8382 1121.8298)" width="3022.7" height="1.1"/>
	</g>
	<g>
		<rect x="-376.9" y="1076.1" transform="matrix(0.7071 -0.7071 0.7071 0.7071 -429.0534 1117.531)" width="3022.7" height="1.1"/>
	</g>
	<g>
		<rect x="-381.2" y="1071.8" transform="matrix(0.7071 -0.7071 0.7071 0.7071 -427.269 1113.2321)" width="3022.7" height="1.1"/>
	</g>
	<g>
		<rect x="-385.5" y="1067.5" transform="matrix(0.7071 -0.7071 0.7071 0.7071 -425.4934 1108.9368)" width="3022.7" height="1.1"/>
	</g>
	<g>
		<rect x="-389.8" y="1063.2" transform="matrix(0.7071 -0.7071 0.7071 0.7071 -423.7125 1104.6288)" width="3022.7" height="1.1"/>
	</g>
	<g>
		<rect x="-394.1" y="1058.9" transform="matrix(0.7071 -0.7071 0.7071 0.7071 -421.9281 1100.33)" width="3022.7" height="1.1"/>
	</g>
	<g>
		<rect x="-398.4" y="1054.6" transform="matrix(0.7071 -0.7071 0.7071 0.7071 -420.1567 1096.0366)" width="3022.7" height="1.1"/>
	</g>
	<g>
		<rect x="-402.7" y="1050.3" transform="matrix(0.7071 -0.7071 0.7071 0.7071 -418.3755 1091.7292)" width="3022.7" height="1.1"/>
	</g>
	<g>
		<rect x="-407" y="1046" transform="matrix(0.7071 -0.7071 0.7071 0.7071 -416.587 1087.428)" width="3022.7" height="1.1"/>
	</g>
	<g>
		<rect x="-411.3" y="1041.7" transform="matrix(0.7071 -0.7071 0.7071 0.7071 -414.8025 1083.129)" width="3022.7" height="1.1"/>
	</g>
	<g>
		<rect x="-415.6" y="1037.4" transform="matrix(0.7071 -0.7071 0.7071 0.7071 -413.0269 1078.8339)" width="3022.7" height="1.1"/>
	</g>
	<g>
		<rect x="-419.8" y="1033.2" transform="matrix(0.7071 -0.7071 0.7071 0.7071 -411.2631 1074.626)" width="3022.7" height="1.1"/>
	</g>
	<g>
		<rect x="-424.1" y="1028.9" transform="matrix(0.7071 -0.7071 0.7071 0.7071 -409.4786 1070.3269)" width="3022.7" height="1.1"/>
	</g>
	<g>
		<rect x="-428.5" y="1024.5" transform="matrix(0.7071 -0.7071 0.7071 0.7071 -407.6859 1065.9319)" width="3022.7" height="1.1"/>
	</g>
	<g>
		<rect x="-432.8" y="1020.2" transform="matrix(0.7071 -0.7071 0.7071 0.7071 -405.9095 1061.6257)" width="3022.7" height="1.1"/>
	</g>
	<g>
		<rect x="-437.1" y="1015.9" transform="matrix(0.7071 -0.7071 0.7071 0.7071 -404.125 1057.3268)" width="3022.7" height="1.1"/>
	</g>
	<g>
		<rect x="-441.3" y="1011.7" transform="matrix(0.7071 -0.7071 0.7071 0.7071 -402.3531 1053.126)" width="3022.7" height="1.1"/>
	</g>
	<g>
		<rect x="-445.6" y="1007.4" transform="matrix(0.7071 -0.7071 0.7071 0.7071 -400.5812 1048.8218)" width="3022.7" height="1.1"/>
	</g>
</g>
<g>
	<g>
		<rect x="-174.7" y="1278.3" transform="matrix(0.7071 -0.7071 0.7071 0.7071 -512.8077 1319.735)" width="3022.7" height="1.1"/>
	</g>
	<g>
		<rect x="-179" y="1274" transform="matrix(0.7071 -0.7071 0.7071 0.7071 -511.0231 1315.436)" width="3022.7" height="1.1"/>
	</g>
	<g>
		<rect x="-183.3" y="1269.7" transform="matrix(0.7071 -0.7071 0.7071 0.7071 -509.2386 1311.1371)" width="3022.7" height="1.1"/>
	</g>
	<g>
		<rect x="-187.6" y="1265.4" transform="matrix(0.7071 -0.7071 0.7071 0.7071 -507.4631 1306.8419)" width="3022.7" height="1.1"/>
	</g>
	<g>
		<rect x="-191.9" y="1261.1" transform="matrix(0.7071 -0.7071 0.7071 0.7071 -505.6866 1302.5359)" width="3022.7" height="1.1"/>
	</g>
	<g>
		<rect x="-196.2" y="1256.8" transform="matrix(0.7071 -0.7071 0.7071 0.7071 -503.9021 1298.2369)" width="3022.7" height="1.1"/>
	</g>
	<g>
		<rect x="-200.5" y="1252.5" transform="matrix(0.7071 -0.7071 0.7071 0.7071 -502.113 1293.9362)" width="3022.7" height="1.1"/>
	</g>
	<g>
		<rect x="-204.8" y="1248.2" transform="matrix(0.7071 -0.7071 0.7071 0.7071 -500.3411 1289.6318)" width="3022.7" height="1.1"/>
	</g>
	<g>
		<rect x="-209.1" y="1243.9" transform="matrix(0.7071 -0.7071 0.7071 0.7071 -498.5566 1285.333)" width="3022.7" height="1.1"/>
	</g>
	<g>
		<rect x="-213.4" y="1239.6" transform="matrix(0.7071 -0.7071 0.7071 0.7071 -496.772 1281.0341)" width="3022.7" height="1.1"/>
	</g>
	<g>
		<rect x="-217.7" y="1235.3" transform="matrix(0.7071 -0.7071 0.7071 0.7071 -494.9957 1276.739)" width="3022.7" height="1.1"/>
	</g>
	<g>
		<rect x="-222" y="1231" transform="matrix(0.7071 -0.7071 0.7071 0.7071 -493.2157 1272.4309)" width="3022.7" height="1.1"/>
	</g>
	<g>
		<rect x="-226.3" y="1226.7" transform="matrix(0.7071 -0.7071 0.7071 0.7071 -491.4361 1268.1338)" width="3022.7" height="1.1"/>
	</g>
	<g>
		<rect x="-230.5" y="1222.4" transform="matrix(0.7071 -0.7071 0.7071 0.7071 -489.5893 1263.868)" width="3022.7" height="1.1"/>
	</g>
	<g>
		<rect x="-234.9" y="1218.1" transform="matrix(0.7071 -0.7071 0.7071 0.7071 -487.8745 1259.5289)" width="3022.7" height="1.1"/>
	</g>
	<g>
		<rect x="-239.2" y="1213.8" transform="matrix(0.7071 -0.7071 0.7071 0.7071 -486.0899 1255.23)" width="3022.7" height="1.1"/>
	</g>
	<g>
		<rect x="-243.5" y="1209.5" transform="matrix(0.7071 -0.7071 0.7071 0.7071 -484.3056 1250.931)" width="3022.7" height="1.1"/>
	</g>
	<g>
		<rect x="-247.8" y="1205.2" transform="matrix(0.7071 -0.7071 0.7071 0.7071 -482.5299 1246.6359)" width="3022.7" height="1.1"/>
	</g>
	<g>
		<rect x="-252.1" y="1200.9" transform="matrix(0.7071 -0.7071 0.7071 0.7071 -480.7491 1242.328)" width="3022.7" height="1.1"/>
	</g>
	<g>
		<rect x="-256.4" y="1196.6" transform="matrix(0.7071 -0.7071 0.7071 0.7071 -478.9644 1238.0291)" width="3022.7" height="1.1"/>
	</g>
	<g>
		<rect x="-260.7" y="1192.3" transform="matrix(0.7071 -0.7071 0.7071 0.7071 -477.1933 1233.7357)" width="3022.7" height="1.1"/>
	</g>
	<g>
		<rect x="-265" y="1188" transform="matrix(0.7071 -0.7071 0.7071 0.7071 -475.412 1229.4281)" width="3022.7" height="1.1"/>
	</g>
	<g>
		<rect x="-269.3" y="1183.7" transform="matrix(0.7071 -0.7071 0.7071 0.7071 -473.6236 1225.127)" width="3022.7" height="1.1"/>
	</g>
	<g>
		<rect x="-273.6" y="1179.4" transform="matrix(0.7071 -0.7071 0.7071 0.7071 -471.839 1220.828)" width="3022.7" height="1.1"/>
	</g>
	<g>
		<rect x="-277.9" y="1175.1" transform="matrix(0.7071 -0.7071 0.7071 0.7071 -470.0633 1216.5328)" width="3022.7" height="1.1"/>
	</g>
	<g>
		<rect x="-282.2" y="1170.8" transform="matrix(0.7071 -0.7071 0.7071 0.7071 -468.2824 1212.225)" width="3022.7" height="1.1"/>
	</g>
	<g>
		<rect x="-286.5" y="1166.5" transform="matrix(0.7071 -0.7071 0.7071 0.7071 -466.498 1207.926)" width="3022.7" height="1.1"/>
	</g>
	<g>
		<rect x="-290.8" y="1162.2" transform="matrix(0.7071 -0.7071 0.7071 0.7071 -464.7224 1203.6309)" width="3022.7" height="1.1"/>
	</g>
	<g>
		<rect x="-295.1" y="1157.9" transform="matrix(0.7071 -0.7071 0.7071 0.7071 -462.946 1199.3248)" width="3022.7" height="1.1"/>
	</g>
	<g>
		<rect x="-299.4" y="1153.6" transform="matrix(0.7071 -0.7071 0.7071 0.7071 -461.1614 1195.0259)" width="3022.7" height="1.1"/>
	</g>
	<g>
		<rect x="-303.6" y="1149.4" transform="matrix(0.7071 -0.7071 0.7071 0.7071 -459.3896 1190.8251)" width="3022.7" height="1.1"/>
	</g>
	<g>
		<rect x="-307.9" y="1145.1" transform="matrix(0.7071 -0.7071 0.7071 0.7071 -457.6176 1186.5208)" width="3022.7" height="1.1"/>
	</g>
</g>
<g>
	<g>
		<rect x="-37" y="1416" transform="matrix(0.7071 -0.7071 0.7071 0.7071 -569.8442 1457.434)" width="3022.7" height="1.1"/>
	</g>
	<g>
		<rect x="-41.3" y="1411.7" transform="matrix(0.7071 -0.7071 0.7071 0.7071 -568.0596 1453.135)" width="3022.7" height="1.1"/>
	</g>
	<g>
		<rect x="-45.6" y="1407.4" transform="matrix(0.7071 -0.7071 0.7071 0.7071 -566.2751 1448.8362)" width="3022.7" height="1.1"/>
	</g>
	<g>
		<rect x="-49.9" y="1403.1" transform="matrix(0.7071 -0.7071 0.7071 0.7071 -564.4995 1444.5409)" width="3022.7" height="1.1"/>
	</g>
	<g>
		<rect x="-54.2" y="1398.8" transform="matrix(0.7071 -0.7071 0.7071 0.7071 -562.7231 1440.2349)" width="3022.7" height="1.1"/>
	</g>
	<g>
		<rect x="-58.5" y="1394.5" transform="matrix(0.7071 -0.7071 0.7071 0.7071 -560.9385 1435.936)" width="3022.7" height="1.1"/>
	</g>
	<g>
		<rect x="-62.8" y="1390.2" transform="matrix(0.7071 -0.7071 0.7071 0.7071 -559.1496 1431.6351)" width="3022.7" height="1.1"/>
	</g>
	<g>
		<rect x="-67.1" y="1385.9" transform="matrix(0.7071 -0.7071 0.7071 0.7071 -557.3776 1427.3309)" width="3022.7" height="1.1"/>
	</g>
	<g>
		<rect x="-71.4" y="1381.6" transform="matrix(0.7071 -0.7071 0.7071 0.7071 -555.593 1423.032)" width="3022.7" height="1.1"/>
	</g>
	<g>
		<rect x="-75.7" y="1377.3" transform="matrix(0.7071 -0.7071 0.7071 0.7071 -553.8085 1418.7332)" width="3022.7" height="1.1"/>
	</g>
	<g>
		<rect x="-80" y="1373" transform="matrix(0.7071 -0.7071 0.7071 0.7071 -552.0323 1414.438)" width="3022.7" height="1.1"/>
	</g>
	<g>
		<rect x="-84.3" y="1368.7" transform="matrix(0.7071 -0.7071 0.7071 0.7071 -550.2521 1410.1299)" width="3022.7" height="1.1"/>
	</g>
	<g>
		<rect x="-88.6" y="1364.4" transform="matrix(0.7071 -0.7071 0.7071 0.7071 -548.4727 1405.8329)" width="3022.7" height="1.1"/>
	</g>
	<g>
		<rect x="-92.9" y="1360.1" transform="matrix(0.7071 -0.7071 0.7071 0.7071 -546.6964 1401.5377)" width="3022.7" height="1.1"/>
	</g>
	<g>
		<rect x="-97.2" y="1355.8" transform="matrix(0.7071 -0.7071 0.7071 0.7071 -544.9111 1397.228)" width="3022.7" height="1.1"/>
	</g>
	<g>
		<rect x="-101.5" y="1351.5" transform="matrix(0.7071 -0.7071 0.7071 0.7071 -543.1265 1392.9291)" width="3022.7" height="1.1"/>
	</g>
	<g>
		<rect x="-105.8" y="1347.2" transform="matrix(0.7071 -0.7071 0.7071 0.7071 -541.342 1388.63)" width="3022.7" height="1.1"/>
	</g>
	<g>
		<rect x="-110.1" y="1342.9" transform="matrix(0.7071 -0.7071 0.7071 0.7071 -539.5664 1384.335)" width="3022.7" height="1.1"/>
	</g>
	<g>
		<rect x="-114.4" y="1338.6" transform="matrix(0.7071 -0.7071 0.7071 0.7071 -537.7855 1380.027)" width="3022.7" height="1.1"/>
	</g>
	<g>
		<rect x="-118.7" y="1334.3" transform="matrix(0.7071 -0.7071 0.7071 0.7071 -536.001 1375.728)" width="3022.7" height="1.1"/>
	</g>
	<g>
		<rect x="-123" y="1330" transform="matrix(0.7071 -0.7071 0.7071 0.7071 -534.2298 1371.4348)" width="3022.7" height="1.1"/>
	</g>
	<g>
		<rect x="-127.3" y="1325.7" transform="matrix(0.7071 -0.7071 0.7071 0.7071 -532.4485 1367.1272)" width="3022.7" height="1.1"/>
	</g>
	<g>
		<rect x="-131.6" y="1321.4" transform="matrix(0.7071 -0.7071 0.7071 0.7071 -530.66 1362.826)" width="3022.7" height="1.1"/>
	</g>
	<g>
		<rect x="-135.9" y="1317.1" transform="matrix(0.7071 -0.7071 0.7071 0.7071 -528.8754 1358.5271)" width="3022.7" height="1.1"/>
	</g>
	<g>
		<rect x="-140.2" y="1312.8" transform="matrix(0.7071 -0.7071 0.7071 0.7071 -527.0999 1354.2319)" width="3022.7" height="1.1"/>
	</g>
	<g>
		<rect x="-144.5" y="1308.5" transform="matrix(0.7071 -0.7071 0.7071 0.7071 -525.319 1349.9241)" width="3022.7" height="1.1"/>
	</g>
	<g>
		<rect x="-148.8" y="1304.2" transform="matrix(0.7071 -0.7071 0.7071 0.7071 -523.5344 1345.625)" width="3022.7" height="1.1"/>
	</g>
	<g>
		<rect x="-153.1" y="1299.9" transform="matrix(0.7071 -0.7071 0.7071 0.7071 -521.759 1341.3298)" width="3022.7" height="1.1"/>
	</g>
	<g>
		<rect x="-157.4" y="1295.6" transform="matrix(0.7071 -0.7071 0.7071 0.7071 -519.9824 1337.0238)" width="3022.7" height="1.1"/>
	</g>
	<g>
		<rect x="-161.7" y="1291.3" transform="matrix(0.7071 -0.7071 0.7071 0.7071 -518.198 1332.7249)" width="3022.7" height="1.1"/>
	</g>
	<g>
		<rect x="-165.9" y="1287.1" transform="matrix(0.7071 -0.7071 0.7071 0.7071 -516.426 1328.524)" width="3022.7" height="1.1"/>
	</g>
	<g>
		<rect x="-170.2" y="1282.8" transform="matrix(0.7071 -0.7071 0.7071 0.7071 -514.6542 1324.2198)" width="3022.7" height="1.1"/>
	</g>
</g>
<g>
	<g>
		<rect x="100.7" y="1553.7" transform="matrix(0.7071 -0.7071 0.7071 0.7071 -626.8807 1595.1331)" width="3022.7" height="1.1"/>
	</g>
	<g>
		<rect x="96.4" y="1549.4" transform="matrix(0.7071 -0.7071 0.7071 0.7071 -625.0962 1590.8341)" width="3022.7" height="1.1"/>
	</g>
	<g>
		<rect x="92.1" y="1545.1" transform="matrix(0.7071 -0.7071 0.7071 0.7071 -623.3116 1586.5352)" width="3022.7" height="1.1"/>
	</g>
	<g>
		<rect x="87.8" y="1540.8" transform="matrix(0.7071 -0.7071 0.7071 0.7071 -621.536 1582.2401)" width="3022.7" height="1.1"/>
	</g>
	<g>
		<rect x="83.5" y="1536.5" transform="matrix(0.7071 -0.7071 0.7071 0.7071 -619.7596 1577.934)" width="3022.7" height="1.1"/>
	</g>
	<g>
		<rect x="79.2" y="1532.2" transform="matrix(0.7071 -0.7071 0.7071 0.7071 -617.9751 1573.6349)" width="3022.7" height="1.1"/>
	</g>
	<g>
		<rect x="74.9" y="1527.9" transform="matrix(0.7071 -0.7071 0.7071 0.7071 -616.1861 1569.3342)" width="3022.7" height="1.1"/>
	</g>
	<g>
		<rect x="70.6" y="1523.6" transform="matrix(0.7071 -0.7071 0.7071 0.7071 -614.4141 1565.03)" width="3022.7" height="1.1"/>
	</g>
	<g>
		<rect x="66.3" y="1519.3" transform="matrix(0.7071 -0.7071 0.7071 0.7071 -612.6296 1560.7311)" width="3022.7" height="1.1"/>
	</g>
	<g>
		<rect x="62" y="1515" transform="matrix(0.7071 -0.7071 0.7071 0.7071 -610.845 1556.4321)" width="3022.7" height="1.1"/>
	</g>
	<g>
		<rect x="57.7" y="1510.7" transform="matrix(0.7071 -0.7071 0.7071 0.7071 -609.0689 1552.137)" width="3022.7" height="1.1"/>
	</g>
	<g>
		<rect x="53.4" y="1506.4" transform="matrix(0.7071 -0.7071 0.7071 0.7071 -607.2888 1547.829)" width="3022.7" height="1.1"/>
	</g>
	<g>
		<rect x="49.1" y="1502.1" transform="matrix(0.7071 -0.7071 0.7071 0.7071 -605.509 1543.5319)" width="3022.7" height="1.1"/>
	</g>
	<g>
		<rect x="44.8" y="1497.8" transform="matrix(0.7071 -0.7071 0.7071 0.7071 -603.733 1539.2368)" width="3022.7" height="1.1"/>
	</g>
	<g>
		<rect x="40.5" y="1493.5" transform="matrix(0.7071 -0.7071 0.7071 0.7071 -601.9476 1534.927)" width="3022.7" height="1.1"/>
	</g>
	<g>
		<rect x="36.2" y="1489.2" transform="matrix(0.7071 -0.7071 0.7071 0.7071 -600.1629 1530.6281)" width="3022.7" height="1.1"/>
	</g>
	<g>
		<rect x="31.9" y="1484.9" transform="matrix(0.7071 -0.7071 0.7071 0.7071 -598.3787 1526.3291)" width="3022.7" height="1.1"/>
	</g>
	<g>
		<rect x="27.6" y="1480.6" transform="matrix(0.7071 -0.7071 0.7071 0.7071 -596.6029 1522.0339)" width="3022.7" height="1.1"/>
	</g>
	<g>
		<rect x="23.3" y="1476.3" transform="matrix(0.7071 -0.7071 0.7071 0.7071 -594.822 1517.7261)" width="3022.7" height="1.1"/>
	</g>
	<g>
		<rect x="19" y="1472" transform="matrix(0.7071 -0.7071 0.7071 0.7071 -593.0375 1513.4271)" width="3022.7" height="1.1"/>
	</g>
	<g>
		<rect x="14.7" y="1467.7" transform="matrix(0.7071 -0.7071 0.7071 0.7071 -591.2663 1509.1337)" width="3022.7" height="1.1"/>
	</g>
	<g>
		<rect x="10.4" y="1463.4" transform="matrix(0.7071 -0.7071 0.7071 0.7071 -589.4852 1504.8263)" width="3022.7" height="1.1"/>
	</g>
	<g>
		<rect x="6.1" y="1459.1" transform="matrix(0.7071 -0.7071 0.7071 0.7071 -587.6965 1500.525)" width="3022.7" height="1.1"/>
	</g>
	<g>
		<rect x="1.8" y="1454.8" transform="matrix(0.7071 -0.7071 0.7071 0.7071 -585.912 1496.2261)" width="3022.7" height="1.1"/>
	</g>
	<g>
		<rect x="-2.5" y="1450.5" transform="matrix(0.7071 -0.7071 0.7071 0.7071 -584.1364 1491.9309)" width="3022.7" height="1.1"/>
	</g>
	<g>
		<rect x="-6.8" y="1446.2" transform="matrix(0.7071 -0.7071 0.7071 0.7071 -582.3554 1487.623)" width="3022.7" height="1.1"/>
	</g>
	<g>
		<rect x="-11.1" y="1441.9" transform="matrix(0.7071 -0.7071 0.7071 0.7071 -580.571 1483.3241)" width="3022.7" height="1.1"/>
	</g>
	<g>
		<rect x="-15.4" y="1437.6" transform="matrix(0.7071 -0.7071 0.7071 0.7071 -578.7953 1479.0288)" width="3022.7" height="1.1"/>
	</g>
	<g>
		<rect x="-19.7" y="1433.3" transform="matrix(0.7071 -0.7071 0.7071 0.7071 -577.019 1474.7229)" width="3022.7" height="1.1"/>
	</g>
	<g>
		<rect x="-24" y="1429" transform="matrix(0.7071 -0.7071 0.7071 0.7071 -575.2344 1470.4238)" width="3022.7" height="1.1"/>
	</g>
	<g>
		<rect x="-28.3" y="1424.7" transform="matrix(0.7071 -0.7071 0.7071 0.7071 -573.4454 1466.123)" width="3022.7" height="1.1"/>
	</g>
	<g>
		<rect x="-32.5" y="1420.5" transform="matrix(0.7071 -0.7071 0.7071 0.7071 -571.6907 1461.9188)" width="3022.7" height="1.1"/>
	</g>
</g>
<g>
	<g>
		<rect x="238.4" y="1691.4" transform="matrix(0.7071 -0.7071 0.7071 0.7071 -683.9172 1732.832)" width="3022.7" height="1.1"/>
	</g>
	<g>
		<rect x="234.1" y="1687.1" transform="matrix(0.7071 -0.7071 0.7071 0.7071 -682.1326 1728.5332)" width="3022.7" height="1.1"/>
	</g>
	<g>
		<rect x="229.8" y="1682.8" transform="matrix(0.7071 -0.7071 0.7071 0.7071 -680.348 1724.2343)" width="3022.7" height="1.1"/>
	</g>
	<g>
		<rect x="225.5" y="1678.5" transform="matrix(0.7071 -0.7071 0.7071 0.7071 -678.5725 1719.9391)" width="3022.7" height="1.1"/>
	</g>
	<g>
		<rect x="221.2" y="1674.2" transform="matrix(0.7071 -0.7071 0.7071 0.7071 -676.7961 1715.6329)" width="3022.7" height="1.1"/>
	</g>
	<g>
		<rect x="216.9" y="1669.9" transform="matrix(0.7071 -0.7071 0.7071 0.7071 -675.0116 1711.334)" width="3022.7" height="1.1"/>
	</g>
	<g>
		<rect x="212.6" y="1665.6" transform="matrix(0.7071 -0.7071 0.7071 0.7071 -673.2225 1707.0333)" width="3022.7" height="1.1"/>
	</g>
	<g>
		<rect x="208.3" y="1661.3" transform="matrix(0.7071 -0.7071 0.7071 0.7071 -671.4506 1702.729)" width="3022.7" height="1.1"/>
	</g>
	<g>
		<rect x="204" y="1657" transform="matrix(0.7071 -0.7071 0.7071 0.7071 -669.6661 1698.4301)" width="3022.7" height="1.1"/>
	</g>
	<g>
		<rect x="199.7" y="1652.7" transform="matrix(0.7071 -0.7071 0.7071 0.7071 -667.8815 1694.1311)" width="3022.7" height="1.1"/>
	</g>
	<g>
		<rect x="195.4" y="1648.4" transform="matrix(0.7071 -0.7071 0.7071 0.7071 -666.1053 1689.8361)" width="3022.7" height="1.1"/>
	</g>
	<g>
		<rect x="191.1" y="1644.1" transform="matrix(0.7071 -0.7071 0.7071 0.7071 -664.3252 1685.5281)" width="3022.7" height="1.1"/>
	</g>
	<g>
		<rect x="186.8" y="1639.8" transform="matrix(0.7071 -0.7071 0.7071 0.7071 -662.5457 1681.2308)" width="3022.7" height="1.1"/>
	</g>
	<g>
		<rect x="182.5" y="1635.5" transform="matrix(0.7071 -0.7071 0.7071 0.7071 -660.7694 1676.9359)" width="3022.7" height="1.1"/>
	</g>
	<g>
		<rect x="178.2" y="1631.2" transform="matrix(0.7071 -0.7071 0.7071 0.7071 -658.9841 1672.6259)" width="3022.7" height="1.1"/>
	</g>
	<g>
		<rect x="173.9" y="1626.9" transform="matrix(0.7071 -0.7071 0.7071 0.7071 -657.1995 1668.3271)" width="3022.7" height="1.1"/>
	</g>
	<g>
		<rect x="169.6" y="1622.6" transform="matrix(0.7071 -0.7071 0.7071 0.7071 -655.415 1664.0281)" width="3022.7" height="1.1"/>
	</g>
	<g>
		<rect x="165.3" y="1618.3" transform="matrix(0.7071 -0.7071 0.7071 0.7071 -653.6394 1659.733)" width="3022.7" height="1.1"/>
	</g>
	<g>
		<rect x="161" y="1614" transform="matrix(0.7071 -0.7071 0.7071 0.7071 -651.8586 1655.425)" width="3022.7" height="1.1"/>
	</g>
	<g>
		<rect x="156.7" y="1609.7" transform="matrix(0.7071 -0.7071 0.7071 0.7071 -650.074 1651.1261)" width="3022.7" height="1.1"/>
	</g>
	<g>
		<rect x="152.4" y="1605.4" transform="matrix(0.7071 -0.7071 0.7071 0.7071 -648.3029 1646.8328)" width="3022.7" height="1.1"/>
	</g>
	<g>
		<rect x="148.1" y="1601.1" transform="matrix(0.7071 -0.7071 0.7071 0.7071 -646.5215 1642.5253)" width="3022.7" height="1.1"/>
	</g>
	<g>
		<rect x="143.8" y="1596.8" transform="matrix(0.7071 -0.7071 0.7071 0.7071 -644.733 1638.224)" width="3022.7" height="1.1"/>
	</g>
	<g>
		<rect x="139.5" y="1592.5" transform="matrix(0.7071 -0.7071 0.7071 0.7071 -642.9484 1633.9252)" width="3022.7" height="1.1"/>
	</g>
	<g>
		<rect x="135.2" y="1588.2" transform="matrix(0.7071 -0.7071 0.7071 0.7071 -641.1729 1629.6299)" width="3022.7" height="1.1"/>
	</g>
	<g>
		<rect x="130.9" y="1583.9" transform="matrix(0.7071 -0.7071 0.7071 0.7071 -639.392 1625.322)" width="3022.7" height="1.1"/>
	</g>
	<g>
		<rect x="126.6" y="1579.6" transform="matrix(0.7071 -0.7071 0.7071 0.7071 -637.6075 1621.0231)" width="3022.7" height="1.1"/>
	</g>
	<g>
		<rect x="122.3" y="1575.3" transform="matrix(0.7071 -0.7071 0.7071 0.7071 -635.832 1616.7279)" width="3022.7" height="1.1"/>
	</g>
	<g>
		<rect x="118" y="1571" transform="matrix(0.7071 -0.7071 0.7071 0.7071 -634.0555 1612.4219)" width="3022.7" height="1.1"/>
	</g>
	<g>
		<rect x="113.7" y="1566.7" transform="matrix(0.7071 -0.7071 0.7071 0.7071 -632.2709 1608.1229)" width="3022.7" height="1.1"/>
	</g>
	<g>
		<rect x="109.4" y="1562.4" transform="matrix(0.7071 -0.7071 0.7071 0.7071 -630.482 1603.8221)" width="3022.7" height="1.1"/>
	</g>
	<g>
		<rect x="105.1" y="1558.1" transform="matrix(0.7071 -0.7071 0.7071 0.7071 -628.7101 1599.5178)" width="3022.7" height="1.1"/>
	</g>
</g>
<g>
	<g>
		<rect x="376.1" y="1829.1" transform="matrix(0.7071 -0.7071 0.7071 0.7071 -740.9536 1870.5311)" width="3022.7" height="1.1"/>
	</g>
	<g>
		<rect x="371.8" y="1824.8" transform="matrix(0.7071 -0.7071 0.7071 0.7071 -739.1692 1866.2322)" width="3022.7" height="1.1"/>
	</g>
	<g>
		<rect x="367.5" y="1820.5" transform="matrix(0.7071 -0.7071 0.7071 0.7071 -737.3846 1861.9332)" width="3022.7" height="1.1"/>
	</g>
	<g>
		<rect x="363.2" y="1816.2" transform="matrix(0.7071 -0.7071 0.7071 0.7071 -735.6091 1857.6381)" width="3022.7" height="1.1"/>
	</g>
	<g>
		<rect x="358.9" y="1811.9" transform="matrix(0.7071 -0.7071 0.7071 0.7071 -733.8327 1853.3319)" width="3022.7" height="1.1"/>
	</g>
	<g>
		<rect x="354.6" y="1807.6" transform="matrix(0.7071 -0.7071 0.7071 0.7071 -732.048 1849.0331)" width="3022.7" height="1.1"/>
	</g>
	<g>
		<rect x="350.3" y="1803.3" transform="matrix(0.7071 -0.7071 0.7071 0.7071 -730.259 1844.7323)" width="3022.7" height="1.1"/>
	</g>
	<g>
		<rect x="346" y="1799" transform="matrix(0.7071 -0.7071 0.7071 0.7071 -728.4871 1840.4281)" width="3022.7" height="1.1"/>
	</g>
	<g>
		<rect x="341.7" y="1794.7" transform="matrix(0.7071 -0.7071 0.7071 0.7071 -726.7026 1836.129)" width="3022.7" height="1.1"/>
	</g>
	<g>
		<rect x="337.4" y="1790.4" transform="matrix(0.7071 -0.7071 0.7071 0.7071 -724.9181 1831.8302)" width="3022.7" height="1.1"/>
	</g>
	<g>
		<rect x="333.1" y="1786.1" transform="matrix(0.7071 -0.7071 0.7071 0.7071 -723.1417 1827.535)" width="3022.7" height="1.1"/>
	</g>
	<g>
		<rect x="328.8" y="1781.8" transform="matrix(0.7071 -0.7071 0.7071 0.7071 -721.3617 1823.2272)" width="3022.7" height="1.1"/>
	</g>
	<g>
		<rect x="324.5" y="1777.5" transform="matrix(0.7071 -0.7071 0.7071 0.7071 -719.5821 1818.9299)" width="3022.7" height="1.1"/>
	</g>
	<g>
		<rect x="320.2" y="1773.2" transform="matrix(0.7071 -0.7071 0.7071 0.7071 -717.806 1814.6348)" width="3022.7" height="1.1"/>
	</g>
	<g>
		<rect x="315.9" y="1768.9" transform="matrix(0.7071 -0.7071 0.7071 0.7071 -716.0206 1810.3251)" width="3022.7" height="1.1"/>
	</g>
	<g>
		<rect x="311.6" y="1764.6" transform="matrix(0.7071 -0.7071 0.7071 0.7071 -714.236 1806.0262)" width="3022.7" height="1.1"/>
	</g>
	<g>
		<rect x="307.3" y="1760.3" transform="matrix(0.7071 -0.7071 0.7071 0.7071 -712.4516 1801.7272)" width="3022.7" height="1.1"/>
	</g>
	<g>
		<rect x="303" y="1756" transform="matrix(0.7071 -0.7071 0.7071 0.7071 -710.6759 1797.4321)" width="3022.7" height="1.1"/>
	</g>
	<g>
		<rect x="298.7" y="1751.7" transform="matrix(0.7071 -0.7071 0.7071 0.7071 -708.895 1793.124)" width="3022.7" height="1.1"/>
	</g>
	<g>
		<rect x="294.4" y="1747.4" transform="matrix(0.7071 -0.7071 0.7071 0.7071 -707.1105 1788.8251)" width="3022.7" height="1.1"/>
	</g>
	<g>
		<rect x="290.1" y="1743.1" transform="matrix(0.7071 -0.7071 0.7071 0.7071 -705.3392 1784.5319)" width="3022.7" height="1.1"/>
	</g>
	<g>
		<rect x="285.8" y="1738.8" transform="matrix(0.7071 -0.7071 0.7071 0.7071 -703.5582 1780.2244)" width="3022.7" height="1.1"/>
	</g>
	<g>
		<rect x="281.5" y="1734.5" transform="matrix(0.7071 -0.7071 0.7071 0.7071 -701.7696 1775.9231)" width="3022.7" height="1.1"/>
	</g>
	<g>
		<rect x="277.2" y="1730.2" transform="matrix(0.7071 -0.7071 0.7071 0.7071 -699.985 1771.624)" width="3022.7" height="1.1"/>
	</g>
	<g>
		<rect x="272.9" y="1725.9" transform="matrix(0.7071 -0.7071 0.7071 0.7071 -698.2094 1767.329)" width="3022.7" height="1.1"/>
	</g>
	<g>
		<rect x="268.6" y="1721.6" transform="matrix(0.7071 -0.7071 0.7071 0.7071 -696.4284 1763.0211)" width="3022.7" height="1.1"/>
	</g>
	<g>
		<rect x="264.3" y="1717.3" transform="matrix(0.7071 -0.7071 0.7071 0.7071 -694.644 1758.7222)" width="3022.7" height="1.1"/>
	</g>
	<g>
		<rect x="260" y="1713" transform="matrix(0.7071 -0.7071 0.7071 0.7071 -692.8683 1754.427)" width="3022.7" height="1.1"/>
	</g>
	<g>
		<rect x="255.7" y="1708.7" transform="matrix(0.7071 -0.7071 0.7071 0.7071 -691.092 1750.1208)" width="3022.7" height="1.1"/>
	</g>
	<g>
		<rect x="251.4" y="1704.4" transform="matrix(0.7071 -0.7071 0.7071 0.7071 -689.3075 1745.8219)" width="3022.7" height="1.1"/>
	</g>
	<g>
		<rect x="247.1" y="1700.1" transform="matrix(0.7071 -0.7071 0.7071 0.7071 -687.5184 1741.5211)" width="3022.7" height="1.1"/>
	</g>
	<g>
		<rect x="242.8" y="1695.8" transform="matrix(0.7071 -0.7071 0.7071 0.7071 -685.7465 1737.217)" width="3022.7" height="1.1"/>
	</g>
</g>
</svg>
