<?xml version="1.0" encoding="utf-8"?>
<!-- Generator: Adobe Illustrator 26.0.2, SVG Export Plug-In . SVG Version: 6.00 Build 0)  -->
<svg version="1.1" id="_x2014_ÎÓÈ_x5F_1" xmlns="http://www.w3.org/2000/svg" xmlns:xlink="http://www.w3.org/1999/xlink"
	 x="0px" y="0px" viewBox="0 0 1794 1794" style="enable-background:new 0 0 1794 1794;" xml:space="preserve">
<style type="text/css">
	.st0{opacity:0.41;fill:#F8E399;}
</style>
<rect x="-34" y="-46" class="st0" width="1861.2" height="1861.2"/>
<g>
	<g>
		<rect x="-1552.7" y="-38.2" transform="matrix(0.7071 -0.7071 0.7071 0.7071 23.0283 -15.8402)" width="3090.2" height="5"/>
	</g>
	<g>
		<rect x="-1537.6" y="-23.1" transform="matrix(0.7071 -0.7071 0.7071 0.7071 16.7893 -0.7198)" width="3090.2" height="5"/>
	</g>
	<g>
		<rect x="-1522.6" y="-8.2" transform="matrix(0.7071 -0.7071 0.7071 0.7071 10.6242 14.2471)" width="3090.2" height="5"/>
	</g>
	<g>
		<rect x="-1507.6" y="6.8" transform="matrix(0.7071 -0.7071 0.7071 0.7071 4.4192 29.2505)" width="3090.2" height="5"/>
	</g>
	<g>
		<rect x="-1492.6" y="21.9" transform="matrix(0.7071 -0.7071 0.7071 0.7071 -1.8491 44.266)" width="3090.2" height="5"/>
	</g>
	<g>
		<rect x="-1477.5" y="37" transform="matrix(0.7071 -0.7071 0.7071 0.7071 -8.1053 59.3793)" width="3090.2" height="5"/>
	</g>
	<g>
		<rect x="-1462.5" y="51.9" transform="matrix(0.7071 -0.7071 0.7071 0.7071 -14.2708 74.3463)" width="3090.2" height="5"/>
	</g>
	<g>
		<rect x="-1447.5" y="66.9" transform="matrix(0.7071 -0.7071 0.7071 0.7071 -20.4754 89.3497)" width="3090.2" height="5"/>
	</g>
	<g>
		<rect x="-1432.5" y="82" transform="matrix(0.7071 -0.7071 0.7071 0.7071 -26.7437 104.3651)" width="3090.2" height="5"/>
	</g>
	<g>
		<rect x="-1417.4" y="97.1" transform="matrix(0.7071 -0.7071 0.7071 0.7071 -33 119.4785)" width="3090.2" height="5"/>
	</g>
	<g>
		<rect x="-1402.4" y="112" transform="matrix(0.7071 -0.7071 0.7071 0.7071 -39.1654 134.4455)" width="3090.2" height="5"/>
	</g>
	<g>
		<rect x="-1387.4" y="127" transform="matrix(0.7071 -0.7071 0.7071 0.7071 -45.3702 149.4489)" width="3090.2" height="5"/>
	</g>
	<g>
		<rect x="-1372.4" y="142.1" transform="matrix(0.7071 -0.7071 0.7071 0.7071 -51.6373 164.4643)" width="3090.2" height="5"/>
	</g>
	<g>
		<rect x="-1357.4" y="157.1" transform="matrix(0.7071 -0.7071 0.7071 0.7071 -57.8604 179.4607)" width="3090.2" height="5"/>
	</g>
	<g>
		<rect x="-1342.3" y="172.1" transform="matrix(0.7071 -0.7071 0.7071 0.7071 -64.06 194.5447)" width="3090.2" height="5"/>
	</g>
	<g>
		<rect x="-1327.3" y="187.1" transform="matrix(0.7071 -0.7071 0.7071 0.7071 -70.2648 209.548)" width="3090.2" height="5"/>
	</g>
	<g>
		<rect x="-1312.4" y="202.2" transform="matrix(0.7071 -0.7071 0.7071 0.7071 -76.5882 224.5171)" width="3090.2" height="5"/>
	</g>
	<g>
		<rect x="-1297.3" y="217.2" transform="matrix(0.7071 -0.7071 0.7071 0.7071 -82.755 239.5597)" width="3090.2" height="5"/>
	</g>
	<g>
		<rect x="-1282.2" y="232.2" transform="matrix(0.7071 -0.7071 0.7071 0.7071 -88.9546 254.6439)" width="3090.2" height="5"/>
	</g>
	<g>
		<rect x="-1267.2" y="247.2" transform="matrix(0.7071 -0.7071 0.7071 0.7071 -95.1573 269.6472)" width="3090.2" height="5"/>
	</g>
	<g>
		<rect x="-1252.3" y="262.3" transform="matrix(0.7071 -0.7071 0.7071 0.7071 -101.4813 284.6162)" width="3090.2" height="5"/>
	</g>
	<g>
		<rect x="-1237.2" y="277.3" transform="matrix(0.7071 -0.7071 0.7071 0.7071 -107.6496 299.6587)" width="3090.2" height="5"/>
	</g>
	<g>
		<rect x="-1222.1" y="292.3" transform="matrix(0.7071 -0.7071 0.7071 0.7071 -113.847 314.7428)" width="3090.2" height="5"/>
	</g>
	<g>
		<rect x="-1207.1" y="307.3" transform="matrix(0.7071 -0.7071 0.7071 0.7071 -120.054 329.7462)" width="3090.2" height="5"/>
	</g>
	<g>
		<rect x="-1192.1" y="322.4" transform="matrix(0.7071 -0.7071 0.7071 0.7071 -126.3209 344.7617)" width="3090.2" height="5"/>
	</g>
	<g>
		<rect x="-1177.1" y="337.4" transform="matrix(0.7071 -0.7071 0.7071 0.7071 -132.5468 359.7579)" width="3090.2" height="5"/>
	</g>
	<g>
		<rect x="-1162" y="352.4" transform="matrix(0.7071 -0.7071 0.7071 0.7071 -138.7439 374.8419)" width="3090.2" height="5"/>
	</g>
	<g>
		<rect x="-1147" y="367.4" transform="matrix(0.7071 -0.7071 0.7071 0.7071 -144.9487 389.8453)" width="3090.2" height="5"/>
	</g>
	<g>
		<rect x="-1132.1" y="382.5" transform="matrix(0.7071 -0.7071 0.7071 0.7071 -151.2705 404.8143)" width="3090.2" height="5"/>
	</g>
	<g>
		<rect x="-1117" y="397.5" transform="matrix(0.7071 -0.7071 0.7071 0.7071 -157.4359 419.8571)" width="3090.2" height="5"/>
	</g>
	<g>
		<rect x="-1101.9" y="412.5" transform="matrix(0.7071 -0.7071 0.7071 0.7071 -163.6386 434.9412)" width="3090.2" height="5"/>
	</g>
	<g>
		<rect x="-1086.9" y="427.5" transform="matrix(0.7071 -0.7071 0.7071 0.7071 -169.8434 449.9445)" width="3090.2" height="5"/>
	</g>
	<g>
		<rect x="-1072" y="442.6" transform="matrix(0.7071 -0.7071 0.7071 0.7071 -176.1653 464.9137)" width="3090.2" height="5"/>
	</g>
	<g>
		<rect x="-1056.9" y="457.6" transform="matrix(0.7071 -0.7071 0.7071 0.7071 -182.3336 479.9563)" width="3090.2" height="5"/>
	</g>
	<g>
		<rect x="-1041.8" y="472.6" transform="matrix(0.7071 -0.7071 0.7071 0.7071 -188.5333 495.0403)" width="3090.2" height="5"/>
	</g>
	<g>
		<rect x="-1026.8" y="487.6" transform="matrix(0.7071 -0.7071 0.7071 0.7071 -194.738 510.0437)" width="3090.2" height="5"/>
	</g>
	<g>
		<rect x="-1011.9" y="502.7" transform="matrix(0.7071 -0.7071 0.7071 0.7071 -201.06 525.0128)" width="3090.2" height="5"/>
	</g>
	<g>
		<rect x="-996.8" y="517.7" transform="matrix(0.7071 -0.7071 0.7071 0.7071 -207.2282 540.0554)" width="3090.2" height="5"/>
	</g>
	<g>
		<rect x="-981.7" y="532.7" transform="matrix(0.7071 -0.7071 0.7071 0.7071 -213.4278 555.1394)" width="3090.2" height="5"/>
	</g>
	<g>
		<rect x="-966.7" y="547.7" transform="matrix(0.7071 -0.7071 0.7071 0.7071 -219.6326 570.1429)" width="3090.2" height="5"/>
	</g>
	<g>
		<rect x="-951.8" y="562.8" transform="matrix(0.7071 -0.7071 0.7071 0.7071 -225.9546 585.1119)" width="3090.2" height="5"/>
	</g>
	<g>
		<rect x="-936.7" y="577.8" transform="matrix(0.7071 -0.7071 0.7071 0.7071 -232.1227 600.1546)" width="3090.2" height="5"/>
	</g>
	<g>
		<rect x="-921.5" y="593" transform="matrix(0.7071 -0.7071 0.7071 0.7071 -238.4407 615.3735)" width="3090.2" height="5"/>
	</g>
	<g>
		<rect x="-906.6" y="608" transform="matrix(0.7071 -0.7071 0.7071 0.7071 -244.6746 630.2719)" width="3090.2" height="5"/>
	</g>
	<g>
		<rect x="-891.5" y="622.9" transform="matrix(0.7071 -0.7071 0.7071 0.7071 -250.769 645.3266)" width="3090.2" height="5"/>
	</g>
	<g>
		<rect x="-876.5" y="638" transform="matrix(0.7071 -0.7071 0.7071 0.7071 -257.079 660.3592)" width="3090.2" height="5"/>
	</g>
	<g>
		<rect x="-861.5" y="653" transform="matrix(0.7071 -0.7071 0.7071 0.7071 -263.2838 675.3627)" width="3090.2" height="5"/>
	</g>
	<g>
		<rect x="-846.5" y="668.1" transform="matrix(0.7071 -0.7071 0.7071 0.7071 -269.5692 690.3708)" width="3090.2" height="5"/>
	</g>
	<g>
		<rect x="-831.4" y="683" transform="matrix(0.7071 -0.7071 0.7071 0.7071 -275.664 705.4257)" width="3090.2" height="5"/>
	</g>
	<g>
		<rect x="-816.4" y="698.1" transform="matrix(0.7071 -0.7071 0.7071 0.7071 -281.9738 720.4583)" width="3090.2" height="5"/>
	</g>
	<g>
		<rect x="-801.4" y="713.1" transform="matrix(0.7071 -0.7071 0.7071 0.7071 -288.1784 735.4616)" width="3090.2" height="5"/>
	</g>
	<g>
		<rect x="-786.4" y="728.2" transform="matrix(0.7071 -0.7071 0.7071 0.7071 -294.464 750.4701)" width="3090.2" height="5"/>
	</g>
	<g>
		<rect x="-771.3" y="743.1" transform="matrix(0.7071 -0.7071 0.7071 0.7071 -300.5585 765.525)" width="3090.2" height="5"/>
	</g>
	<g>
		<rect x="-756.3" y="758.2" transform="matrix(0.7071 -0.7071 0.7071 0.7071 -306.8684 780.5576)" width="3090.2" height="5"/>
	</g>
	<g>
		<rect x="-741.3" y="773.2" transform="matrix(0.7071 -0.7071 0.7071 0.7071 -313.0718 795.5609)" width="3090.2" height="5"/>
	</g>
	<g>
		<rect x="-726.3" y="788.3" transform="matrix(0.7071 -0.7071 0.7071 0.7071 -319.3586 810.5693)" width="3090.2" height="5"/>
	</g>
	<g>
		<rect x="-711.2" y="803.2" transform="matrix(0.7071 -0.7071 0.7071 0.7071 -325.4532 825.6241)" width="3090.2" height="5"/>
	</g>
	<g>
		<rect x="-696.2" y="818.3" transform="matrix(0.7071 -0.7071 0.7071 0.7071 -331.7628 840.6567)" width="3090.2" height="5"/>
	</g>
	<g>
		<rect x="-681.2" y="833.3" transform="matrix(0.7071 -0.7071 0.7071 0.7071 -337.9693 855.6602)" width="3090.2" height="5"/>
	</g>
	<g>
		<rect x="-666.2" y="848.4" transform="matrix(0.7071 -0.7071 0.7071 0.7071 -344.2531 870.6685)" width="3090.2" height="5"/>
	</g>
	<g>
		<rect x="-651.1" y="863.3" transform="matrix(0.7071 -0.7071 0.7071 0.7071 -350.3478 885.7233)" width="3090.2" height="5"/>
	</g>
	<g>
		<rect x="-636.1" y="878.4" transform="matrix(0.7071 -0.7071 0.7071 0.7071 -356.6556 900.756)" width="3090.2" height="5"/>
	</g>
	<g>
		<rect x="-621.1" y="893.4" transform="matrix(0.7071 -0.7071 0.7071 0.7071 -362.8622 915.7594)" width="3090.2" height="5"/>
	</g>
	<g>
		<rect x="-606.1" y="908.5" transform="matrix(0.7071 -0.7071 0.7071 0.7071 -369.1477 930.7676)" width="3090.2" height="5"/>
	</g>
	<g>
		<rect x="-591" y="923.4" transform="matrix(0.7071 -0.7071 0.7071 0.7071 -375.2403 945.8223)" width="3090.2" height="5"/>
	</g>
	<g>
		<rect x="-576" y="938.5" transform="matrix(0.7071 -0.7071 0.7071 0.7071 -381.5523 960.8549)" width="3090.2" height="5"/>
	</g>
	<g>
		<rect x="-561" y="953.5" transform="matrix(0.7071 -0.7071 0.7071 0.7071 -387.7556 975.8582)" width="3090.2" height="5"/>
	</g>
	<g>
		<rect x="-546" y="968.6" transform="matrix(0.7071 -0.7071 0.7071 0.7071 -394.045 990.8666)" width="3090.2" height="5"/>
	</g>
	<g>
		<rect x="-530.9" y="983.5" transform="matrix(0.7071 -0.7071 0.7071 0.7071 -400.1372 1005.9214)" width="3090.2" height="5"/>
	</g>
	<g>
		<rect x="-515.9" y="998.6" transform="matrix(0.7071 -0.7071 0.7071 0.7071 -406.4469 1020.9539)" width="3090.2" height="5"/>
	</g>
	<g>
		<rect x="-500.9" y="1013.6" transform="matrix(0.7071 -0.7071 0.7071 0.7071 -412.6515 1035.9574)" width="3090.2" height="5"/>
	</g>
	<g>
		<rect x="-485.9" y="1028.7" transform="matrix(0.7071 -0.7071 0.7071 0.7071 -418.9339 1050.9658)" width="3090.2" height="5"/>
	</g>
	<g>
		<rect x="-470.8" y="1043.6" transform="matrix(0.7071 -0.7071 0.7071 0.7071 -425.0317 1066.0205)" width="3090.2" height="5"/>
	</g>
	<g>
		<rect x="-455.8" y="1058.7" transform="matrix(0.7071 -0.7071 0.7071 0.7071 -431.3415 1081.0532)" width="3090.2" height="5"/>
	</g>
	<g>
		<rect x="-440.8" y="1073.7" transform="matrix(0.7071 -0.7071 0.7071 0.7071 -437.5463 1096.0566)" width="3090.2" height="5"/>
	</g>
	<g>
		<rect x="-425.8" y="1088.8" transform="matrix(0.7071 -0.7071 0.7071 0.7071 -443.8319 1111.0651)" width="3090.2" height="5"/>
	</g>
	<g>
		<rect x="-410.7" y="1103.7" transform="matrix(0.7071 -0.7071 0.7071 0.7071 -449.9264 1126.1199)" width="3090.2" height="5"/>
	</g>
	<g>
		<rect x="-395.7" y="1118.8" transform="matrix(0.7071 -0.7071 0.7071 0.7071 -456.2363 1141.1526)" width="3090.2" height="5"/>
	</g>
	<g>
		<rect x="-380.7" y="1133.8" transform="matrix(0.7071 -0.7071 0.7071 0.7071 -462.441 1156.1559)" width="3090.2" height="5"/>
	</g>
	<g>
		<rect x="-365.7" y="1148.9" transform="matrix(0.7071 -0.7071 0.7071 0.7071 -468.7263 1171.1642)" width="3090.2" height="5"/>
	</g>
	<g>
		<rect x="-350.6" y="1163.8" transform="matrix(0.7071 -0.7071 0.7071 0.7071 -474.8212 1186.219)" width="3090.2" height="5"/>
	</g>
	<g>
		<rect x="-335.6" y="1178.8" transform="matrix(0.7071 -0.7071 0.7071 0.7071 -481.0258 1201.2223)" width="3090.2" height="5"/>
	</g>
	<g>
		<rect x="-320.6" y="1193.9" transform="matrix(0.7071 -0.7071 0.7071 0.7071 -487.3357 1216.255)" width="3090.2" height="5"/>
	</g>
	<g>
		<rect x="-305.6" y="1209" transform="matrix(0.7071 -0.7071 0.7071 0.7071 -493.621 1231.2633)" width="3090.2" height="5"/>
	</g>
	<g>
		<rect x="-290.4" y="1224.1" transform="matrix(0.7071 -0.7071 0.7071 0.7071 -499.8337 1246.4529)" width="3090.2" height="5"/>
	</g>
	<g>
		<rect x="-275.4" y="1239.1" transform="matrix(0.7071 -0.7071 0.7071 0.7071 -506.0384 1261.4562)" width="3090.2" height="5"/>
	</g>
	<g>
		<rect x="-260.4" y="1254.1" transform="matrix(0.7071 -0.7071 0.7071 0.7071 -512.2673 1276.4353)" width="3090.2" height="5"/>
	</g>
	<g>
		<rect x="-245.4" y="1269.1" transform="matrix(0.7071 -0.7071 0.7071 0.7071 -518.4721 1291.4387)" width="3090.2" height="5"/>
	</g>
	<g>
		<rect x="-230.4" y="1284.1" transform="matrix(0.7071 -0.7071 0.7071 0.7071 -524.6768 1306.442)" width="3090.2" height="5"/>
	</g>
	<g>
		<rect x="-215.3" y="1299.2" transform="matrix(0.7071 -0.7071 0.7071 0.7071 -530.9332 1321.5553)" width="3090.2" height="5"/>
	</g>
	<g>
		<rect x="-200.3" y="1314.2" transform="matrix(0.7071 -0.7071 0.7071 0.7071 -537.162 1336.5345)" width="3090.2" height="5"/>
	</g>
	<g>
		<rect x="-185.3" y="1329.2" transform="matrix(0.7071 -0.7071 0.7071 0.7071 -543.3668 1351.5377)" width="3090.2" height="5"/>
	</g>
	<g>
		<rect x="-170.3" y="1344.2" transform="matrix(0.7071 -0.7071 0.7071 0.7071 -549.5715 1366.5411)" width="3090.2" height="5"/>
	</g>
	<g>
		<rect x="-155.2" y="1359.3" transform="matrix(0.7071 -0.7071 0.7071 0.7071 -555.8279 1381.6547)" width="3090.2" height="5"/>
	</g>
	<g>
		<rect x="-140.2" y="1374.3" transform="matrix(0.7071 -0.7071 0.7071 0.7071 -562.0568 1396.6337)" width="3090.2" height="5"/>
	</g>
	<g>
		<rect x="-125.2" y="1389.3" transform="matrix(0.7071 -0.7071 0.7071 0.7071 -568.2616 1411.6372)" width="3090.2" height="5"/>
	</g>
	<g>
		<rect x="-110.2" y="1404.3" transform="matrix(0.7071 -0.7071 0.7071 0.7071 -574.465 1426.6405)" width="3090.2" height="5"/>
	</g>
	<g>
		<rect x="-95.1" y="1419.4" transform="matrix(0.7071 -0.7071 0.7071 0.7071 -580.7225 1441.7538)" width="3090.2" height="5"/>
	</g>
	<g>
		<rect x="-80.1" y="1434.4" transform="matrix(0.7071 -0.7071 0.7071 0.7071 -586.9515 1456.7329)" width="3090.2" height="5"/>
	</g>
	<g>
		<rect x="-65.1" y="1449.4" transform="matrix(0.7071 -0.7071 0.7071 0.7071 -593.1562 1471.7362)" width="3090.2" height="5"/>
	</g>
	<g>
		<rect x="-50.1" y="1464.4" transform="matrix(0.7071 -0.7071 0.7071 0.7071 -599.3626 1486.7396)" width="3090.2" height="5"/>
	</g>
	<g>
		<rect x="-35" y="1479.5" transform="matrix(0.7071 -0.7071 0.7071 0.7071 -605.6171 1501.8529)" width="3090.2" height="5"/>
	</g>
	<g>
		<rect x="-20" y="1494.5" transform="matrix(0.7071 -0.7071 0.7071 0.7071 -611.846 1516.832)" width="3090.2" height="5"/>
	</g>
	<g>
		<rect x="-5" y="1509.5" transform="matrix(0.7071 -0.7071 0.7071 0.7071 -618.0488 1531.8353)" width="3090.2" height="5"/>
	</g>
	<g>
		<rect x="10" y="1524.5" transform="matrix(0.7071 -0.7071 0.7071 0.7071 -624.2554 1546.8387)" width="3090.2" height="5"/>
	</g>
	<g>
		<rect x="25.1" y="1539.6" transform="matrix(0.7071 -0.7071 0.7071 0.7071 -630.5117 1561.9519)" width="3090.2" height="5"/>
	</g>
	<g>
		<rect x="40.1" y="1554.6" transform="matrix(0.7071 -0.7071 0.7071 0.7071 -636.7384 1576.931)" width="3090.2" height="5"/>
	</g>
	<g>
		<rect x="55.1" y="1569.6" transform="matrix(0.7071 -0.7071 0.7071 0.7071 -642.9454 1591.9343)" width="3090.2" height="5"/>
	</g>
	<g>
		<rect x="70.1" y="1584.6" transform="matrix(0.7071 -0.7071 0.7071 0.7071 -649.1487 1606.9377)" width="3090.2" height="5"/>
	</g>
	<g>
		<rect x="85.2" y="1599.7" transform="matrix(0.7071 -0.7071 0.7071 0.7071 -655.4089 1622.0509)" width="3090.2" height="5"/>
	</g>
	<g>
		<rect x="100.2" y="1614.7" transform="matrix(0.7071 -0.7071 0.7071 0.7071 -661.6353 1637.0302)" width="3090.2" height="5"/>
	</g>
	<g>
		<rect x="115.2" y="1629.7" transform="matrix(0.7071 -0.7071 0.7071 0.7071 -667.8401 1652.0334)" width="3090.2" height="5"/>
	</g>
	<g>
		<rect x="130.2" y="1644.7" transform="matrix(0.7071 -0.7071 0.7071 0.7071 -674.0447 1667.0367)" width="3090.2" height="5"/>
	</g>
	<g>
		<rect x="145.3" y="1659.8" transform="matrix(0.7071 -0.7071 0.7071 0.7071 -680.298 1682.1503)" width="3090.2" height="5"/>
	</g>
	<g>
		<rect x="160.3" y="1674.8" transform="matrix(0.7071 -0.7071 0.7071 0.7071 -686.5299 1697.1294)" width="3090.2" height="5"/>
	</g>
	<g>
		<rect x="175.3" y="1689.8" transform="matrix(0.7071 -0.7071 0.7071 0.7071 -692.7347 1712.1328)" width="3090.2" height="5"/>
	</g>
	<g>
		<rect x="190.3" y="1704.8" transform="matrix(0.7071 -0.7071 0.7071 0.7071 -698.9395 1727.1361)" width="3090.2" height="5"/>
	</g>
	<g>
		<rect x="205.4" y="1719.9" transform="matrix(0.7071 -0.7071 0.7071 0.7071 -705.1957 1742.2495)" width="3090.2" height="5"/>
	</g>
	<g>
		<rect x="220.4" y="1734.9" transform="matrix(0.7071 -0.7071 0.7071 0.7071 -711.4247 1757.2285)" width="3090.2" height="5"/>
	</g>
	<g>
		<rect x="235.4" y="1749.9" transform="matrix(0.7071 -0.7071 0.7071 0.7071 -717.6295 1772.2319)" width="3090.2" height="5"/>
	</g>
	<g>
		<rect x="250.4" y="1764.9" transform="matrix(0.7071 -0.7071 0.7071 0.7071 -723.8341 1787.2354)" width="3090.2" height="5"/>
	</g>
	<g>
		<rect x="265.5" y="1780" transform="matrix(0.7071 -0.7071 0.7071 0.7071 -730.0903 1802.3485)" width="3090.2" height="5"/>
	</g>
	<g>
		<rect x="280.5" y="1795" transform="matrix(0.7071 -0.7071 0.7071 0.7071 -736.3192 1817.3276)" width="3090.2" height="5"/>
	</g>
	<g>
		<rect x="295.5" y="1810" transform="matrix(0.7071 -0.7071 0.7071 0.7071 -742.5239 1832.3311)" width="3090.2" height="5"/>
	</g>
	<g>
		<rect x="310.5" y="1825" transform="matrix(0.7071 -0.7071 0.7071 0.7071 -748.7289 1847.3344)" width="3090.2" height="5"/>
	</g>
	<g>
		<rect x="325.6" y="1840.1" transform="matrix(0.7071 -0.7071 0.7071 0.7071 -754.9847 1862.4479)" width="3090.2" height="5"/>
	</g>
</g>
</svg>
