<?xml version="1.0" encoding="utf-8"?>
<!-- Generator: Adobe Illustrator 26.0.2, SVG Export Plug-In . SVG Version: 6.00 Build 0)  -->
<svg version="1.1" id="_x2014_ÎÓÈ_x5F_1" xmlns="http://www.w3.org/2000/svg" xmlns:xlink="http://www.w3.org/1999/xlink"
	 x="0px" y="0px" viewBox="0 0 1794 1794" style="enable-background:new 0 0 1794 1794;" xml:space="preserve">
<style type="text/css">
	.st0{fill:#E0877A;}
	.st1{fill:#F3F0DB;}
</style>
<rect x="-37.2" y="-39.9" class="st0" width="1861.2" height="1861.2"/>
<g>
	
		<rect x="-2088" y="-8.9" transform="matrix(0.7071 -0.7071 0.7071 0.7071 -16.2537 -53.0792)" class="st1" width="4031.6" height="3.9"/>
	
		<rect x="-2103.5" y="-24.3" transform="matrix(0.7071 -0.7071 0.7071 0.7071 -9.9162 -68.5688)" class="st1" width="4031.6" height="3.9"/>
	
		<rect x="-2119" y="-39.6" transform="matrix(0.7071 -0.7071 0.7071 0.7071 -3.5786 -84.0131)" class="st1" width="4031.6" height="3.9"/>
	
		<rect x="-2134.3" y="-55.1" transform="matrix(0.7071 -0.7071 0.7071 0.7071 2.8912 -99.3307)" class="st1" width="4031.6" height="3.9"/>
	
		<rect x="-2149.6" y="-70.4" transform="matrix(0.7071 -0.7071 0.7071 0.7071 9.2136 -114.689)" class="st1" width="4031.6" height="3.9"/>
	
		<rect x="-2165" y="-85.8" transform="matrix(0.7071 -0.7071 0.7071 0.7071 15.6059 -130.1107)" class="st1" width="4031.6" height="3.9"/>
	
		<rect x="-2180.5" y="-101.2" transform="matrix(0.7071 -0.7071 0.7071 0.7071 21.9092 -145.5409)" class="st1" width="4031.6" height="3.9"/>
	
		<rect x="-2195.8" y="-116.6" transform="matrix(0.7071 -0.7071 0.7071 0.7071 28.3753 -160.8225)" class="st1" width="4031.6" height="3.9"/>
	
		<rect x="-2211.2" y="-131.9" transform="matrix(0.7071 -0.7071 0.7071 0.7071 34.6902 -176.2574)" class="st1" width="4031.6" height="3.9"/>
	
		<rect x="-2226.7" y="-147.3" transform="matrix(0.7071 -0.7071 0.7071 0.7071 41.0278 -191.7018)" class="st1" width="4031.6" height="3.9"/>
	
		<rect x="-2242" y="-162.8" transform="matrix(0.7071 -0.7071 0.7071 0.7071 47.5225 -207.074)" class="st1" width="4031.6" height="3.9"/>
	
		<rect x="-2257.4" y="-178.1" transform="matrix(0.7071 -0.7071 0.7071 0.7071 53.8309 -222.4277)" class="st1" width="4031.6" height="3.9"/>
	
		<rect x="-2272.8" y="-193.6" transform="matrix(0.7071 -0.7071 0.7071 0.7071 60.2329 -237.8545)" class="st1" width="4031.6" height="3.9"/>
	
		<rect x="-2288.2" y="-209" transform="matrix(0.7071 -0.7071 0.7071 0.7071 66.6632 -253.2719)" class="st1" width="4031.6" height="3.9"/>
	
		<rect x="-2303.5" y="-224.3" transform="matrix(0.7071 -0.7071 0.7071 0.7071 73.0044 -268.566)" class="st1" width="4031.6" height="3.9"/>
	
		<rect x="-2319" y="-239.7" transform="matrix(0.7071 -0.7071 0.7071 0.7071 79.3196 -284.0008)" class="st1" width="4031.6" height="3.9"/>
	
		<rect x="-2334.4" y="-255.1" transform="matrix(0.7071 -0.7071 0.7071 0.7071 85.6565 -299.4453)" class="st1" width="4031.6" height="3.9"/>
	
		<rect x="-2349.8" y="-270.6" transform="matrix(0.7071 -0.7071 0.7071 0.7071 92.1493 -314.8175)" class="st1" width="4031.6" height="3.9"/>
	
		<rect x="-2365.1" y="-285.9" transform="matrix(0.7071 -0.7071 0.7071 0.7071 98.4603 -330.1711)" class="st1" width="4031.6" height="3.9"/>
	
		<rect x="-2380.6" y="-301.2" transform="matrix(0.7071 -0.7071 0.7071 0.7071 104.7752 -345.6061)" class="st1" width="4031.6" height="3.9"/>
	
		<rect x="-2395.9" y="-316.8" transform="matrix(0.7071 -0.7071 0.7071 0.7071 111.2927 -361.0151)" class="st1" width="4031.6" height="3.9"/>
	
		<rect x="-2411.3" y="-332" transform="matrix(0.7071 -0.7071 0.7071 0.7071 117.5824 -376.3579)" class="st1" width="4031.6" height="3.9"/>
	
		<rect x="-2426.7" y="-347.4" transform="matrix(0.7071 -0.7071 0.7071 0.7071 123.9484 -391.7443)" class="st1" width="4031.6" height="3.9"/>
	
		<rect x="-2442.2" y="-362.8" transform="matrix(0.7071 -0.7071 0.7071 0.7071 130.2859 -407.1887)" class="st1" width="4031.6" height="3.9"/>
	
		<rect x="-2457.5" y="-378.3" transform="matrix(0.7071 -0.7071 0.7071 0.7071 136.7784 -422.561)" class="st1" width="4031.6" height="3.9"/>
	
		<rect x="-2472.9" y="-393.6" transform="matrix(0.7071 -0.7071 0.7071 0.7071 143.0897 -437.9141)" class="st1" width="4031.6" height="3.9"/>
	
		<rect x="-2488.4" y="-409" transform="matrix(0.7071 -0.7071 0.7071 0.7071 149.4043 -453.3495)" class="st1" width="4031.6" height="3.9"/>
	
		<rect x="-2503.7" y="-424.5" transform="matrix(0.7071 -0.7071 0.7071 0.7071 155.8968 -468.7219)" class="st1" width="4031.6" height="3.9"/>
	
		<rect x="-2519" y="-439.8" transform="matrix(0.7071 -0.7071 0.7071 0.7071 162.2191 -484.0802)" class="st1" width="4031.6" height="3.9"/>
	
		<rect x="-2534.4" y="-455.2" transform="matrix(0.7071 -0.7071 0.7071 0.7071 168.6114 -499.5018)" class="st1" width="4031.6" height="3.9"/>
	
		<rect x="-2549.9" y="-470.5" transform="matrix(0.7071 -0.7071 0.7071 0.7071 174.9151 -514.932)" class="st1" width="4031.6" height="3.9"/>
	
		<rect x="-2565.1" y="-486" transform="matrix(0.7071 -0.7071 0.7071 0.7071 181.381 -530.2137)" class="st1" width="4031.6" height="3.9"/>
	
		<rect x="-1595" y="484.3" transform="matrix(0.7071 -0.7071 0.7071 0.7071 -220.5661 439.9615)" class="st1" width="4031.6" height="3.9"/>
	
		<rect x="-1610.3" y="468.9" transform="matrix(0.7071 -0.7071 0.7071 0.7071 -214.1871 424.6174)" class="st1" width="4031.6" height="3.9"/>
	
		<rect x="-1625.8" y="453.5" transform="matrix(0.7071 -0.7071 0.7071 0.7071 -207.8495 409.173)" class="st1" width="4031.6" height="3.9"/>
	
		<rect x="-1641.2" y="438" transform="matrix(0.7071 -0.7071 0.7071 0.7071 -201.3665 393.778)" class="st1" width="4031.6" height="3.9"/>
	
		<rect x="-1656.5" y="422.7" transform="matrix(0.7071 -0.7071 0.7071 0.7071 -195.044 378.4196)" class="st1" width="4031.6" height="3.9"/>
	
		<rect x="-1671.9" y="407.3" transform="matrix(0.7071 -0.7071 0.7071 0.7071 -188.6517 362.998)" class="st1" width="4031.6" height="3.9"/>
	
		<rect x="-1687.4" y="392" transform="matrix(0.7071 -0.7071 0.7071 0.7071 -182.339 347.5904)" class="st1" width="4031.6" height="3.9"/>
	
		<rect x="-1702.8" y="376.5" transform="matrix(0.7071 -0.7071 0.7071 0.7071 -175.937 332.218)" class="st1" width="4031.6" height="3.9"/>
	
		<rect x="-1718.1" y="361.2" transform="matrix(0.7071 -0.7071 0.7071 0.7071 -169.558 316.8739)" class="st1" width="4031.6" height="3.9"/>
	
		<rect x="-1733.6" y="345.8" transform="matrix(0.7071 -0.7071 0.7071 0.7071 -163.2204 301.4296)" class="st1" width="4031.6" height="3.9"/>
	
		<rect x="-1748.9" y="330.4" transform="matrix(0.7071 -0.7071 0.7071 0.7071 -156.8031 286.044)" class="st1" width="4031.6" height="3.9"/>
	
		<rect x="-1764.3" y="315" transform="matrix(0.7071 -0.7071 0.7071 0.7071 -150.4267 270.6355)" class="st1" width="4031.6" height="3.9"/>
	
		<rect x="-1779.7" y="299.5" transform="matrix(0.7071 -0.7071 0.7071 0.7071 -144.0248 255.2542)" class="st1" width="4031.6" height="3.9"/>
	
		<rect x="-1795" y="284.1" transform="matrix(0.7071 -0.7071 0.7071 0.7071 -137.6076 239.8688)" class="st1" width="4031.6" height="3.9"/>
	
		<rect x="-1810.5" y="268.8" transform="matrix(0.7071 -0.7071 0.7071 0.7071 -131.3079 224.4746)" class="st1" width="4031.6" height="3.9"/>
	
		<rect x="-1825.8" y="253.4" transform="matrix(0.7071 -0.7071 0.7071 0.7071 -124.9286 209.1305)" class="st1" width="4031.6" height="3.9"/>
	
		<rect x="-1841.3" y="238.1" transform="matrix(0.7071 -0.7071 0.7071 0.7071 -118.5917 193.686)" class="st1" width="4031.6" height="3.9"/>
	
		<rect x="-1856.6" y="222.6" transform="matrix(0.7071 -0.7071 0.7071 0.7071 -112.1216 178.3686)" class="st1" width="4031.6" height="3.9"/>
	
		<rect x="-1872" y="207.3" transform="matrix(0.7071 -0.7071 0.7071 0.7071 -105.8106 162.9696)" class="st1" width="4031.6" height="3.9"/>
	
		<rect x="-1887.4" y="191.8" transform="matrix(0.7071 -0.7071 0.7071 0.7071 -99.4183 147.5479)" class="st1" width="4031.6" height="3.9"/>
	
		<rect x="-1902.8" y="176.4" transform="matrix(0.7071 -0.7071 0.7071 0.7071 -92.9782 132.1257)" class="st1" width="4031.6" height="3.9"/>
	
		<rect x="-1918.2" y="161.1" transform="matrix(0.7071 -0.7071 0.7071 0.7071 -86.6658 116.7734)" class="st1" width="4031.6" height="3.9"/>
	
		<rect x="-1933.6" y="145.7" transform="matrix(0.7071 -0.7071 0.7071 0.7071 -80.2999 101.387)" class="st1" width="4031.6" height="3.9"/>
	
		<rect x="-1949.1" y="130.3" transform="matrix(0.7071 -0.7071 0.7071 0.7071 -73.9622 85.9426)" class="st1" width="4031.6" height="3.9"/>
	
		<rect x="-1964.3" y="114.8" transform="matrix(0.7071 -0.7071 0.7071 0.7071 -67.4925 70.6251)" class="st1" width="4031.6" height="3.9"/>
	
		<rect x="-1979.7" y="99.5" transform="matrix(0.7071 -0.7071 0.7071 0.7071 -61.1812 55.2266)" class="st1" width="4031.6" height="3.9"/>
	
		<rect x="-1995.2" y="84.1" transform="matrix(0.7071 -0.7071 0.7071 0.7071 -54.7891 39.8045)" class="st1" width="4031.6" height="3.9"/>
	
		<rect x="-2010.6" y="68.6" transform="matrix(0.7071 -0.7071 0.7071 0.7071 -48.3609 24.3868)" class="st1" width="4031.6" height="3.9"/>
	
		<rect x="-2025.9" y="53.3" transform="matrix(0.7071 -0.7071 0.7071 0.7071 -42.0384 9.0285)" class="st1" width="4031.6" height="3.9"/>
	
		<rect x="-2041.3" y="37.9" transform="matrix(0.7071 -0.7071 0.7071 0.7071 -35.6462 -6.3932)" class="st1" width="4031.6" height="3.9"/>
	
		<rect x="-2056.8" y="22.6" transform="matrix(0.7071 -0.7071 0.7071 0.7071 -29.3331 -21.8008)" class="st1" width="4031.6" height="3.9"/>
	
		<rect x="-2072.2" y="7.2" transform="matrix(0.7071 -0.7071 0.7071 0.7071 -22.9314 -37.1731)" class="st1" width="4031.6" height="3.9"/>
	
		<rect x="-1101.8" y="977.5" transform="matrix(0.7071 -0.7071 0.7071 0.7071 -424.837 933.1476)" class="st1" width="4031.6" height="3.9"/>
	
		<rect x="-1117.2" y="962" transform="matrix(0.7071 -0.7071 0.7071 0.7071 -418.4447 917.726)" class="st1" width="4031.6" height="3.9"/>
	
		<rect x="-1132.7" y="946.6" transform="matrix(0.7071 -0.7071 0.7071 0.7071 -412.0523 902.3043)" class="st1" width="4031.6" height="3.9"/>
	
		<rect x="-1148.1" y="931.2" transform="matrix(0.7071 -0.7071 0.7071 0.7071 -405.6921 886.896)" class="st1" width="4031.6" height="3.9"/>
	
		<rect x="-1163.3" y="915.9" transform="matrix(0.7071 -0.7071 0.7071 0.7071 -399.3149 871.6057)" class="st1" width="4031.6" height="3.9"/>
	
		<rect x="-1178.8" y="900.5" transform="matrix(0.7071 -0.7071 0.7071 0.7071 -392.9774 856.116)" class="st1" width="4031.6" height="3.9"/>
	
		<rect x="-1194.3" y="885.1" transform="matrix(0.7071 -0.7071 0.7071 0.7071 -386.6098 840.7311)" class="st1" width="4031.6" height="3.9"/>
	
		<rect x="-1209.6" y="869.7" transform="matrix(0.7071 -0.7071 0.7071 0.7071 -380.2079 825.4041)" class="st1" width="4031.6" height="3.9"/>
	
		<rect x="-1225" y="854.3" transform="matrix(0.7071 -0.7071 0.7071 0.7071 -373.8156 809.9825)" class="st1" width="4031.6" height="3.9"/>
	
		<rect x="-1240.4" y="838.9" transform="matrix(0.7071 -0.7071 0.7071 0.7071 -367.4233 794.561)" class="st1" width="4031.6" height="3.9"/>
	
		<rect x="-1255.8" y="823.5" transform="matrix(0.7071 -0.7071 0.7071 0.7071 -361.0607 779.1527)" class="st1" width="4031.6" height="3.9"/>
	
		<rect x="-1271.1" y="808.1" transform="matrix(0.7071 -0.7071 0.7071 0.7071 -354.6976 763.8217)" class="st1" width="4031.6" height="3.9"/>
	
		<rect x="-1286.5" y="792.8" transform="matrix(0.7071 -0.7071 0.7071 0.7071 -348.3731 748.4269)" class="st1" width="4031.6" height="3.9"/>
	
		<rect x="-1301.8" y="777.3" transform="matrix(0.7071 -0.7071 0.7071 0.7071 -341.8785 733.0549)" class="st1" width="4031.6" height="3.9"/>
	
		<rect x="-1317.3" y="762" transform="matrix(0.7071 -0.7071 0.7071 0.7071 -335.5788 717.6606)" class="st1" width="4031.6" height="3.9"/>
	
		<rect x="-1332.7" y="746.5" transform="matrix(0.7071 -0.7071 0.7071 0.7071 -329.1862 702.2392)" class="st1" width="4031.6" height="3.9"/>
	
		<rect x="-1348.1" y="731.2" transform="matrix(0.7071 -0.7071 0.7071 0.7071 -322.8078 686.8948)" class="st1" width="4031.6" height="3.9"/>
	
		<rect x="-1363.6" y="715.7" transform="matrix(0.7071 -0.7071 0.7071 0.7071 -316.4339 671.4092)" class="st1" width="4031.6" height="3.9"/>
	
		<rect x="-1378.9" y="700.4" transform="matrix(0.7071 -0.7071 0.7071 0.7071 -310.0681 656.0782)" class="st1" width="4031.6" height="3.9"/>
	
		<rect x="-1394.3" y="685" transform="matrix(0.7071 -0.7071 0.7071 0.7071 -303.6758 640.6566)" class="st1" width="4031.6" height="3.9"/>
	
		<rect x="-1409.6" y="669.5" transform="matrix(0.7071 -0.7071 0.7071 0.7071 -297.2491 625.3118)" class="st1" width="4031.6" height="3.9"/>
	
		<rect x="-1424.9" y="654.2" transform="matrix(0.7071 -0.7071 0.7071 0.7071 -290.882 609.9822)" class="st1" width="4031.6" height="3.9"/>
	
		<rect x="-1440.5" y="638.8" transform="matrix(0.7071 -0.7071 0.7071 0.7071 -284.5574 594.4957)" class="st1" width="4031.6" height="3.9"/>
	
		<rect x="-1455.8" y="623.4" transform="matrix(0.7071 -0.7071 0.7071 0.7071 -278.1783 579.1514)" class="st1" width="4031.6" height="3.9"/>
	
		<rect x="-1471.3" y="608" transform="matrix(0.7071 -0.7071 0.7071 0.7071 -271.8048 563.6656)" class="st1" width="4031.6" height="3.9"/>
	
		<rect x="-1486.6" y="592.6" transform="matrix(0.7071 -0.7071 0.7071 0.7071 -265.4388 548.3353)" class="st1" width="4031.6" height="3.9"/>
	
		<rect x="-1502.1" y="577.2" transform="matrix(0.7071 -0.7071 0.7071 0.7071 -259.0467 532.9131)" class="st1" width="4031.6" height="3.9"/>
	
		<rect x="-1517.5" y="561.8" transform="matrix(0.7071 -0.7071 0.7071 0.7071 -252.6865 517.5049)" class="st1" width="4031.6" height="3.9"/>
	
		<rect x="-1532.6" y="546.4" transform="matrix(0.7071 -0.7071 0.7071 0.7071 -246.2546 502.2372)" class="st1" width="4031.6" height="3.9"/>
	
		<rect x="-1548.2" y="531" transform="matrix(0.7071 -0.7071 0.7071 0.7071 -239.917 486.7475)" class="st1" width="4031.6" height="3.9"/>
	
		<rect x="-1563.5" y="515.7" transform="matrix(0.7071 -0.7071 0.7071 0.7071 -233.5493 471.408)" class="st1" width="4031.6" height="3.9"/>
	
		<rect x="-1579" y="500.3" transform="matrix(0.7071 -0.7071 0.7071 0.7071 -227.2023 456.0129)" class="st1" width="4031.6" height="3.9"/>
	<g>
		
			<rect x="-611" y="1468.1" transform="matrix(0.7071 -0.7071 0.7071 0.7071 -628.0471 1423.9207)" class="st1" width="4031.6" height="3.9"/>
		
			<rect x="-626.5" y="1452.7" transform="matrix(0.7071 -0.7071 0.7071 0.7071 -621.7096 1408.431)" class="st1" width="4031.6" height="3.9"/>
		
			<rect x="-642" y="1437.4" transform="matrix(0.7071 -0.7071 0.7071 0.7071 -615.3719 1392.9867)" class="st1" width="4031.6" height="3.9"/>
		
			<rect x="-657.3" y="1421.9" transform="matrix(0.7071 -0.7071 0.7071 0.7071 -608.9022 1377.6692)" class="st1" width="4031.6" height="3.9"/>
		
			<rect x="-672.6" y="1406.6" transform="matrix(0.7071 -0.7071 0.7071 0.7071 -602.5798 1362.3108)" class="st1" width="4031.6" height="3.9"/>
		
			<rect x="-688" y="1391.2" transform="matrix(0.7071 -0.7071 0.7071 0.7071 -596.1875 1346.8892)" class="st1" width="4031.6" height="3.9"/>
		
			<rect x="-703.5" y="1375.8" transform="matrix(0.7071 -0.7071 0.7071 0.7071 -589.8842 1331.459)" class="st1" width="4031.6" height="3.9"/>
		
			<rect x="-718.8" y="1360.4" transform="matrix(0.7071 -0.7071 0.7071 0.7071 -583.418 1316.1774)" class="st1" width="4031.6" height="3.9"/>
		
			<rect x="-734.2" y="1345.1" transform="matrix(0.7071 -0.7071 0.7071 0.7071 -577.1031 1300.7424)" class="st1" width="4031.6" height="3.9"/>
		
			<rect x="-749.7" y="1329.7" transform="matrix(0.7071 -0.7071 0.7071 0.7071 -570.7656 1285.2981)" class="st1" width="4031.6" height="3.9"/>
		
			<rect x="-765" y="1314.2" transform="matrix(0.7071 -0.7071 0.7071 0.7071 -564.2708 1269.9258)" class="st1" width="4031.6" height="3.9"/>
		
			<rect x="-780.4" y="1298.9" transform="matrix(0.7071 -0.7071 0.7071 0.7071 -557.9625 1254.5721)" class="st1" width="4031.6" height="3.9"/>
		
			<rect x="-795.8" y="1283.4" transform="matrix(0.7071 -0.7071 0.7071 0.7071 -551.5605 1239.1454)" class="st1" width="4031.6" height="3.9"/>
		
			<rect x="-811.2" y="1268" transform="matrix(0.7071 -0.7071 0.7071 0.7071 -545.1301 1223.728)" class="st1" width="4031.6" height="3.9"/>
		
			<rect x="-826.5" y="1252.7" transform="matrix(0.7071 -0.7071 0.7071 0.7071 -538.7889 1208.4337)" class="st1" width="4031.6" height="3.9"/>
		
			<rect x="-842" y="1237.3" transform="matrix(0.7071 -0.7071 0.7071 0.7071 -532.4738 1192.999)" class="st1" width="4031.6" height="3.9"/>
		
			<rect x="-857.4" y="1221.9" transform="matrix(0.7071 -0.7071 0.7071 0.7071 -526.1368 1177.5546)" class="st1" width="4031.6" height="3.9"/>
		
			<rect x="-872.8" y="1206.4" transform="matrix(0.7071 -0.7071 0.7071 0.7071 -519.644 1162.1824)" class="st1" width="4031.6" height="3.9"/>
		
			<rect x="-888.1" y="1191.1" transform="matrix(0.7071 -0.7071 0.7071 0.7071 -513.3331 1146.8287)" class="st1" width="4031.6" height="3.9"/>
		
			<rect x="-903.6" y="1175.8" transform="matrix(0.7071 -0.7071 0.7071 0.7071 -507.0182 1131.3938)" class="st1" width="4031.6" height="3.9"/>
		
			<rect x="-918.9" y="1160.2" transform="matrix(0.7071 -0.7071 0.7071 0.7071 -500.5007 1115.9847)" class="st1" width="4031.6" height="3.9"/>
		
			<rect x="-934.3" y="1144.9" transform="matrix(0.7071 -0.7071 0.7071 0.7071 -494.211 1100.6418)" class="st1" width="4031.6" height="3.9"/>
		
			<rect x="-949.7" y="1129.6" transform="matrix(0.7071 -0.7071 0.7071 0.7071 -487.845 1085.2555)" class="st1" width="4031.6" height="3.9"/>
		
			<rect x="-965.2" y="1114.2" transform="matrix(0.7071 -0.7071 0.7071 0.7071 -481.5074 1069.8112)" class="st1" width="4031.6" height="3.9"/>
		
			<rect x="-980.5" y="1098.7" transform="matrix(0.7071 -0.7071 0.7071 0.7071 -475.015 1054.4388)" class="st1" width="4031.6" height="3.9"/>
		
			<rect x="-995.9" y="1083.4" transform="matrix(0.7071 -0.7071 0.7071 0.7071 -468.7036 1039.0857)" class="st1" width="4031.6" height="3.9"/>
		
			<rect x="-1011.4" y="1068" transform="matrix(0.7071 -0.7071 0.7071 0.7071 -462.389 1023.6504)" class="st1" width="4031.6" height="3.9"/>
		
			<rect x="-1026.7" y="1052.5" transform="matrix(0.7071 -0.7071 0.7071 0.7071 -455.8966 1008.278)" class="st1" width="4031.6" height="3.9"/>
		
			<rect x="-1042" y="1037.2" transform="matrix(0.7071 -0.7071 0.7071 0.7071 -449.5742 992.9196)" class="st1" width="4031.6" height="3.9"/>
		
			<rect x="-1057.4" y="1021.8" transform="matrix(0.7071 -0.7071 0.7071 0.7071 -443.1819 977.498)" class="st1" width="4031.6" height="3.9"/>
		
			<rect x="-1072.9" y="1006.5" transform="matrix(0.7071 -0.7071 0.7071 0.7071 -436.8783 962.0678)" class="st1" width="4031.6" height="3.9"/>
		
			<rect x="-1088.1" y="991" transform="matrix(0.7071 -0.7071 0.7071 0.7071 -430.4124 946.7861)" class="st1" width="4031.6" height="3.9"/>
		
			<rect x="-118" y="1961.3" transform="matrix(0.7071 -0.7071 0.7071 0.7071 -832.3594 1916.9613)" class="st1" width="4031.6" height="3.9"/>
		
			<rect x="-133.3" y="1945.9" transform="matrix(0.7071 -0.7071 0.7071 0.7071 -825.9805 1901.6172)" class="st1" width="4031.6" height="3.9"/>
		
			<rect x="-148.8" y="1930.5" transform="matrix(0.7071 -0.7071 0.7071 0.7071 -819.6428 1886.1729)" class="st1" width="4031.6" height="3.9"/>
		
			<rect x="-164.2" y="1915" transform="matrix(0.7071 -0.7071 0.7071 0.7071 -813.1599 1870.7778)" class="st1" width="4031.6" height="3.9"/>
		
			<rect x="-179.5" y="1899.7" transform="matrix(0.7071 -0.7071 0.7071 0.7071 -806.8373 1855.4194)" class="st1" width="4031.6" height="3.9"/>
		
			<rect x="-194.9" y="1884.3" transform="matrix(0.7071 -0.7071 0.7071 0.7071 -800.4451 1839.9978)" class="st1" width="4031.6" height="3.9"/>
		
			<rect x="-210.4" y="1869" transform="matrix(0.7071 -0.7071 0.7071 0.7071 -794.1323 1824.5902)" class="st1" width="4031.6" height="3.9"/>
		
			<rect x="-225.8" y="1853.5" transform="matrix(0.7071 -0.7071 0.7071 0.7071 -787.7304 1809.2178)" class="st1" width="4031.6" height="3.9"/>
		
			<rect x="-241.1" y="1838.2" transform="matrix(0.7071 -0.7071 0.7071 0.7071 -781.3514 1793.8738)" class="st1" width="4031.6" height="3.9"/>
		
			<rect x="-256.6" y="1822.8" transform="matrix(0.7071 -0.7071 0.7071 0.7071 -775.0138 1778.4294)" class="st1" width="4031.6" height="3.9"/>
		
			<rect x="-271.9" y="1807.4" transform="matrix(0.7071 -0.7071 0.7071 0.7071 -768.5965 1763.0438)" class="st1" width="4031.6" height="3.9"/>
		
			<rect x="-287.3" y="1792" transform="matrix(0.7071 -0.7071 0.7071 0.7071 -762.22 1747.6354)" class="st1" width="4031.6" height="3.9"/>
		
			<rect x="-302.7" y="1776.5" transform="matrix(0.7071 -0.7071 0.7071 0.7071 -755.8181 1732.254)" class="st1" width="4031.6" height="3.9"/>
		
			<rect x="-318" y="1761.1" transform="matrix(0.7071 -0.7071 0.7071 0.7071 -749.401 1716.8687)" class="st1" width="4031.6" height="3.9"/>
		
			<rect x="-333.5" y="1745.8" transform="matrix(0.7071 -0.7071 0.7071 0.7071 -743.1013 1701.4744)" class="st1" width="4031.6" height="3.9"/>
		
			<rect x="-348.8" y="1730.4" transform="matrix(0.7071 -0.7071 0.7071 0.7071 -736.722 1686.1304)" class="st1" width="4031.6" height="3.9"/>
		
			<rect x="-364.3" y="1715.1" transform="matrix(0.7071 -0.7071 0.7071 0.7071 -730.3851 1670.6859)" class="st1" width="4031.6" height="3.9"/>
		
			<rect x="-379.6" y="1699.6" transform="matrix(0.7071 -0.7071 0.7071 0.7071 -723.915 1655.3684)" class="st1" width="4031.6" height="3.9"/>
		
			<rect x="-395" y="1684.3" transform="matrix(0.7071 -0.7071 0.7071 0.7071 -717.6039 1639.9694)" class="st1" width="4031.6" height="3.9"/>
		
			<rect x="-410.4" y="1668.8" transform="matrix(0.7071 -0.7071 0.7071 0.7071 -711.2117 1624.5477)" class="st1" width="4031.6" height="3.9"/>
		
			<rect x="-425.8" y="1653.4" transform="matrix(0.7071 -0.7071 0.7071 0.7071 -704.7715 1609.1255)" class="st1" width="4031.6" height="3.9"/>
		
			<rect x="-441.2" y="1638.1" transform="matrix(0.7071 -0.7071 0.7071 0.7071 -698.4592 1593.7732)" class="st1" width="4031.6" height="3.9"/>
		
			<rect x="-456.6" y="1622.7" transform="matrix(0.7071 -0.7071 0.7071 0.7071 -692.0932 1578.3868)" class="st1" width="4031.6" height="3.9"/>
		
			<rect x="-472.1" y="1607.3" transform="matrix(0.7071 -0.7071 0.7071 0.7071 -685.7556 1562.9425)" class="st1" width="4031.6" height="3.9"/>
		
			<rect x="-487.3" y="1591.8" transform="matrix(0.7071 -0.7071 0.7071 0.7071 -679.2858 1547.625)" class="st1" width="4031.6" height="3.9"/>
		
			<rect x="-502.7" y="1576.5" transform="matrix(0.7071 -0.7071 0.7071 0.7071 -672.9745 1532.2264)" class="st1" width="4031.6" height="3.9"/>
		
			<rect x="-518.2" y="1561.1" transform="matrix(0.7071 -0.7071 0.7071 0.7071 -666.5825 1516.8043)" class="st1" width="4031.6" height="3.9"/>
		
			<rect x="-533.6" y="1545.6" transform="matrix(0.7071 -0.7071 0.7071 0.7071 -660.1543 1501.3866)" class="st1" width="4031.6" height="3.9"/>
		
			<rect x="-548.9" y="1530.3" transform="matrix(0.7071 -0.7071 0.7071 0.7071 -653.8318 1486.0283)" class="st1" width="4031.6" height="3.9"/>
		
			<rect x="-564.3" y="1514.9" transform="matrix(0.7071 -0.7071 0.7071 0.7071 -647.4395 1470.6067)" class="st1" width="4031.6" height="3.9"/>
		
			<rect x="-579.8" y="1499.6" transform="matrix(0.7071 -0.7071 0.7071 0.7071 -641.1265 1455.1991)" class="st1" width="4031.6" height="3.9"/>
		
			<rect x="-595.2" y="1484.2" transform="matrix(0.7071 -0.7071 0.7071 0.7071 -634.7248 1439.8267)" class="st1" width="4031.6" height="3.9"/>
		
			<rect x="375.2" y="2454.5" transform="matrix(0.7071 -0.7071 0.7071 0.7071 -1036.6304 2410.1475)" class="st1" width="4031.6" height="3.9"/>
		
			<rect x="359.8" y="2439" transform="matrix(0.7071 -0.7071 0.7071 0.7071 -1030.238 2394.7258)" class="st1" width="4031.6" height="3.9"/>
		
			<rect x="344.3" y="2423.6" transform="matrix(0.7071 -0.7071 0.7071 0.7071 -1023.8457 2379.3042)" class="st1" width="4031.6" height="3.9"/>
		
			<rect x="328.9" y="2408.2" transform="matrix(0.7071 -0.7071 0.7071 0.7071 -1017.4855 2363.8958)" class="st1" width="4031.6" height="3.9"/>
		
			<rect x="313.7" y="2392.9" transform="matrix(0.7071 -0.7071 0.7071 0.7071 -1011.1083 2348.6055)" class="st1" width="4031.6" height="3.9"/>
		
			<rect x="298.2" y="2377.5" transform="matrix(0.7071 -0.7071 0.7071 0.7071 -1004.7708 2333.1157)" class="st1" width="4031.6" height="3.9"/>
		
			<rect x="282.7" y="2362.1" transform="matrix(0.7071 -0.7071 0.7071 0.7071 -998.4032 2317.731)" class="st1" width="4031.6" height="3.9"/>
		
			<rect x="267.4" y="2346.7" transform="matrix(0.7071 -0.7071 0.7071 0.7071 -992.0013 2302.4041)" class="st1" width="4031.6" height="3.9"/>
		
			<rect x="252" y="2331.3" transform="matrix(0.7071 -0.7071 0.7071 0.7071 -985.609 2286.9824)" class="st1" width="4031.6" height="3.9"/>
		
			<rect x="236.6" y="2315.9" transform="matrix(0.7071 -0.7071 0.7071 0.7071 -979.2166 2271.5608)" class="st1" width="4031.6" height="3.9"/>
		
			<rect x="221.2" y="2300.5" transform="matrix(0.7071 -0.7071 0.7071 0.7071 -972.8541 2256.1526)" class="st1" width="4031.6" height="3.9"/>
		
			<rect x="205.9" y="2285.1" transform="matrix(0.7071 -0.7071 0.7071 0.7071 -966.491 2240.8215)" class="st1" width="4031.6" height="3.9"/>
		
			<rect x="190.5" y="2269.8" transform="matrix(0.7071 -0.7071 0.7071 0.7071 -960.1664 2225.4268)" class="st1" width="4031.6" height="3.9"/>
		
			<rect x="175.2" y="2254.3" transform="matrix(0.7071 -0.7071 0.7071 0.7071 -953.6719 2210.0547)" class="st1" width="4031.6" height="3.9"/>
		
			<rect x="159.7" y="2239" transform="matrix(0.7071 -0.7071 0.7071 0.7071 -947.3721 2194.6604)" class="st1" width="4031.6" height="3.9"/>
		
			<rect x="144.3" y="2223.5" transform="matrix(0.7071 -0.7071 0.7071 0.7071 -940.9796 2179.239)" class="st1" width="4031.6" height="3.9"/>
		
			<rect x="128.9" y="2208.2" transform="matrix(0.7071 -0.7071 0.7071 0.7071 -934.6011 2163.8945)" class="st1" width="4031.6" height="3.9"/>
		
			<rect x="113.4" y="2192.7" transform="matrix(0.7071 -0.7071 0.7071 0.7071 -928.2273 2148.4089)" class="st1" width="4031.6" height="3.9"/>
		
			<rect x="98.1" y="2177.4" transform="matrix(0.7071 -0.7071 0.7071 0.7071 -921.8615 2133.0779)" class="st1" width="4031.6" height="3.9"/>
		
			<rect x="82.7" y="2162" transform="matrix(0.7071 -0.7071 0.7071 0.7071 -915.4692 2117.6565)" class="st1" width="4031.6" height="3.9"/>
		
			<rect x="67.4" y="2146.5" transform="matrix(0.7071 -0.7071 0.7071 0.7071 -909.0425 2102.3115)" class="st1" width="4031.6" height="3.9"/>
		
			<rect x="52.1" y="2131.2" transform="matrix(0.7071 -0.7071 0.7071 0.7071 -902.6754 2086.9819)" class="st1" width="4031.6" height="3.9"/>
		
			<rect x="36.5" y="2115.8" transform="matrix(0.7071 -0.7071 0.7071 0.7071 -896.3508 2071.4956)" class="st1" width="4031.6" height="3.9"/>
		
			<rect x="21.2" y="2100.4" transform="matrix(0.7071 -0.7071 0.7071 0.7071 -889.9717 2056.1514)" class="st1" width="4031.6" height="3.9"/>
		
			<rect x="5.7" y="2085" transform="matrix(0.7071 -0.7071 0.7071 0.7071 -883.5982 2040.6654)" class="st1" width="4031.6" height="3.9"/>
		
			<rect x="-9.6" y="2069.6" transform="matrix(0.7071 -0.7071 0.7071 0.7071 -877.2321 2025.3351)" class="st1" width="4031.6" height="3.9"/>
		
			<rect x="-25.1" y="2054.2" transform="matrix(0.7071 -0.7071 0.7071 0.7071 -870.8401 2009.913)" class="st1" width="4031.6" height="3.9"/>
		
			<rect x="-40.5" y="2038.8" transform="matrix(0.7071 -0.7071 0.7071 0.7071 -864.4799 1994.5046)" class="st1" width="4031.6" height="3.9"/>
		
			<rect x="-55.6" y="2023.4" transform="matrix(0.7071 -0.7071 0.7071 0.7071 -858.0479 1979.2371)" class="st1" width="4031.6" height="3.9"/>
		
			<rect x="-71.2" y="2008" transform="matrix(0.7071 -0.7071 0.7071 0.7071 -851.7104 1963.7473)" class="st1" width="4031.6" height="3.9"/>
		
			<rect x="-86.5" y="1992.7" transform="matrix(0.7071 -0.7071 0.7071 0.7071 -845.3426 1948.4078)" class="st1" width="4031.6" height="3.9"/>
		
			<rect x="-102" y="1977.3" transform="matrix(0.7071 -0.7071 0.7071 0.7071 -838.9957 1933.0128)" class="st1" width="4031.6" height="3.9"/>
	</g>
</g>
</svg>
