<?xml version="1.0" encoding="utf-8"?>
<!-- Generator: Adobe Illustrator 26.0.2, SVG Export Plug-In . SVG Version: 6.00 Build 0)  -->
<svg version="1.1" id="_x2014_ÎÓÈ_x5F_1" xmlns="http://www.w3.org/2000/svg" xmlns:xlink="http://www.w3.org/1999/xlink"
	 x="0px" y="0px" viewBox="0 0 616 616" style="enable-background:new 0 0 616 616;" xml:space="preserve">
<style type="text/css">
	.st0{clip-path:url(#SVGID_00000024001359766089239410000002033790231533629601_);}
	.st1{clip-path:url(#SVGID_00000125583246686656754310000011973141104463190952_);}
	.st2{clip-path:url(#SVGID_00000060718597842919622610000017572008060743428749_);}
	.st3{clip-path:url(#SVGID_00000023959205195726682250000009056687145664055200_);}
	.st4{clip-path:url(#SVGID_00000054970101593774621500000007832414838553096075_);}
	.st5{clip-path:url(#SVGID_00000154397875760318358480000010796716722207791795_);}
	.st6{clip-path:url(#SVGID_00000147908935668244881050000013197981938431659909_);}
	.st7{clip-path:url(#SVGID_00000003797177432809360850000005288966498034634413_);}
	.st8{clip-path:url(#SVGID_00000168097042000408952370000007850746205830603942_);}
	.st9{clip-path:url(#SVGID_00000011018027401742894070000004496112732501186717_);}
	.st10{clip-path:url(#SVGID_00000008148484950730631870000016945521138193133725_);}
	.st11{clip-path:url(#SVGID_00000008150226090827230370000017074959775064606860_);}
	.st12{clip-path:url(#SVGID_00000126312436129969012890000001820374513592011682_);}
	.st13{clip-path:url(#SVGID_00000165217395013572860050000009258737429647667859_);}
	.st14{clip-path:url(#SVGID_00000017498575322367718250000010866202424965662098_);}
	.st15{clip-path:url(#SVGID_00000015320936780358525590000008473051215505235898_);}
	.st16{clip-path:url(#SVGID_00000169520605945904997280000000621129353308344252_);}
	.st17{clip-path:url(#SVGID_00000083071701014474648540000015724160961647852687_);}
</style>
<g>
	<defs>
		<rect id="SVGID_00000065055002882563568490000005075928177204543916_" width="616" height="616"/>
	</defs>
	<clipPath id="SVGID_00000162340660416788425340000016325405547976570256_">
		<use xlink:href="#SVGID_00000065055002882563568490000005075928177204543916_"  style="overflow:visible;"/>
	</clipPath>
	<g style="clip-path:url(#SVGID_00000162340660416788425340000016325405547976570256_);">
		<g>
			<rect x="-554.5" y="-2.7" transform="matrix(0.7071 -0.7071 0.7071 0.7071 0.25 0.1035)" width="1109.5" height="5"/>
		</g>
		<g>
			<rect x="-525.1" y="26.6" transform="matrix(0.7071 -0.7071 0.7071 0.7071 -11.9005 29.4367)" width="1109.5" height="5"/>
		</g>
		<g>
			<rect x="-495.8" y="55.9" transform="matrix(0.7071 -0.7071 0.7071 0.7071 -24.0503 58.7704)" width="1109.5" height="5"/>
		</g>
		<g>
			<rect x="-466.5" y="85.3" transform="matrix(0.7071 -0.7071 0.7071 0.7071 -36.2008 88.1036)" width="1109.5" height="5"/>
		</g>
		<g>
			<rect x="-437.1" y="114.6" transform="matrix(0.7071 -0.7071 0.7071 0.7071 -48.3513 117.4367)" width="1109.5" height="5"/>
		</g>
		<g>
			<rect x="-407.8" y="143.9" transform="matrix(0.7071 -0.7071 0.7071 0.7071 -60.5011 146.7704)" width="1109.5" height="5"/>
		</g>
		<g>
			<rect x="-378.5" y="173.3" transform="matrix(0.7071 -0.7071 0.7071 0.7071 -72.6516 176.1036)" width="1109.5" height="5"/>
		</g>
		<g>
			<rect x="-349.1" y="202.6" transform="matrix(0.7071 -0.7071 0.7071 0.7071 -84.8021 205.4367)" width="1109.5" height="5"/>
		</g>
		<g>
			<rect x="-319.8" y="231.9" transform="matrix(0.7071 -0.7071 0.7071 0.7071 -96.9519 234.7704)" width="1109.5" height="5"/>
		</g>
		<g>
			<rect x="-290.5" y="261.3" transform="matrix(0.7071 -0.7071 0.7071 0.7071 -109.1024 264.1035)" width="1109.5" height="5"/>
		</g>
		<g>
			<rect x="-261.1" y="290.6" transform="matrix(0.7071 -0.7071 0.7071 0.7071 -121.2529 293.4367)" width="1109.5" height="5"/>
		</g>
		<g>
			<rect x="-231.8" y="319.9" transform="matrix(0.7071 -0.7071 0.7071 0.7071 -133.4027 322.7704)" width="1109.5" height="5"/>
		</g>
		<g>
			<rect x="-202.5" y="349.3" transform="matrix(0.7071 -0.7071 0.7071 0.7071 -145.5532 352.1035)" width="1109.5" height="5"/>
		</g>
		<g>
			<rect x="-173.1" y="378.6" transform="matrix(0.7071 -0.7071 0.7071 0.7071 -157.7037 381.4367)" width="1109.5" height="5"/>
		</g>
		<g>
			<rect x="-143.8" y="407.9" transform="matrix(0.7071 -0.7071 0.7071 0.7071 -169.8535 410.7704)" width="1109.5" height="5"/>
		</g>
		<g>
			<rect x="-114.5" y="437.3" transform="matrix(0.7071 -0.7071 0.7071 0.7071 -182.004 440.1035)" width="1109.5" height="5"/>
		</g>
		<g>
			<rect x="-85.1" y="466.6" transform="matrix(0.7071 -0.7071 0.7071 0.7071 -194.1544 469.4367)" width="1109.5" height="5"/>
		</g>
		<g>
			<rect x="-55.8" y="495.9" transform="matrix(0.7071 -0.7071 0.7071 0.7071 -206.3043 498.7704)" width="1109.5" height="5"/>
		</g>
		<g>
			<rect x="-26.5" y="525.3" transform="matrix(0.7071 -0.7071 0.7071 0.7071 -218.4548 528.1036)" width="1109.5" height="5"/>
		</g>
		<g>
			<rect x="2.9" y="554.6" transform="matrix(0.7071 -0.7071 0.7071 0.7071 -230.6052 557.4367)" width="1109.5" height="5"/>
		</g>
		<g>
			<rect x="32.2" y="583.9" transform="matrix(0.7071 -0.7071 0.7071 0.7071 -242.7551 586.7704)" width="1109.5" height="5"/>
		</g>
		<g>
			<rect x="61.5" y="613.3" transform="matrix(0.7071 -0.7071 0.7071 0.7071 -254.9055 616.1036)" width="1109.5" height="5"/>
		</g>
	</g>
</g>
</svg>
