<?xml version="1.0" encoding="utf-8"?>
<!-- Generator: Adobe Illustrator 26.0.2, SVG Export Plug-In . SVG Version: 6.00 Build 0)  -->
<svg version="1.1" id="_x2014_ÎÓÈ_x5F_1" xmlns="http://www.w3.org/2000/svg" xmlns:xlink="http://www.w3.org/1999/xlink"
	 x="0px" y="0px" viewBox="0 0 616 616" style="enable-background:new 0 0 616 616;" xml:space="preserve">
<style type="text/css">
	.st0{clip-path:url(#SVGID_00000083784264829935467190000005763962718573177487_);}
	.st1{clip-path:url(#SVGID_00000114780036348775614090000017954086432287050653_);}
	.st2{clip-path:url(#SVGID_00000133523993652998835580000011271342031012713146_);}
	.st3{clip-path:url(#SVGID_00000011028294515478473010000001482514289348066722_);}
	.st4{clip-path:url(#SVGID_00000029041495849372699350000017035430585671367604_);}
	.st5{clip-path:url(#SVGID_00000026875872516319153900000007529383031861575307_);}
	.st6{clip-path:url(#SVGID_00000049933090614534018890000001661122731795365037_);}
	.st7{clip-path:url(#SVGID_00000096031842130190659460000003359451201896318115_);}
	.st8{clip-path:url(#SVGID_00000092441005491448657160000016594252799598492830_);}
	.st9{clip-path:url(#SVGID_00000049203662105494785980000009482014112135688337_);}
	.st10{clip-path:url(#SVGID_00000022540288016701300940000008683878394435408825_);}
	.st11{clip-path:url(#SVGID_00000152951052814419496160000018175910383768202382_);}
	.st12{clip-path:url(#SVGID_00000168113031337391277250000015122789426759610805_);}
	.st13{clip-path:url(#SVGID_00000132776364490142498140000001085546556285996183_);}
	.st14{clip-path:url(#SVGID_00000017507969925727251670000014311359051899387782_);}
	.st15{clip-path:url(#SVGID_00000091008418360656081390000002064375549942397595_);}
	.st16{clip-path:url(#SVGID_00000068636474307056116120000013003179509939174030_);}
	.st17{clip-path:url(#SVGID_00000178201166514720824050000014524442974920614066_);}
</style>
<g>
	<defs>
		<rect id="SVGID_00000016781273481244922940000012236027080445349781_" width="616" height="616"/>
	</defs>
	<clipPath id="SVGID_00000108995103429435489250000001067620583098151067_">
		<use xlink:href="#SVGID_00000016781273481244922940000012236027080445349781_"  style="overflow:visible;"/>
	</clipPath>
	<g style="clip-path:url(#SVGID_00000108995103429435489250000001067620583098151067_);">
		<g>
			<rect x="-554.5" y="-2.7" transform="matrix(0.7071 -0.7071 0.7071 0.7071 0.25 0.1036)" width="1109.5" height="5"/>
		</g>
		<g>
			<rect x="-498.5" y="53.3" transform="matrix(0.7071 -0.7071 0.7071 0.7071 -22.946 56.1035)" width="1109.5" height="5"/>
		</g>
		<g>
			<rect x="-442.5" y="109.3" transform="matrix(0.7071 -0.7071 0.7071 0.7071 -46.1419 112.1035)" width="1109.5" height="5"/>
		</g>
		<g>
			<rect x="-386.5" y="165.3" transform="matrix(0.7071 -0.7071 0.7071 0.7071 -69.3379 168.1035)" width="1109.5" height="5"/>
		</g>
		<g>
			<rect x="-330.5" y="221.3" transform="matrix(0.7071 -0.7071 0.7071 0.7071 -92.5338 224.1035)" width="1109.5" height="5"/>
		</g>
		<g>
			<rect x="-274.5" y="277.3" transform="matrix(0.7071 -0.7071 0.7071 0.7071 -115.7298 280.1035)" width="1109.5" height="5"/>
		</g>
		<g>
			<rect x="-218.5" y="333.3" transform="matrix(0.7071 -0.7071 0.7071 0.7071 -138.9258 336.1035)" width="1109.5" height="5"/>
		</g>
		<g>
			<rect x="-162.5" y="389.3" transform="matrix(0.7071 -0.7071 0.7071 0.7071 -162.1217 392.1035)" width="1109.5" height="5"/>
		</g>
		<g>
			<rect x="-106.5" y="445.3" transform="matrix(0.7071 -0.7071 0.7071 0.7071 -185.3177 448.1035)" width="1109.5" height="5"/>
		</g>
		<g>
			<rect x="-50.5" y="501.3" transform="matrix(0.7071 -0.7071 0.7071 0.7071 -208.5136 504.1035)" width="1109.5" height="5"/>
		</g>
		<g>
			<rect x="5.5" y="557.3" transform="matrix(0.7071 -0.7071 0.7071 0.7071 -231.7096 560.1035)" width="1109.5" height="5"/>
		</g>
		<g>
			<rect x="61.5" y="613.3" transform="matrix(0.7071 -0.7071 0.7071 0.7071 -254.9055 616.1035)" width="1109.5" height="5"/>
		</g>
	</g>
</g>
</svg>
