<?xml version="1.0" encoding="utf-8"?>
<!-- Generator: Adobe Illustrator 26.0.2, SVG Export Plug-In . SVG Version: 6.00 Build 0)  -->
<svg version="1.1" id="_x2014_ÎÓÈ_x5F_1" xmlns="http://www.w3.org/2000/svg" xmlns:xlink="http://www.w3.org/1999/xlink"
	 x="0px" y="0px" viewBox="0 0 616 616" style="enable-background:new 0 0 616 616;" xml:space="preserve">
<style type="text/css">
	.st0{clip-path:url(#SVGID_00000049210244488110896330000010930682656522303925_);}
	.st1{clip-path:url(#SVGID_00000075861681449304998800000001252167548535292289_);}
	.st2{clip-path:url(#SVGID_00000076604768959200189830000018291503719036901801_);}
	.st3{clip-path:url(#SVGID_00000128479327042795591600000007570819617318339458_);}
	.st4{clip-path:url(#SVGID_00000091016369142326991070000007722956037475139226_);}
	.st5{clip-path:url(#SVGID_00000014626722383540702090000009161627840277726130_);}
	.st6{clip-path:url(#SVGID_00000182530802355824420930000004946757483184867754_);}
	.st7{clip-path:url(#SVGID_00000036971916068638499960000012470974601022774185_);}
	.st8{clip-path:url(#SVGID_00000051377640150674594660000017465205265908330651_);}
	.st9{clip-path:url(#SVGID_00000005969655062609691110000009745834377328379542_);}
	.st10{clip-path:url(#SVGID_00000018195619436965872450000017008445904032657796_);}
	.st11{clip-path:url(#SVGID_00000058569919363718034190000002346802405058911642_);}
	.st12{clip-path:url(#SVGID_00000163040144566128821250000002775358590706600079_);}
	.st13{clip-path:url(#SVGID_00000123424357877618596540000002105472513728239247_);}
	.st14{clip-path:url(#SVGID_00000090268165001721901810000001485471502204159418_);}
	.st15{clip-path:url(#SVGID_00000170243408614396189520000012473907177820553383_);}
	.st16{clip-path:url(#SVGID_00000018958786048469646450000008555229053588238730_);}
	.st17{clip-path:url(#SVGID_00000092441977750762583580000016878170206966161299_);}
</style>
<g>
	<defs>
		<rect id="SVGID_00000023975796644874446620000010751590678724138377_" width="616" height="616"/>
	</defs>
	<clipPath id="SVGID_00000109717470129118543000000013388439103911568319_">
		<use xlink:href="#SVGID_00000023975796644874446620000010751590678724138377_"  style="overflow:visible;"/>
	</clipPath>
	<g style="clip-path:url(#SVGID_00000109717470129118543000000013388439103911568319_);">
		<g>
			<rect x="-554.5" y="-2.7" transform="matrix(0.7071 -0.7071 0.7071 0.7071 0.25 0.1035)" width="1109.5" height="5"/>
		</g>
		<g>
			<rect x="-539.5" y="12.3" transform="matrix(0.7071 -0.7071 0.7071 0.7071 -5.9733 15.128)" width="1109.5" height="5"/>
		</g>
		<g>
			<rect x="-524.4" y="27.3" transform="matrix(0.7071 -0.7071 0.7071 0.7071 -12.1966 30.153)" width="1109.5" height="5"/>
		</g>
		<g>
			<rect x="-509.4" y="42.3" transform="matrix(0.7071 -0.7071 0.7071 0.7071 -18.42 45.1768)" width="1109.5" height="5"/>
		</g>
		<g>
			<rect x="-494.4" y="57.3" transform="matrix(0.7071 -0.7071 0.7071 0.7071 -24.6433 60.2012)" width="1109.5" height="5"/>
		</g>
		<g>
			<rect x="-479.4" y="72.4" transform="matrix(0.7071 -0.7071 0.7071 0.7071 -30.8666 75.2256)" width="1109.5" height="5"/>
		</g>
		<g>
			<rect x="-464.3" y="87.4" transform="matrix(0.7071 -0.7071 0.7071 0.7071 -37.0899 90.25)" width="1109.5" height="5"/>
		</g>
		<g>
			<rect x="-449.3" y="102.4" transform="matrix(0.7071 -0.7071 0.7071 0.7071 -43.3132 105.2745)" width="1109.5" height="5"/>
		</g>
		<g>
			<rect x="-434.3" y="117.4" transform="matrix(0.7071 -0.7071 0.7071 0.7071 -49.5365 120.2989)" width="1109.5" height="5"/>
		</g>
		<g>
			<rect x="-419.3" y="132.5" transform="matrix(0.7071 -0.7071 0.7071 0.7071 -55.7598 135.3232)" width="1109.5" height="5"/>
		</g>
		<g>
			<rect x="-404.2" y="147.5" transform="matrix(0.7071 -0.7071 0.7071 0.7071 -61.9832 150.3477)" width="1109.5" height="5"/>
		</g>
		<g>
			<rect x="-389.2" y="162.5" transform="matrix(0.7071 -0.7071 0.7071 0.7071 -68.2066 165.3717)" width="1109.5" height="5"/>
		</g>
		<g>
			<rect x="-374.2" y="177.5" transform="matrix(0.7071 -0.7071 0.7071 0.7071 -74.4299 180.3998)" width="1109.5" height="5"/>
		</g>
		<g>
			<rect x="-359.2" y="192.6" transform="matrix(0.7071 -0.7071 0.7071 0.7071 -80.6533 195.4206)" width="1109.5" height="5"/>
		</g>
		<g>
			<rect x="-344.1" y="207.6" transform="matrix(0.7071 -0.7071 0.7071 0.7071 -86.8766 210.445)" width="1109.5" height="5"/>
		</g>
		<g>
			<rect x="-329.1" y="222.6" transform="matrix(0.7071 -0.7071 0.7071 0.7071 -93.0999 225.4694)" width="1109.5" height="5"/>
		</g>
		<g>
			<rect x="-314.1" y="237.6" transform="matrix(0.7071 -0.7071 0.7071 0.7071 -99.3232 240.489)" width="1109.5" height="5"/>
		</g>
		<g>
			<rect x="-299.1" y="252.7" transform="matrix(0.7071 -0.7071 0.7071 0.7071 -105.5465 255.5182)" width="1109.5" height="5"/>
		</g>
		<g>
			<rect x="-284" y="267.7" transform="matrix(0.7071 -0.7071 0.7071 0.7071 -111.7698 270.5426)" width="1109.5" height="5"/>
		</g>
		<g>
			<rect x="-269" y="282.7" transform="matrix(0.7071 -0.7071 0.7071 0.7071 -117.9931 285.5728)" width="1109.5" height="5"/>
		</g>
		<g>
			<rect x="-254" y="297.7" transform="matrix(0.7071 -0.7071 0.7071 0.7071 -124.2165 300.5915)" width="1109.5" height="5"/>
		</g>
		<g>
			<rect x="-239" y="312.8" transform="matrix(0.7071 -0.7071 0.7071 0.7071 -130.4391 315.6156)" width="1109.5" height="5"/>
		</g>
		<g>
			<rect x="-223.9" y="327.8" transform="matrix(0.7071 -0.7071 0.7071 0.7071 -136.6624 330.6466)" width="1109.5" height="5"/>
		</g>
		<g>
			<rect x="-208.9" y="342.8" transform="matrix(0.7071 -0.7071 0.7071 0.7071 -142.8857 345.6645)" width="1109.5" height="5"/>
		</g>
		<g>
			<rect x="-193.9" y="357.8" transform="matrix(0.7071 -0.7071 0.7071 0.7071 -149.109 360.693)" width="1109.5" height="5"/>
		</g>
		<g>
			<rect x="-178.9" y="372.9" transform="matrix(0.7071 -0.7071 0.7071 0.7071 -155.3324 375.7057)" width="1109.5" height="5"/>
		</g>
		<g>
			<rect x="-163.8" y="387.9" transform="matrix(0.7071 -0.7071 0.7071 0.7071 -161.5557 390.7377)" width="1109.5" height="5"/>
		</g>
		<g>
			<rect x="-148.8" y="402.9" transform="matrix(0.7071 -0.7071 0.7071 0.7071 -167.779 405.7621)" width="1109.5" height="5"/>
		</g>
		<g>
			<rect x="-133.8" y="417.9" transform="matrix(0.7071 -0.7071 0.7071 0.7071 -174.0023 420.7865)" width="1109.5" height="5"/>
		</g>
		<g>
			<rect x="-118.8" y="433" transform="matrix(0.7071 -0.7071 0.7071 0.7071 -180.2256 435.8196)" width="1109.5" height="5"/>
		</g>
		<g>
			<rect x="-103.7" y="448" transform="matrix(0.7071 -0.7071 0.7071 0.7071 -186.4489 450.8354)" width="1109.5" height="5"/>
		</g>
		<g>
			<rect x="-88.7" y="463" transform="matrix(0.7071 -0.7071 0.7071 0.7071 -192.6724 465.8594)" width="1109.5" height="5"/>
		</g>
		<g>
			<rect x="-73.7" y="478" transform="matrix(0.7071 -0.7071 0.7071 0.7071 -198.8957 480.8839)" width="1109.5" height="5"/>
		</g>
		<g>
			<rect x="-58.7" y="493.1" transform="matrix(0.7071 -0.7071 0.7071 0.7071 -205.119 495.9082)" width="1109.5" height="5"/>
		</g>
		<g>
			<rect x="-43.6" y="508.1" transform="matrix(0.7071 -0.7071 0.7071 0.7071 -211.3423 510.9326)" width="1109.5" height="5"/>
		</g>
		<g>
			<rect x="-28.6" y="523.1" transform="matrix(0.7071 -0.7071 0.7071 0.7071 -217.5657 525.957)" width="1109.5" height="5"/>
		</g>
		<g>
			<rect x="-13.6" y="538.1" transform="matrix(0.7071 -0.7071 0.7071 0.7071 -223.789 540.9815)" width="1109.5" height="5"/>
		</g>
		<g>
			<rect x="1.4" y="553.2" transform="matrix(0.7071 -0.7071 0.7071 0.7071 -230.0123 556.0059)" width="1109.5" height="5"/>
		</g>
		<g>
			<rect x="16.5" y="568.2" transform="matrix(0.7071 -0.7071 0.7071 0.7071 -236.2356 571.0303)" width="1109.5" height="5"/>
		</g>
		<g>
			<rect x="31.5" y="583.2" transform="matrix(0.7071 -0.7071 0.7071 0.7071 -242.4589 586.0547)" width="1109.5" height="5"/>
		</g>
		<g>
			<rect x="46.5" y="598.2" transform="matrix(0.7071 -0.7071 0.7071 0.7071 -248.6823 601.0784)" width="1109.5" height="5"/>
		</g>
		<g>
			<rect x="61.5" y="613.3" transform="matrix(0.7071 -0.7071 0.7071 0.7071 -254.9055 616.1035)" width="1109.5" height="5"/>
		</g>
	</g>
</g>
</svg>
