<?xml version="1.0" encoding="utf-8"?>
<!-- Generator: Adobe Illustrator 22.1.0, SVG Export Plug-In . SVG Version: 6.00 Build 0)  -->
<svg version="1.1" id="Layer_1" xmlns="http://www.w3.org/2000/svg" xmlns:xlink="http://www.w3.org/1999/xlink" x="0px" y="0px"
	 viewBox="0 0 176 26.1" style="enable-background:new 0 0 176 26.1;" xml:space="preserve">
<style type="text/css">
	.st0{display:none;}
	.st1{fill:#0072BC;}
</style>
<g id="Layer_1_1_" class="st0">
</g>
<g id="Layer_2_1_" class="st0">
</g>
<g id="Layer_3" class="st0">
</g>
<g id="Layer_4" class="st0">
</g>
<g id="Layer_5" class="st0">
</g>
<g id="Layer_6">
	<g>
		<g>
			<path d="M40.5,0.7v7.4h-0.6c-1.7-4.8-3.1-6.7-5-6.7h-0.4v21c0,1.5,0.5,2.5,2.8,2.5v0.5h-9.7V25c2.2-0.1,2.8-1,2.8-2.5v-21H30
				c-1.9,0-3.3,1.9-5,6.7h-0.6V0.7H40.5z"/>
		</g>
		<path d="M41.5,25c2.1-0.1,2.5-1,2.5-2.5V3.6c0-1.5-0.4-2.4-2.5-2.5V0.7h8.9v0.4c-1.7,0.1-2.3,0.9-2.3,2.5v8.6H55V3.6
			c0-1.6-0.6-2.4-2.3-2.5V0.7h8.9v0.4c-2.1,0.1-2.5,1-2.5,2.5v18.9c0,1.5,0.4,2.4,2.5,2.5v0.5h-8.9V25c1.7-0.1,2.3-0.9,2.3-2.5V13
			h-6.9v9.5c0,1.6,0.6,2.4,2.3,2.5v0.5h-8.9V25z"/>
		<g>
			<path d="M86.5,17.2H87c2.6,6,4.3,8,6.5,8s3.5-2.1,3.5-4.3c0-3.7-2.6-5.1-5.1-6.5c-2.6-1.4-5.2-2.8-5.2-6.8c0-4.6,3.2-7.5,6.9-7.5
				c1.4,0,3.4,0.5,4.2,1L98.5,0H99v8.1h-0.6c-2.2-5.8-3.6-7.2-5.3-7.2c-1.6,0-3.3,1.2-3.3,4.2c0,3.3,2.3,4.4,4.8,5.7
				c2.6,1.4,5.3,2.9,5.3,7.2c0,3.7-2.2,8-6.9,8c-1.5,0-3.9-0.7-5-1.5l-1,1.7h-0.5L86.5,17.2L86.5,17.2z"/>
			<g>
				<path d="M117.3,0.7v7.4h-0.6c-1.7-4.8-3.1-6.7-5-6.7h-0.4v21c0,1.5,0.5,2.5,2.8,2.5v0.5h-9.7V25c2.2-0.1,2.8-1,2.8-2.5v-21h-0.4
					c-1.9,0-3.3,1.9-5,6.7h-0.6V0.7H117.3z"/>
			</g>
			<path d="M149.8,19.5c-0.2-3.8-1.3-6.1-5-6.4V13c4-0.8,5.4-3.2,5.4-6.3c0-3.4-1.8-6-7.1-6H134v0.4c2.1,0.1,2.5,1,2.5,2.5v18.8
				c0,1.5-0.7,2.5-2.3,2.5c-1.5,0-2.2-1-3-3.7l-5.3-20.8h-2.6l-4.7,18.6c-1.2,4.6-2,5.2-3.7,5.9v0.5h6.4V25c-2.4-0.5-3-1.3-1.7-6.1
				l0.5-2.1h6l1.3,5.2c0.5,2.2,0.2,2.9-2.2,3v0.5h17.8V25c-1.7-0.1-2.4-0.9-2.4-2.5v-9h1.2c2.9,0,3.4,0.7,3.7,4.3l0.2,3.4
				c0.2,3.3,0.7,4.6,4.1,4.6c0.9,0,1.8-0.2,2.7-0.5v-0.4C150.6,24.8,150,23.3,149.8,19.5z M120.3,16C120.3,16,123,5,123,5h0.1
				c0,0,2.8,11.1,2.7,11.1H120.3z M142.1,12.7h-1.5V1.4h1.3c3.1,0,4,2.1,4,5.4C145.9,10.3,145.2,12.7,142.1,12.7z"/>
		</g>
		<path d="M62.7,25c2.1-0.1,2.5-1,2.5-2.5V3.7c0-1.5-0.4-2.5-2.5-2.5V0.7h15.4v7.4h-0.6c-1.6-3.9-2.3-6.7-6-6.7h-2.2v11H70
			c1.9,0,3-0.9,3.9-4.8h0.6v10.2h-0.6c-0.9-3.9-2-4.8-3.9-4.8h-0.7v11.6h2.3c3.8,0,5.2-2.5,6.7-7.7l0.6,0l-0.1,8.4h-16L62.7,25
			L62.7,25L62.7,25z"/>
		<polygon class="st1" points="18.7,0.7 0.4,0.7 6.3,13.1 0.4,25.5 18.7,25.5 		"/>
		<polygon class="st1" points="157.3,25.5 175.6,25.5 169.7,13.1 175.6,0.7 157.3,0.7 		"/>
	</g>
</g>
</svg>
